comic-neue_regular-oblique.sfdir
StartChar: exclam
Encoding: 33 33 4
Width: 505
GlyphClass: 2
Flags: W
LayerCount: 2
Back
Fore
SplineSet
4 84 m 256,0,1
 14 119 14 119 44 144.5 c 128,-1,2
 74 170 74 170 104 170 c 0,3,4
 135 170 135 170 149.5 144.5 c 128,-1,5
 164 119 164 119 152 84 c 1,6,7
 142 49 142 49 113 24.5 c 128,-1,8
 84 0 84 0 53 0 c 256,9,10
 22 0 22 0 8 24.5 c 128,-1,11
 -6 49 -6 49 4 84 c 256,0,1
90 371 m 1,12,-1
 301 1358 l 1,13,-1
 303 1360 l 1,14,15
 307 1385 307 1385 328.5 1402 c 128,-1,16
 350 1419 350 1419 375 1419 c 256,17,18
 400 1419 400 1419 413 1401.5 c 128,-1,19
 426 1384 426 1384 422 1360 c 1,20,-1
 420 1358 l 1,21,-1
 209 371 l 1,22,23
 205 346 205 346 183.5 328.5 c 128,-1,24
 162 311 162 311 137 311 c 256,25,26
 112 311 112 311 99 328.5 c 128,-1,27
 86 346 86 346 90 371 c 1,12,-1
EndSplineSet
EndChar
StartChar: quotedbl
Encoding: 34 34 114
Width: 313
Flags: MW
HStem: 500 190<140 195.5 180 274.5>
LayerCount: 2
Back
Fore
SplineSet
148 500 m 0
 132 500 122 512 126 528 c 2
 154 662 l 2
 157 677 172 690 188 690 c 0
 203 690 213 677 210 662 c 2
 182 528 l 2
 178 512 163 500 148 500 c 0
267 500 m 0
 251 500 241 512 245 528 c 2
 273 662 l 2
 276 677 291 690 307 690 c 0
 322 690 332 677 329 662 c 2
 301 528 l 2
 297 512 282 500 267 500 c 0
EndSplineSet
EndChar
StartChar: numbersign
Encoding: 35 35 86
Width: 746
Flags: MW
HStem: 0 21G<118.5 132.5 329.5 343.5> 210 56<70 223 90 195 281 406 90 253 492 600> 429 56<162 334 182 305 182 364 392 516 603 692> 669 20G
LayerCount: 2
Back
Fore
SplineSet
603 485 m 1
 704 485 l 2
 719 485 729 472 726 457 c 0
 722 441 707 429 692 429 c 2
 575 429 l 1
 492 266 l 1
 612 266 l 2
 627 266 637 253 634 238 c 0
 631 222 615 210 600 210 c 2
 464 210 l 1
 369 20 l 2
 362 8 349 0 338 0 c 0
 321 0 312 13 315 28 c 0
 316 31 318 37 323 46 c 2
 406 210 l 1
 253 210 l 1
 158 20 l 2
 151 8 138 0 127 0 c 0
 110 0 101 13 104 26 c 0
 105 31 107 36 112 45 c 2
 195 210 l 1
 78 210 l 2
 62 210 53 222 56 238 c 0
 59 253 74 266 90 266 c 2
 223 266 l 1
 305 429 l 1
 170 429 l 2
 154 429 144 441 148 457 c 0
 151 472 166 485 182 485 c 2
 334 485 l 1
 426 669 l 2
 431 681 445 689 457 689 c 0
 474 689 482 676 479 662 c 0
 478 656 476 651 473 645 c 2
 392 485 l 1
 545 485 l 1
 637 669 l 2
 642 681 656 689 668 689 c 0
 685 689 693 675 690 661 c 0
 689 658 687 653 684 646 c 2
 603 485 l 1
434 266 m 1
 516 429 l 1
 364 429 l 1
 281 266 l 1
 434 266 l 1
EndSplineSet
EndChar
StartChar: dollar
Encoding: 36 36 101
Width: 604
Flags: MW
HStem: -74 21G<231.5 246.5> 0 185<69.5 228> 517 161 731 20G<406.5 421.5>
LayerCount: 2
Back
Fore
SplineSet
218 -46 m 2
 228 0 l 1
 127 8 55 62 42 142 c 0
 41 145 40 149 42 158 c 0
 44 168 60 185 79 185 c 0
 93 185 102 175 104 162 c 0
 113 95 174 61 239 54 c 1
 299 337 l 1
 215 366 133 418 153 510 c 0
 177 624 281 671 372 678 c 1
 381 723 l 2
 384 738 399 751 414 751 c 0
 429 751 439 738 436 723 c 2
 427 680 l 1
 515 680 621 646 599 542 c 0
 596 528 581 517 567 517 c 0
 551 517 543 527 543 541 c 0
 551 623 434 629 417 631 c 1
 364 382 l 1
 492 342 545 279 526 191 c 0
 503 84 406 16 283 1 c 1
 273 -46 l 2
 270 -61 254 -74 239 -74 c 0
 224 -74 215 -61 218 -46 c 2
215 507 m 0
 206 463 238 427 312 399 c 1
 361 627 l 1
 259 612 226 556 215 507 c 0
294 55 m 1
 375 67 447 109 465 197 c 0
 471 225 473 279 351 321 c 1
 294 55 l 1
EndSplineSet
EndChar
StartChar: percent
Encoding: 37 37 8
Width: 1275
GlyphClass: 2
Flags: W
LayerCount: 2
Back
Fore
SplineSet
82 37.5 m 128,-1,1
 80 59 80 59 96 78 c 1,2,-1
 1098 1386 l 1,3,4
 1114 1404 1114 1404 1135.5 1410.5 c 128,-1,5
 1157 1417 1157 1417 1176 1407 c 1,6,7
 1192 1397 1192 1397 1194 1375.5 c 128,-1,8
 1196 1354 1196 1354 1180 1335 c 1,9,-1
 176 27 l 2,10,11
 156 0 156 0 125 0 c 0,12,13
 113 0 113 0 100 6 c 1,14,0
 84 16 84 16 82 37.5 c 128,-1,1
111.5 1034 m 128,-1,16
 100 1085 100 1085 113 1143 c 0,17,18
 125 1200 125 1200 157.5 1251.5 c 128,-1,19
 190 1303 190 1303 236.5 1340.5 c 128,-1,20
 283 1378 283 1378 338 1399.5 c 128,-1,21
 393 1421 393 1421 451 1421 c 0,22,23
 508 1421 508 1421 554 1399.5 c 128,-1,24
 600 1378 600 1378 629.5 1340.5 c 128,-1,25
 659 1303 659 1303 670.5 1251.5 c 128,-1,26
 682 1200 682 1200 670 1143 c 256,27,28
 658 1086 658 1086 625 1034.5 c 128,-1,29
 592 983 592 983 546 945 c 128,-1,30
 500 907 500 907 444.5 885.5 c 128,-1,31
 389 864 389 864 332 864 c 256,32,33
 275 864 275 864 228.5 885.5 c 128,-1,34
 182 907 182 907 152.5 945 c 128,-1,15
 123 983 123 983 111.5 1034 c 128,-1,16
223 1143 m 0,35,36
 207 1071 207 1071 247 1023 c 128,-1,37
 287 975 287 975 356 975 c 0,38,39
 426 975 426 975 484.5 1023 c 128,-1,40
 543 1071 543 1071 559 1143 c 0,41,42
 575 1213 575 1213 536.5 1262 c 128,-1,43
 498 1311 498 1311 428 1311 c 0,44,45
 393 1311 393 1311 359.5 1297.5 c 128,-1,46
 326 1284 326 1284 298 1261.5 c 128,-1,47
 270 1239 270 1239 250.5 1208.5 c 128,-1,48
 231 1178 231 1178 223 1143 c 0,35,36
593 153.5 m 128,-1,50
 582 205 582 205 594 262 c 256,51,52
 606 319 606 319 639 370.5 c 128,-1,53
 672 422 672 422 718 460 c 128,-1,54
 764 498 764 498 819 519.5 c 128,-1,55
 874 541 874 541 932 541 c 0,56,57
 989 541 989 541 1035 519.5 c 128,-1,58
 1081 498 1081 498 1111 460 c 128,-1,59
 1141 422 1141 422 1152 370.5 c 128,-1,60
 1163 319 1163 319 1151 262 c 256,61,62
 1139 205 1139 205 1106 153.5 c 128,-1,63
 1073 102 1073 102 1027 64.5 c 128,-1,64
 981 27 981 27 925.5 5.5 c 128,-1,65
 870 -16 870 -16 813 -16 c 256,66,67
 756 -16 756 -16 710 5.5 c 128,-1,68
 664 27 664 27 634 64.5 c 128,-1,49
 604 102 604 102 593 153.5 c 128,-1,50
705 262 m 1,69,70
 689 190 689 190 727.5 142 c 128,-1,71
 766 94 766 94 836 94 c 256,72,73
 906 94 906 94 965 142 c 128,-1,74
 1024 190 1024 190 1040 262 c 1,75,76
 1054 332 1054 332 1015.5 381 c 128,-1,77
 977 430 977 430 907 430 c 256,78,79
 837 430 837 430 778 381 c 128,-1,80
 719 332 719 332 705 262 c 1,69,70
EndSplineSet
EndChar
StartChar: ampersand
Encoding: 38 38 9
Width: 1118
GlyphClass: 2
Flags: W
LayerCount: 2
Back
Fore
SplineSet
8 371 m 256,0,1
 26 459 26 459 69.5 524.5 c 128,-1,2
 113 590 113 590 170 640 c 128,-1,3
 227 690 227 690 294.5 727 c 128,-1,4
 362 764 362 764 432 799 c 1,5,6
 416 826 416 826 396.5 861.5 c 128,-1,7
 377 897 377 897 362.5 939 c 128,-1,8
 348 981 348 981 342 1027 c 128,-1,9
 336 1073 336 1073 346 1122 c 0,10,11
 358 1181 358 1181 395 1234.5 c 128,-1,12
 432 1288 432 1288 487 1331 c 0,13,14
 538 1370 538 1370 596.5 1391.5 c 128,-1,15
 655 1413 655 1413 709 1413 c 0,16,17
 766 1413 766 1413 816 1389.5 c 128,-1,18
 866 1366 866 1366 900 1326 c 128,-1,19
 934 1286 934 1286 948.5 1235 c 128,-1,20
 963 1184 963 1184 950 1128 c 1,21,22
 940 1079 940 1079 920.5 1036 c 128,-1,23
 901 993 901 993 865 951 c 128,-1,24
 829 909 829 909 771 868 c 128,-1,25
 713 827 713 827 623 780 c 1,26,27
 611 772 611 772 602 770 c 1,28,-1
 823 418 l 1,29,30
 843 449 843 449 864 482.5 c 128,-1,31
 885 516 885 516 903 557 c 1,32,-1
 918 582 l 1,33,34
 934 623 934 623 979 623 c 0,35,36
 1002 623 1002 623 1015 606.5 c 128,-1,37
 1028 590 1028 590 1022 567 c 1,38,39
 1022 563 1022 563 1020 560 c 128,-1,40
 1018 557 1018 557 1016 553 c 2,41,-1
 1004 528 l 1,42,43
 945 411 945 411 881 326 c 1,44,-1
 1028 90 l 2,45,46
 1038 74 1038 74 1032 55 c 1,47,48
 1028 32 1028 32 1008.5 16 c 128,-1,49
 989 0 989 0 967 0 c 0,50,51
 938 0 938 0 928 20 c 1,52,-1
 799 225 l 1,53,54
 721 143 721 143 648 96 c 128,-1,55
 575 49 575 49 514 26.5 c 128,-1,56
 453 4 453 4 407.5 -2 c 128,-1,57
 362 -8 362 -8 344 -8 c 0,58,59
 270 -8 270 -8 201.5 18.5 c 128,-1,60
 133 45 133 45 84 94 c 128,-1,61
 35 143 35 143 12.5 213 c 128,-1,62
 -10 283 -10 283 8 371 c 256,0,1
119 371 m 0,63,64
 105 301 105 301 124 251 c 128,-1,65
 143 201 143 201 182 168 c 128,-1,66
 221 135 221 135 270.5 118.5 c 128,-1,67
 320 102 320 102 367 102 c 0,68,69
 383 102 383 102 420 107.5 c 128,-1,70
 457 113 457 113 507 133.5 c 128,-1,71
 557 154 557 154 617.5 197 c 128,-1,72
 678 240 678 240 743 313 c 1,73,-1
 494 717 l 1,74,75
 424 682 424 682 361.5 650 c 128,-1,76
 299 618 299 618 250 578.5 c 128,-1,77
 201 539 201 539 167 488.5 c 128,-1,78
 133 438 133 438 119 371 c 0,63,64
456 1046.5 m 128,-1,80
 463 1008 463 1008 476 973 c 128,-1,81
 489 938 489 938 508.5 906 c 128,-1,82
 528 874 528 874 545 854 c 1,83,84
 555 858 555 858 566.5 864 c 128,-1,85
 578 870 578 870 588 874 c 0,86,87
 672 917 672 917 720 952 c 128,-1,88
 768 987 768 987 792.5 1017 c 128,-1,89
 817 1047 817 1047 826.5 1073.5 c 128,-1,90
 836 1100 836 1100 842 1128 c 0,91,92
 848 1161 848 1161 837.5 1192 c 128,-1,93
 827 1223 827 1223 805.5 1247.5 c 128,-1,94
 784 1272 784 1272 752.5 1287.5 c 128,-1,95
 721 1303 721 1303 686 1303 c 0,96,97
 653 1303 653 1303 616.5 1289.5 c 128,-1,98
 580 1276 580 1276 547 1251.5 c 128,-1,99
 514 1227 514 1227 489.5 1194 c 128,-1,100
 465 1161 465 1161 457 1122 c 0,101,79
 449 1085 449 1085 456 1046.5 c 128,-1,80
EndSplineSet
EndChar
StartChar: quotesingle
Encoding: 39 39 113
Width: 194
Flags: MW
HStem: 500 21G<140 155.5> 670 20G<180 195.5>
LayerCount: 2
Back
Fore
SplineSet
148 500 m 0
 132 500 122 512 126 528 c 2
 154 662 l 2
 157 677 172 690 188 690 c 0
 203 690 213 677 210 662 c 2
 182 528 l 2
 178 512 163 500 148 500 c 0
EndSplineSet
EndChar
StartChar: parenleft
Encoding: 40 40 11
Width: 786
GlyphClass: 2
Flags: W
LayerCount: 2
Back
Fore
SplineSet
2 458 m 128,-1,1
 2 580 2 580 31 719 c 0,2,3
 72 912 72 912 172 1092 c 1,4,5
 248 1233 248 1233 365 1372 c 0,6,7
 414 1429 414 1429 460 1475.5 c 128,-1,8
 506 1522 506 1522 540.5 1552.5 c 128,-1,9
 575 1583 575 1583 596 1600 c 1,10,-1
 618 1616 l 2,11,12
 641 1632 641 1632 663.5 1629 c 128,-1,13
 686 1626 686 1626 696 1608 c 1,14,15
 708 1590 708 1590 701 1566 c 128,-1,16
 694 1542 694 1542 672 1528 c 0,17,18
 670 1526 670 1526 637 1499.5 c 128,-1,19
 604 1473 604 1473 555 1424.5 c 128,-1,20
 506 1376 506 1376 445.5 1305.5 c 128,-1,21
 385 1235 385 1235 326.5 1146 c 128,-1,22
 268 1057 268 1057 220 949.5 c 128,-1,23
 172 842 172 842 145 719 c 0,24,25
 118 594 118 594 118.5 483.5 c 128,-1,26
 119 373 119 373 135.5 279.5 c 128,-1,27
 152 186 152 186 178.5 112.5 c 128,-1,28
 205 39 205 39 230.5 -13.5 c 128,-1,29
 256 -66 256 -66 274.5 -93.5 c 128,-1,30
 293 -121 293 -121 295 -123 c 0,31,32
 307 -139 307 -139 304 -162.5 c 128,-1,33
 301 -186 301 -186 279 -203 c 0,34,35
 256 -221 256 -221 236 -221 c 0,36,37
 213 -221 213 -221 197 -205 c 1,38,39
 197 -205 197 -205 176 -174 c 0,40,41
 156 -143 156 -143 127 -87 c 128,-1,42
 98 -31 98 -31 68.5 50 c 128,-1,43
 39 131 39 131 20.5 233.5 c 128,-1,0
 2 336 2 336 2 458 c 128,-1,1
672 1526 m 1,44,-1
 672 1528 l 1,45,-1
 672 1526 l 1,44,-1
EndSplineSet
EndChar
StartChar: parenright
Encoding: 41 41 102
Width: 369
Flags: MW
HStem: -108 21G<20.5 33> 775 20G<197.5 208>
LayerCount: 2
Back
Fore
SplineSet
177 746 m 0
 172 752 170 759 172 767 c 0
 175 782 190 795 205 795 c 0
 211 795 218 792 226 783 c 0
 316 678 358 522 322 351 c 0
 267 91 76 -74 54 -96 c 0
 48 -102 39 -108 27 -108 c 0
 14 -108 2 -96 5 -81 c 0
 7 -73 11 -66 19 -60 c 0
 22 -57 214 107 266 351 c 0
 317 592 180 743 177 746 c 0
EndSplineSet
EndChar
StartChar: asterisk
Encoding: 42 42 13
Width: 624
GlyphClass: 2
Flags: W
LayerCount: 2
Back
Fore
SplineSet
2 952 m 128,-1,1
 6 975 6 975 25 991 c 0,2,3
 43 1007 43 1007 59 1022 c 0,4,5
 73 1034 73 1034 85.5 1046.5 c 128,-1,6
 98 1059 98 1059 104 1063 c 0,7,8
 129 1083 129 1083 156 1104 c 0,9,10
 170 1114 170 1114 186 1124 c 1,11,12
 170 1128 170 1128 154 1135 c 1,13,14
 125 1145 125 1145 98 1159 c 0,15,16
 90 1163 90 1163 81 1169.5 c 128,-1,17
 72 1176 72 1176 61 1182 c 0,18,19
 51 1188 51 1188 39 1194 c 1,20,21
 23 1204 23 1204 21.5 1226.5 c 128,-1,22
 20 1249 20 1249 37 1268 c 1,23,24
 53 1288 53 1288 76.5 1294 c 128,-1,25
 100 1300 100 1300 117 1288 c 1,26,27
 129 1284 129 1284 137 1278 c 1,28,29
 145 1274 145 1274 152.5 1269 c 128,-1,30
 160 1264 160 1264 164 1262 c 0,31,32
 176 1256 176 1256 187.5 1246.5 c 128,-1,33
 199 1237 199 1237 209 1229 c 1,34,35
 219 1219 219 1219 231 1208 c 1,36,37
 229 1224 229 1224 231 1243 c 1,38,39
 231 1259 231 1259 233.5 1275.5 c 128,-1,40
 236 1292 236 1292 240 1305 c 1,41,42
 240 1309 240 1309 242 1317 c 128,-1,43
 244 1325 244 1325 246 1335 c 256,44,45
 248 1345 248 1345 250 1358 c 1,46,47
 256 1381 256 1381 275.5 1397 c 128,-1,48
 295 1413 295 1413 317 1413 c 0,49,50
 340 1413 340 1413 353.5 1396.5 c 128,-1,51
 367 1380 367 1380 360 1358 c 1,52,53
 358 1346 358 1346 356 1335 c 0,54,55
 354 1325 354 1325 352 1316 c 128,-1,56
 350 1307 350 1307 350 1303 c 1,57,58
 346 1289 346 1289 341 1272 c 128,-1,59
 336 1255 336 1255 332 1241 c 0,60,61
 326 1223 326 1223 319 1206 c 1,62,63
 333 1218 333 1218 348 1227 c 0,64,65
 360 1235 360 1235 375.5 1243 c 128,-1,66
 391 1251 391 1251 406 1260 c 0,67,68
 410 1262 410 1262 421 1267 c 128,-1,69
 432 1272 432 1272 442 1276 c 0,70,71
 454 1282 454 1282 469 1288 c 0,72,73
 492 1298 492 1298 512 1292 c 128,-1,74
 532 1286 532 1286 539 1268 c 0,75,76
 547 1248 547 1248 535.5 1225 c 128,-1,77
 524 1202 524 1202 502 1192 c 1,78,79
 484 1186 484 1186 469 1178 c 0,80,81
 457 1172 457 1172 444.5 1165.5 c 128,-1,82
 432 1159 432 1159 428 1157 c 0,83,84
 395 1143 395 1143 365 1137 c 1,85,86
 347 1131 347 1131 326 1128 c 1,87,88
 338 1120 338 1120 348 1110 c 0,89,90
 368 1087 368 1087 385 1067 c 1,91,-1
 436 995 l 1,92,93
 446 979 446 979 442 956.5 c 128,-1,94
 438 934 438 934 420 918 c 1,95,96
 397 902 397 902 374.5 901.5 c 128,-1,97
 352 901 352 901 342 918 c 1,98,99
 328 936 328 936 317 952 c 0,100,101
 307 966 307 966 299 978.5 c 128,-1,102
 291 991 291 991 287 995 c 1,103,104
 273 1018 273 1018 262 1047 c 1,105,106
 254 1063 254 1063 250 1079 c 1,107,108
 236 1063 236 1063 223 1047 c 1,109,110
 213 1033 213 1033 199.5 1019.5 c 128,-1,111
 186 1006 186 1006 176 995 c 0,112,113
 170 989 170 989 156.5 977 c 128,-1,114
 143 965 143 965 127 950 c 0,115,116
 109 934 109 934 88 915 c 1,117,118
 68 899 68 899 45.5 898 c 128,-1,119
 23 897 23 897 8 913 c 1,120,0
 -2 929 -2 929 2 952 c 128,-1,1
EndSplineSet
EndChar
StartChar: plus
Encoding: 43 43 104
Width: 443
Flags: MW
HStem: 85 193<176.5 191.5> 224 54<65.5 198 85 186 252 354 85 240> 224 183<65.5 259.5 73 259.5 244.5 259.5 244.5 354 240 259.5>
LayerCount: 2
Back
Fore
SplineSet
354 224 m 2x80
 240 224 l 1x40
 216 112 l 2
 213 97 199 85 184 85 c 0x80
 169 85 159 97 162 112 c 2
 186 224 l 1
 73 224 l 2x40
 58 224 49 236 52 251 c 0
 55 266 70 278 85 278 c 2
 198 278 l 1x80
 219 380 l 2
 222 395 237 407 252 407 c 0x20
 267 407 276 395 273 380 c 2
 252 278 l 1
 366 278 l 2
 381 278 390 266 387 251 c 0
 384 236 369 224 354 224 c 2x80
EndSplineSet
EndChar
StartChar: comma
Encoding: 44 44 15
Width: 270
GlyphClass: 2
Flags: W
LayerCount: 2
Back
Fore
SplineSet
-120.5 -162.5 m 128,-1,1
 -125 -145 -125 -145 -115 -127 c 2,2,-1
 -37 4 l 1,3,4
 -60 33 -60 33 -47 74 c 1,5,6
 -37 109 -37 109 -7.5 133.5 c 128,-1,7
 22 158 22 158 53 158 c 256,8,9
 84 158 84 158 98.5 133.5 c 128,-1,10
 113 109 113 109 100 74 c 0,11,12
 98 70 98 70 97 63.5 c 128,-1,13
 96 57 96 57 92 53 c 1,14,15
 88 47 88 47 86 41 c 1,16,17
 80 31 80 31 61.5 -2 c 128,-1,18
 43 -35 43 -35 20 -70 c 1,19,20
 -5 -111 -5 -111 -35 -160 c 0,21,22
 -47 -178 -47 -178 -65.5 -186.5 c 128,-1,23
 -84 -195 -84 -195 -100 -186 c 1,24,0
 -116 -180 -116 -180 -120.5 -162.5 c 128,-1,1
EndSplineSet
EndChar
StartChar: hyphen
Encoding: 45 45 112
Width: 441
Flags: MW
HStem: 223 54<83 348 101 337>
LayerCount: 2
Back
Fore
SplineSet
337 223 m 2
 90 223 l 2
 76 223 66 236 69 250 c 0
 72 265 87 277 101 277 c 2
 348 277 l 2
 363 277 373 265 370 250 c 0
 367 236 352 223 337 223 c 2
EndSplineSet
EndChar
StartChar: period
Encoding: 46 46 17
Width: 321
GlyphClass: 2
Flags: W
LayerCount: 2
Back
Fore
SplineSet
4 86 m 256,0,1
 14 121 14 121 44 145.5 c 128,-1,2
 74 170 74 170 104 170 c 0,3,4
 135 170 135 170 149.5 145.5 c 128,-1,5
 164 121 164 121 152 86 c 1,6,7
 142 51 142 51 113 25.5 c 128,-1,8
 84 0 84 0 53 0 c 256,9,10
 22 0 22 0 8 25.5 c 128,-1,11
 -6 51 -6 51 4 86 c 256,0,1
EndSplineSet
EndChar
StartChar: slash
Encoding: 47 47 18
Width: 1120
GlyphClass: 2
Flags: W
LayerCount: 2
Back
Fore
SplineSet
1 38.5 m 128,-1,1
 -2 61 -2 61 14 84 c 1,2,-1
 1016 1389 l 2,3,4
 1032 1409 1032 1409 1055.5 1415 c 128,-1,5
 1079 1421 1079 1421 1100 1409 c 0,6,7
 1116 1399 1116 1399 1118 1376.5 c 128,-1,8
 1120 1354 1120 1354 1104 1331 c 1,9,-1
 102 27 l 2,10,11
 80 -2 80 -2 47 -2 c 0,12,13
 35 -2 35 -2 20 4 c 1,14,0
 4 16 4 16 1 38.5 c 128,-1,1
EndSplineSet
EndChar
StartChar: zero
Encoding: 48 48 19
Width: 1077
GlyphClass: 2
Flags: W
LayerCount: 2
Back
Fore
SplineSet
5 374.5 m 128,-1,1
 -12 526 -12 526 31 700 c 0,2,3
 66 839 66 839 131.5 965.5 c 128,-1,4
 197 1092 197 1092 289 1192 c 1,5,6
 383 1296 383 1296 486.5 1350.5 c 128,-1,7
 590 1405 590 1405 692 1405 c 0,8,9
 850 1405 850 1405 944 1276 c 0,10,11
 1016 1176 1016 1176 1032.5 1023 c 128,-1,12
 1049 870 1049 870 1006 696 c 0,13,14
 971 557 971 557 906.5 431 c 128,-1,15
 842 305 842 305 750 207 c 1,16,17
 654 103 654 103 551 48.5 c 128,-1,18
 448 -6 448 -6 346 -6 c 0,19,20
 192 -6 192 -6 94 123 c 1,21,0
 22 223 22 223 5 374.5 c 128,-1,1
117.5 415.5 m 128,-1,23
 131 285 131 285 190 201 c 1,24,25
 260 107 260 107 371 106 c 0,26,27
 449 106 449 106 529.5 153.5 c 128,-1,28
 610 201 610 201 682 280.5 c 128,-1,29
 754 360 754 360 810 469 c 128,-1,30
 866 578 866 578 897 700 c 1,31,32
 934 852 934 852 920.5 982 c 128,-1,33
 907 1112 907 1112 848 1196 c 1,34,35
 776 1292 776 1292 670 1292 c 0,36,37
 590 1292 590 1292 509 1245 c 128,-1,38
 428 1198 428 1198 356.5 1117 c 128,-1,39
 285 1036 285 1036 228.5 927.5 c 128,-1,40
 172 819 172 819 141 696 c 0,41,22
 104 546 104 546 117.5 415.5 c 128,-1,23
EndSplineSet
EndChar
StartChar: one
Encoding: 49 49 20
Width: 772
GlyphClass: 2
Flags: W
LayerCount: 2
Back
Fore
SplineSet
2 57 m 1,0,1
 8 80 8 80 27.5 97.5 c 128,-1,2
 47 115 47 115 72 115 c 2,3,-1
 254 115 l 1,4,-1
 500 1186 l 1,5,-1
 301 1012 l 1,6,7
 278 996 278 996 255.5 993.5 c 128,-1,8
 233 991 233 991 217 1008 c 0,9,10
 203 1024 203 1024 207 1048.5 c 128,-1,11
 211 1073 211 1073 233 1090 c 1,12,-1
 555 1374 l 2,13,14
 571 1388 571 1388 589.5 1392.5 c 128,-1,15
 608 1397 608 1397 623 1389 c 1,16,17
 639 1383 639 1383 645 1367.5 c 128,-1,18
 651 1352 651 1352 647 1335 c 2,19,-1
 369 115 l 1,20,-1
 518 115 l 2,21,22
 541 115 541 115 555 97.5 c 128,-1,23
 569 80 569 80 563 57 c 1,24,25
 559 32 559 32 538.5 16 c 128,-1,26
 518 0 518 0 496 0 c 2,27,-1
 49 0 l 2,28,29
 24 0 24 0 11 16.5 c 128,-1,30
 -2 33 -2 33 2 57 c 1,0,1
EndSplineSet
EndChar
StartChar: two
Encoding: 50 50 56
Width: 528
Flags: MW
HStem: 0 55<81 384> 529 148 621 56<316.5 383>
LayerCount: 2
Back
Fore
SplineSet
384 0 m 2xc0
 13 0 l 1
 18 27 l 1
 56 204 169 275 271 333 c 0
 358 382 436 422 454 508 c 0
 468 573 420 621 346 621 c 0xa0
 262 621 190 556 181 548 c 0
 172 540 162 529 148 529 c 0
 131 529 123 544 126 558 c 0
 128 568 136 577 163 598 c 0
 205 632 275 677 358 677 c 0
 468 677 530 601 510 508 c 0
 486 392 392 343 297 289 c 0
 206 237 114 180 81 55 c 1
 395 55 l 2
 410 55 421 43 417 27 c 0
 414 12 399 0 384 0 c 2xc0
EndSplineSet
EndChar
StartChar: three
Encoding: 51 51 57
Width: 543
Flags: MW
HStem: -6 56<176 249.5> -6 154<63.5 249.5> 353 56<272 292> 628 56<327 388>
LayerCount: 2
Back
Fore
SplineSet
39 104 m 0xb0
 36 112 38 118 38 122 c 0
 42 137 56 148 71 148 c 0x70
 83 148 90 142 93 133 c 0
 101 109 132 50 220 50 c 0
 291 50 383 97 405 200 c 0
 432 326 316 353 268 353 c 0
 253 353 243 366 246 381 c 0
 250 397 264 409 280 409 c 0
 352 409 445 465 460 532 c 0
 469 578 432 628 344 628 c 0
 273 628 232 599 214 588 c 0
 205 582 200 579 193 579 c 0
 174 579 168 594 171 607 c 0
 173 617 181 629 212 646 c 0
 245 664 298 684 356 684 c 0
 464 684 534 618 516 532 c 0
 502 469 450 415 384 383 c 1
 453 351 478 281 461 200 c 0
 429 48 289 -6 210 -6 c 0
 69 -6 40 101 39 104 c 0xb0
EndSplineSet
EndChar
StartChar: four
Encoding: 52 52 23
Width: 1011
GlyphClass: 2
Flags: W
LayerCount: 2
Back
Fore
SplineSet
4 379 m 256,0,1
 -6 410 -6 410 18 436 c 1,2,-1
 786 1374 l 2,3,4
 798 1390 798 1390 819 1397.5 c 128,-1,5
 840 1405 840 1405 856 1399 c 1,6,7
 872 1395 872 1395 881.5 1379.5 c 128,-1,8
 891 1364 891 1364 887 1343 c 2,9,-1
 696 453 l 1,10,-1
 768 451 l 2,11,12
 791 451 791 451 804 433.5 c 128,-1,13
 817 416 817 416 811 393 c 1,14,15
 807 368 807 368 785.5 352 c 128,-1,16
 764 336 764 336 741 336 c 2,17,-1
 674 338 l 1,18,-1
 612 55 l 1,19,20
 608 32 608 32 587 15 c 128,-1,21
 566 -2 566 -2 543 -2 c 0,22,23
 518 -2 518 -2 506 15.5 c 128,-1,24
 494 33 494 33 498 55 c 2,25,-1
 559 340 l 1,26,-1
 47 348 l 2,27,28
 14 348 14 348 4 379 c 256,0,1
172 461 m 1,29,-1
 584 455 l 1,30,-1
 729 1139 l 1,31,-1
 172 461 l 1,29,-1
EndSplineSet
EndChar
StartChar: five
Encoding: 53 53 59
Width: 559
Flags: MW
HStem: -3 56<189.5 268.5 189.5 270.5> -3 151<63.5 270.5> 427 56<306.5 374.5> 617 56<249 515 249 249>
LayerCount: 2
Back
Fore
SplineSet
93 133 m 0x70
 118 82 156 53 223 53 c 0xb0
 314 53 414 145 437 253 c 0
 456 339 427 427 322 427 c 0
 234 427 171 367 164 362 c 0
 156 355 149 352 141 352 c 0
 121 352 114 368 119 385 c 2
 202 648 l 2
 206 662 222 673 236 673 c 2
 527 673 l 2
 542 673 552 660 549 645 c 0
 545 629 530 617 515 617 c 2
 249 617 l 1
 195 445 l 1
 231 464 279 483 334 483 c 0
 453 483 523 391 493 253 c 0
 463 112 330 -3 211 -3 c 0
 98 -3 45 75 37 106 c 0
 36 110 36 115 37 120 c 0
 40 135 56 148 71 148 c 0
 85 148 88 142 93 133 c 0x70
EndSplineSet
EndChar
StartChar: six
Encoding: 54 54 25
Width: 972
GlyphClass: 2
Flags: W
LayerCount: 2
Back
Fore
SplineSet
20 506 m 0,0,1
 49 637 49 637 99.5 746.5 c 128,-1,2
 150 856 150 856 211 943 c 128,-1,3
 272 1030 272 1030 339 1096.5 c 128,-1,4
 406 1163 406 1163 467 1212 c 1,5,6
 565 1288 565 1288 647 1331 c 128,-1,7
 729 1374 729 1374 772 1393 c 1,8,-1
 774 1393 l 1,9,10
 780 1395 780 1395 793 1395 c 0,11,12
 816 1395 816 1395 828 1379.5 c 128,-1,13
 840 1364 840 1364 836 1341 c 1,14,15
 826 1306 826 1306 795 1292 c 1,16,-1
 784 1288 l 1,17,18
 745 1272 745 1272 673.5 1233 c 128,-1,19
 602 1194 602 1194 520 1128 c 1,20,21
 350 999 350 999 248 823 c 1,22,23
 314 858 314 858 394.5 883.5 c 128,-1,24
 475 909 475 909 573 909 c 0,25,26
 583 909 583 909 616 906 c 128,-1,27
 649 903 649 903 690 891 c 128,-1,28
 731 879 731 879 773 853 c 128,-1,29
 815 827 815 827 846 781 c 128,-1,30
 877 735 877 735 887 665.5 c 128,-1,31
 897 596 897 596 877 496 c 0,32,33
 861 416 861 416 833 352.5 c 128,-1,34
 805 289 805 289 772 241 c 128,-1,35
 739 193 739 193 704.5 158 c 128,-1,36
 670 123 670 123 639 98 c 1,37,38
 561 41 561 41 486.5 17.5 c 128,-1,39
 412 -6 412 -6 358 -6 c 0,40,41
 305 -6 305 -6 234.5 9.5 c 128,-1,42
 164 25 164 25 104 76 c 1,43,44
 -46 207 -46 207 20 506 c 0,0,1
114.5 302 m 128,-1,46
 129 223 129 223 169 179 c 128,-1,47
 209 135 209 135 265.5 118.5 c 128,-1,48
 322 102 322 102 381 102 c 0,49,50
 414 102 414 102 468 118.5 c 128,-1,51
 522 135 522 135 580.5 178 c 128,-1,52
 639 221 639 221 691 298 c 128,-1,53
 743 375 743 375 770 496 c 0,54,55
 793 602 793 602 770.5 662.5 c 128,-1,56
 748 723 748 723 708 753.5 c 128,-1,57
 668 784 668 784 621.5 792.5 c 128,-1,58
 575 801 575 801 551 801 c 0,59,60
 479 801 479 801 417.5 783.5 c 128,-1,61
 356 766 356 766 307 742.5 c 128,-1,62
 258 719 258 719 223 694 c 128,-1,63
 188 669 188 669 170 655 c 1,64,65
 154 618 154 618 144.5 581.5 c 128,-1,66
 135 545 135 545 127 506 c 0,67,45
 100 381 100 381 114.5 302 c 128,-1,46
EndSplineSet
EndChar
StartChar: seven
Encoding: 55 55 61
Width: 501
Flags: MW
HStem: 1 21G<80 93> 614 56<159 539 179 482>
LayerCount: 2
Back
Fore
SplineSet
88 1 m 0
 72 1 62 14 66 29 c 0
 67 33 68 37 71 41 c 2
 482 614 l 1
 167 614 l 2
 151 614 142 626 145 642 c 0
 148 657 163 670 179 670 c 2
 539 670 l 2
 555 670 564 657 561 641 c 0
 560 637 558 633 555 629 c 2
 116 16 l 2
 109 6 98 1 88 1 c 0
EndSplineSet
EndChar
StartChar: eight
Encoding: 56 56 27
Width: 1021
GlyphClass: 2
Flags: W
LayerCount: 2
Back
Fore
SplineSet
12 367 m 1,0,1
 30 447 30 447 69.5 508 c 128,-1,2
 109 569 109 569 159 615.5 c 128,-1,3
 209 662 209 662 266.5 695.5 c 128,-1,4
 324 729 324 729 379 754 c 1,5,6
 338 774 338 774 303 800.5 c 128,-1,7
 268 827 268 827 245.5 864 c 128,-1,8
 223 901 223 901 216 949 c 128,-1,9
 209 997 209 997 225 1059 c 1,10,11
 268 1241 268 1241 430 1335 c 0,12,13
 487 1368 487 1368 551.5 1386.5 c 128,-1,14
 616 1405 616 1405 676 1405 c 0,15,16
 762 1405 762 1405 829.5 1376.5 c 128,-1,17
 897 1348 897 1348 936 1294 c 1,18,19
 1002 1206 1002 1206 971 1077 c 0,20,21
 955 1014 955 1014 926 966 c 128,-1,22
 897 918 897 918 858 881 c 128,-1,23
 819 844 819 844 774 816 c 128,-1,24
 729 788 729 788 682 768 c 1,25,26
 795 705 795 705 842 602.5 c 128,-1,27
 889 500 889 500 856 373 c 1,28,29
 836 291 836 291 788.5 221.5 c 128,-1,30
 741 152 741 152 674.5 101.5 c 128,-1,31
 608 51 608 51 525 22.5 c 128,-1,32
 442 -6 442 -6 354 -6 c 0,33,34
 256 -6 256 -6 178 27.5 c 128,-1,35
 100 61 100 61 53 121 c 1,36,37
 -23 223 -23 223 12 367 c 1,0,1
123 362 m 0,38,39
 100 268 100 268 150 201 c 1,40,41
 185 156 185 156 244 131 c 128,-1,42
 303 106 303 106 379 106 c 0,43,44
 434 106 434 106 491.5 122.5 c 128,-1,45
 549 139 549 139 600 172 c 128,-1,46
 651 205 651 205 690 255 c 128,-1,47
 729 305 729 305 745 375 c 0,48,49
 761 441 761 441 748 494 c 128,-1,50
 735 547 735 547 703.5 588 c 128,-1,51
 672 629 672 629 623.5 657.5 c 128,-1,52
 575 686 575 686 524 702 c 1,53,54
 516 698 516 698 504 694 c 0,55,56
 445 669 445 669 385.5 642.5 c 128,-1,57
 326 616 326 616 273.5 578.5 c 128,-1,58
 221 541 221 541 181 488.5 c 128,-1,59
 141 436 141 436 123 362 c 0,38,39
336 1057 m 256,60,61
 316 971 316 971 364 915.5 c 128,-1,62
 412 860 412 860 543 821 c 1,63,64
 543 821 543 821 551 825 c 0,65,66
 614 852 614 852 666.5 875.5 c 128,-1,67
 719 899 719 899 758 928.5 c 128,-1,68
 797 958 797 958 822.5 994 c 128,-1,69
 848 1030 848 1030 860 1081 c 0,70,71
 878 1163 878 1163 840 1214 c 0,72,73
 813 1251 813 1251 762.5 1270.5 c 128,-1,74
 712 1290 712 1290 651 1290 c 0,75,76
 647 1290 647 1290 605 1286 c 128,-1,77
 563 1282 563 1282 511 1260.5 c 128,-1,78
 459 1239 459 1239 407.5 1191 c 128,-1,79
 356 1143 356 1143 336 1057 c 256,60,61
EndSplineSet
EndChar
StartChar: nine
Encoding: 57 57 28
Width: 972
GlyphClass: 2
Flags: W
LayerCount: 2
Back
Fore
SplineSet
4 729.5 m 128,-1,1
 -6 799 -6 799 14 899 c 0,2,3
 30 979 30 979 58 1042.5 c 128,-1,4
 86 1106 86 1106 119 1154 c 128,-1,5
 152 1202 152 1202 186.5 1237 c 128,-1,6
 221 1272 221 1272 252 1297 c 1,7,8
 330 1354 330 1354 404.5 1377.5 c 128,-1,9
 479 1401 479 1401 533 1401 c 0,10,11
 586 1401 586 1401 656.5 1385.5 c 128,-1,12
 727 1370 727 1370 787 1319 c 1,13,14
 937 1188 937 1188 871 889 c 0,15,16
 842 758 842 758 791.5 648.5 c 128,-1,17
 741 539 741 539 680 452 c 128,-1,18
 619 365 619 365 552 298.5 c 128,-1,19
 485 232 485 232 424 183 c 1,20,21
 326 107 326 107 244 64 c 128,-1,22
 162 21 162 21 119 2 c 1,23,-1
 117 2 l 1,24,25
 111 0 111 0 98 0 c 0,26,27
 75 0 75 0 63 15.5 c 128,-1,28
 51 31 51 31 55 54 c 1,29,30
 65 89 65 89 96 103 c 1,31,-1
 107 107 l 1,32,33
 146 123 146 123 217.5 162 c 128,-1,34
 289 201 289 201 371 267 c 1,35,36
 541 396 541 396 643 572 c 1,37,38
 577 537 577 537 496.5 511.5 c 128,-1,39
 416 486 416 486 318 486 c 0,40,41
 308 486 308 486 275 489 c 128,-1,42
 242 492 242 492 201 504 c 128,-1,43
 160 516 160 516 118 542 c 128,-1,44
 76 568 76 568 45 614 c 128,-1,0
 14 660 14 660 4 729.5 c 128,-1,1
120.5 732.5 m 128,-1,46
 143 672 143 672 183 641.5 c 128,-1,47
 223 611 223 611 269.5 602.5 c 128,-1,48
 316 594 316 594 340 594 c 0,49,50
 412 594 412 594 473.5 611.5 c 128,-1,51
 535 629 535 629 584 652.5 c 128,-1,52
 633 676 633 676 668 701 c 128,-1,53
 703 726 703 726 721 740 c 1,54,55
 737 777 737 777 746.5 813.5 c 128,-1,56
 756 850 756 850 764 889 c 0,57,58
 791 1014 791 1014 776.5 1093 c 128,-1,59
 762 1172 762 1172 722 1216 c 128,-1,60
 682 1260 682 1260 625.5 1276.5 c 128,-1,61
 569 1293 569 1293 510 1293 c 0,62,63
 477 1293 477 1293 423 1276.5 c 128,-1,64
 369 1260 369 1260 310.5 1217 c 128,-1,65
 252 1174 252 1174 200 1097 c 128,-1,66
 148 1020 148 1020 121 899 c 0,67,45
 98 793 98 793 120.5 732.5 c 128,-1,46
EndSplineSet
EndChar
StartChar: colon
Encoding: 58 58 71
Width: 235
Flags: MW
HStem: 0 83<34.5 78> 358 83<139.5 183>
LayerCount: 2
Back
Fore
SplineSet
44 0 m 0
 25 0 15 17 20 38 c 0
 24 61 48 83 69 83 c 0
 87 83 98 67 93 47 c 0
 88 21 65 0 44 0 c 0
149 358 m 0
 130 358 120 375 125 396 c 0
 130 419 153 441 174 441 c 0
 192 441 203 425 199 405 c 0
 193 379 170 358 149 358 c 0
EndSplineSet
EndChar
StartChar: semicolon
Encoding: 59 59 111
Width: 271
Flags: MW
HStem: -93 170<27.5 110> 358 83<179.5 223>
LayerCount: 2
Back
Fore
SplineSet
189 358 m 0
 170 358 160 375 165 396 c 0
 170 419 193 441 214 441 c 0
 232 441 243 425 239 405 c 0
 233 379 210 358 189 358 c 0
101 77 m 0
 119 77 129 60 126 45 c 0
 122 26 116 17 93 -19 c 0
 57 -77 53 -93 34 -93 c 0
 21 -93 13 -83 15 -71 c 0
 16 -68 18 -65 19 -62 c 2
 57 2 l 1
 51 9 49 20 51 32 c 0
 56 56 80 77 101 77 c 0
EndSplineSet
EndChar
StartChar: less
Encoding: 60 60 109
Width: 540
Flags: MW
HStem: 8 21G<362.5 372.5> 472 20G<484.5 494.5>
LayerCount: 2
Back
Fore
SplineSet
365 8 m 0
 360 8 355 10 350 13 c 2
 76 224 l 2
 69 229 67 238 69 248 c 0
 71 257 78 266 87 271 c 2
 471 487 l 2
 477 490 482 492 487 492 c 0
 502 492 512 479 509 463 c 0
 507 454 500 445 491 440 c 2
 148 247 l 1
 391 60 l 2
 398 54 401 45 399 36 c 0
 396 21 380 8 365 8 c 0
EndSplineSet
EndChar
StartChar: equal
Encoding: 61 61 32
Width: 851
GlyphClass: 2
Flags: W
LayerCount: 2
Back
Fore
SplineSet
2 352 m 0,0,1
 6 375 6 375 26.5 392.5 c 128,-1,2
 47 410 47 410 70 410 c 2,3,-1
 655 410 l 2,4,5
 678 410 678 410 691.5 392.5 c 128,-1,6
 705 375 705 375 700 352 c 0,7,8
 696 329 696 329 675 313 c 128,-1,9
 654 297 654 297 631 297 c 2,10,-1
 45 297 l 2,11,12
 22 297 22 297 10 313.5 c 128,-1,13
 -2 330 -2 330 2 352 c 0,0,1
70 668 m 256,14,15
 74 691 74 691 94.5 708 c 128,-1,16
 115 725 115 725 137 725 c 2,17,-1
 723 725 l 2,18,19
 746 725 746 725 759 707.5 c 128,-1,20
 772 690 772 690 768 668 c 0,21,22
 764 645 764 645 742.5 628.5 c 128,-1,23
 721 612 721 612 698 612 c 2,24,-1
 113 612 l 2,25,26
 90 612 90 612 78 628.5 c 128,-1,27
 66 645 66 645 70 668 c 256,14,15
EndSplineSet
EndChar
StartChar: greater
Encoding: 62 62 65
Width: 540
Flags: MW
HStem: 8 21G<61.5 71.5> 472 20G<145.5 155.5>
LayerCount: 2
Back
Fore
SplineSet
69 8 m 0
 54 8 44 21 47 36 c 0
 49 45 56 54 65 60 c 2
 388 247 l 1
 127 440 l 2
 120 445 117 454 119 463 c 0
 122 479 138 492 153 492 c 0
 158 492 163 490 167 487 c 2
 459 271 l 2
 466 266 469 257 467 248 c 0
 465 238 459 229 450 224 c 2
 86 13 l 2
 81 10 74 8 69 8 c 0
EndSplineSet
EndChar
StartChar: question
Encoding: 63 63 108
Width: 533
Flags: MW
HStem: 0 83<97.5 141> 657 54<303 391>
LayerCount: 2
Back
Fore
SplineSet
198 183 m 0
 192 178 185 175 178 175 c 0
 163 175 153 187 156 202 c 0
 158 210 164 217 171 222 c 0
 194 239 259 287 314 330 c 0
 370 373 447 422 465 505 c 0
 480 578 453 657 329 657 c 0
 261 657 210 616 173 582 c 0
 168 578 161 575 155 575 c 0
 140 575 129 586 132 602 c 0
 135 612 146 623 161 636 c 0
 200 671 265 711 341 711 c 0
 473 711 544 628 518 505 c 0
 494 395 399 330 338 287 c 0
 286 249 224 202 198 183 c 0
107 0 m 0
 88 0 78 17 83 38 c 0
 87 61 111 83 132 83 c 0
 150 83 161 67 156 47 c 0
 151 21 128 0 107 0 c 0
EndSplineSet
EndChar
StartChar: at
Encoding: 64 64 35
Width: 1558
GlyphClass: 2
Flags: W
LayerCount: 2
Back
Fore
SplineSet
16 518 m 1,0,1
 39 624 39 624 80 711.5 c 128,-1,2
 121 799 121 799 170 867.5 c 128,-1,3
 219 936 219 936 271.5 987 c 128,-1,4
 324 1038 324 1038 373 1075 c 0,5,6
 494 1167 494 1167 636 1216.5 c 128,-1,7
 778 1266 778 1266 920 1266 c 0,8,9
 1057 1266 1057 1266 1169.5 1218.5 c 128,-1,10
 1282 1171 1282 1171 1358 1081 c 0,11,12
 1438 987 1438 987 1463.5 860 c 128,-1,13
 1489 733 1489 733 1458 586 c 0,14,15
 1415 381 1415 381 1286 281 c 0,16,17
 1243 248 1243 248 1203 230.5 c 128,-1,18
 1163 213 1163 213 1129.5 205 c 128,-1,19
 1096 197 1096 197 1074.5 196 c 128,-1,20
 1053 195 1053 195 1047 195 c 0,21,22
 1043 195 1043 195 1014 198 c 128,-1,23
 985 201 985 201 949 212 c 128,-1,24
 913 223 913 223 876.5 246.5 c 128,-1,25
 840 270 840 270 819 313 c 0,26,27
 807 338 807 338 801 369 c 1,28,29
 746 312 746 312 676 267.5 c 128,-1,30
 606 223 606 223 530 223 c 0,31,32
 450 223 450 223 411.5 256 c 128,-1,33
 373 289 373 289 358 324 c 1,34,35
 340 371 340 371 342 418 c 128,-1,36
 344 465 344 465 348 487 c 0,37,38
 360 544 360 544 387 598.5 c 128,-1,39
 414 653 414 653 451.5 700.5 c 128,-1,40
 489 748 489 748 535.5 784.5 c 128,-1,41
 582 821 582 821 633 846 c 1,42,43
 721 887 721 887 804 879.5 c 128,-1,44
 887 872 887 872 956 821 c 1,45,-1
 973 809 l 1,46,47
 996 791 996 791 989 764 c 1,48,49
 985 741 985 741 963.5 725 c 128,-1,50
 942 709 942 709 920 709 c 0,51,52
 902 709 902 709 891 717 c 1,53,-1
 883 725 l 1,54,55
 785 801 785 801 662 748 c 1,56,57
 588 713 588 713 532.5 642 c 128,-1,58
 477 571 477 571 459 487 c 0,59,60
 455 473 455 473 453 447.5 c 128,-1,61
 451 422 451 422 459 396.5 c 128,-1,62
 467 371 467 371 488.5 351.5 c 128,-1,63
 510 332 510 332 553 332 c 256,64,65
 596 332 596 332 641 362.5 c 128,-1,66
 686 393 686 393 728 436 c 128,-1,67
 770 479 770 479 802 523 c 128,-1,68
 834 567 834 567 850 592 c 1,69,-1
 852 594 l 1,70,71
 862 608 862 608 877.5 617.5 c 128,-1,72
 893 627 893 627 911 627 c 0,73,74
 934 627 934 627 945 610.5 c 128,-1,75
 956 594 956 594 952 571 c 1,76,77
 950 567 950 567 950 564 c 128,-1,78
 950 561 950 561 946 557 c 1,79,-1
 946 555 l 1,80,81
 887 440 887 440 922 379 c 1,82,83
 936 352 936 352 960.5 338 c 128,-1,84
 985 324 985 324 1009.5 316.5 c 128,-1,85
 1034 309 1034 309 1054 307 c 2,86,-1
 1073 305 l 1,87,88
 1073 305 1073 305 1088 306 c 0,89,90
 1102 307 1102 307 1123.5 311 c 128,-1,91
 1145 315 1145 315 1172.5 326.5 c 128,-1,92
 1200 338 1200 338 1227 360 c 0,93,94
 1317 432 1317 432 1348 586 c 1,95,96
 1371 692 1371 692 1356 794.5 c 128,-1,97
 1341 897 1341 897 1286 977 c 128,-1,98
 1231 1057 1231 1057 1133.5 1106 c 128,-1,99
 1036 1155 1036 1155 895 1155 c 0,100,101
 776 1155 776 1155 654 1114 c 128,-1,102
 532 1073 532 1073 425.5 993 c 128,-1,103
 319 913 319 913 239.5 793.5 c 128,-1,104
 160 674 160 674 127 518 c 0,105,106
 96 371 96 371 132 258 c 128,-1,107
 168 145 168 145 242.5 69.5 c 128,-1,108
 317 -6 317 -6 417.5 -45 c 128,-1,109
 518 -84 518 -84 614 -84 c 0,110,111
 677 -84 677 -84 737 -72.5 c 128,-1,112
 797 -61 797 -61 848 -44 c 128,-1,113
 899 -27 899 -27 941 -7.5 c 128,-1,114
 983 12 983 12 1014 31 c 1,115,-1
 1026 39 l 2,116,117
 1042 49 1042 49 1061 49 c 0,118,119
 1084 49 1084 49 1096 32.5 c 128,-1,120
 1108 16 1108 16 1104 -6 c 1,121,122
 1098 -31 1098 -31 1073 -49 c 1,123,-1
 1057 -59 l 2,124,125
 1020 -82 1020 -82 972 -104.5 c 128,-1,126
 924 -127 924 -127 864.5 -147.5 c 128,-1,127
 805 -168 805 -168 736.5 -180.5 c 128,-1,128
 668 -193 668 -193 592 -193 c 0,129,130
 467 -193 467 -193 350 -144.5 c 128,-1,131
 233 -96 233 -96 147 -10 c 1,132,133
 49 90 49 90 16.5 226 c 128,-1,134
 -16 362 -16 362 16 518 c 1,0,1
EndSplineSet
EndChar
StartChar: A
Encoding: 65 65 1
Width: 624
Flags: MW
HStem: -1 21G<483 497.5> 0 21G<15.5 29.5> 669 20G<413 424.5>
LayerCount: 2
Back
Fore
SplineSet
441 670 m 2x60
 524 37 l 2
 525 34 524 31 523 28 c 0
 520 13 506 -1 489 -1 c 0xa0
 477 -1 468 6 466 18 c 2
 434 262 l 1
 167 206 l 1
 53 18 l 2
 47 7 35 0 24 0 c 0
 7 0 -2 15 1 29 c 0
 1 32 3 36 5 39 c 2
 97 192 l 1
 80 188 78 188 76 188 c 0
 60 188 50 200 54 217 c 0
 56 230 68 241 81 244 c 2
 136 256 l 1
 387 671 l 2
 394 682 407 689 419 689 c 0
 430 689 439 681 441 670 c 2x60
206 270 m 1
 427 316 l 1
 392 578 l 1
 206 270 l 1
EndSplineSet
EndChar
StartChar: B
Encoding: 66 66 28
Width: 603
Flags: MW
HStem: -2 56<78 179.5 78 200> 330 57<137 345 149 343> 624 57<199 199 199 352>
LayerCount: 2
Back
Fore
SplineSet
48 -2 m 0
 25 -2 10 4 16 32 c 2
 148 653 l 2
 151 668 167 681 182 681 c 2
 364 681 l 2
 561 681 554 543 548 513 c 0
 532 439 487 395 447 370 c 1
 524 341 558 286 541 204 c 0
 513 74 352 -2 48 -2 c 0
137 330 m 1
 78 54 l 1
 281 54 463 99 485 204 c 0
 504 294 419 330 343 330 c 2
 137 330 l 1
199 624 m 1
 149 387 l 1
 345 387 l 2
 414 387 478 448 491 510 c 0
 495 528 504 624 352 624 c 2
 199 624 l 1
EndSplineSet
EndChar
StartChar: C
Encoding: 67 67 29
Width: 632
Flags: MW
HStem: -2 57<249 330 249 330> 538 121<568 610> 627 32 627 57<368 466.5>
LayerCount: 2
Back
Fore
SplineSet
531 161 m 0xa0
 546 161 558 151 554 133 c 0
 552 127 550 121 545 116 c 0
 472 40 378 -2 282 -2 c 0
 125 -2 21 126 57 296 c 0
 101 500 298 684 436 684 c 0x90
 505 684 547 664 573 644 c 1
 579 653 591 659 602 659 c 0
 618 659 627 647 624 631 c 2
 610 567 l 2
 607 551 592 538 576 538 c 0xc0
 560 538 550 551 553 567 c 2
 554 572 l 1
 539 593 509 627 424 627 c 0
 312 627 149 460 114 296 c 0
 78 124 204 55 294 55 c 0
 366 55 439 81 506 150 c 0
 515 159 523 161 531 161 c 0xa0
EndSplineSet
EndChar
StartChar: D
Encoding: 68 68 39
Width: 1261
GlyphClass: 2
Flags: W
LayerCount: 2
Back
Fore
SplineSet
2 51 m 2,0,-1
 274 1337 l 2,1,2
 280 1362 280 1362 301 1378.5 c 128,-1,3
 322 1395 322 1395 346 1395 c 0,4,5
 409 1395 409 1395 484 1388.5 c 128,-1,6
 559 1382 559 1382 637 1367 c 128,-1,7
 715 1352 715 1352 790.5 1323 c 128,-1,8
 866 1294 866 1294 932 1249 c 0,9,10
 1067 1159 1067 1159 1124 1010 c 0,11,12
 1158 920 1158 920 1158 809 c 0,13,14
 1158 718 1158 718 1135 614 c 1,15,16
 1088 389 1088 389 956 240 c 1,17,18
 845 111 845 111 686 41 c 1,19,20
 623 12 623 12 520.5 -14.5 c 128,-1,21
 418 -41 418 -41 281 -41 c 2,22,-1
 279 -41 l 2,23,24
 234 -41 234 -41 190.5 -36 c 128,-1,25
 147 -31 147 -31 113.5 -23.5 c 128,-1,26
 80 -16 80 -16 58.5 -11 c 128,-1,27
 37 -6 37 -6 35 -6 c 0,28,29
 18 0 18 0 8 16 c 0,30,31
 1 27 1 27 1 40 c 0,32,33
 1 45 1 45 2 51 c 2,0,-1
129 98 m 1,34,35
 162 90 162 90 208 83 c 128,-1,36
 254 76 254 76 303 76 c 2,37,-1
 305 76 l 2,38,39
 426 76 426 76 515 99.5 c 128,-1,40
 604 123 604 123 657 145 c 1,41,42
 788 204 788 204 872 303 c 0,43,44
 978 428 978 428 1018 614 c 0,45,46
 1038 705 1038 705 1038 783 c 0,47,48
 1038 876 1038 876 1010 950 c 1,49,50
 967 1071 967 1071 852 1149 c 0,51,52
 791 1190 791 1190 678 1231 c 128,-1,53
 565 1272 565 1272 379 1278 c 1,54,-1
 129 98 l 1,34,35
EndSplineSet
EndChar
StartChar: E
Encoding: 69 69 31
Width: 610
Flags: MW
HStem: 0 57<31 477 79 465> 324 57<147 486 135 498> 625 57<199 599 199 199>
LayerCount: 2
Back
Fore
SplineSet
79 57 m 1
 477 57 l 2
 493 57 502 45 499 29 c 0
 495 13 481 0 465 0 c 2
 39 0 l 2
 23 0 12 13 16 29 c 2
 149 654 l 2
 152 670 167 682 183 682 c 2
 611 682 l 2
 627 682 637 670 634 654 c 0
 630 638 615 625 599 625 c 2
 199 625 l 1
 147 381 l 1
 498 381 l 2
 514 381 524 369 521 353 c 0
 517 337 502 324 486 324 c 2
 135 324 l 1
 79 57 l 1
EndSplineSet
EndChar
StartChar: F
Encoding: 70 70 41
Width: 1128
GlyphClass: 2
Flags: W
LayerCount: 2
Back
Fore
SplineSet
2 57 m 2,0,-1
 274 1335 l 1,1,2
 278 1360 278 1360 300 1377.5 c 128,-1,3
 322 1395 322 1395 346 1395 c 2,4,-1
 1081 1395 l 1,5,6
 1106 1396 1106 1396 1118 1378 c 0,7,8
 1127 1365 1127 1365 1127 1347 c 0,9,10
 1127 1341 1127 1341 1126 1335 c 0,11,12
 1122 1312 1122 1312 1101.5 1295 c 128,-1,13
 1081 1278 1081 1278 1057 1278 c 2,14,-1
 379 1278 l 1,15,-1
 272 778 l 1,16,-1
 909 778 l 2,17,18
 934 778 934 778 947.5 760.5 c 128,-1,19
 961 743 961 743 954 719 c 1,20,21
 950 696 950 696 929.5 679 c 128,-1,22
 909 662 909 662 885 662 c 2,23,-1
 248 662 l 1,24,-1
 119 57 l 1,25,26
 115 32 115 32 94.5 15 c 128,-1,27
 74 -2 74 -2 49 -2 c 256,28,29
 24 -2 24 -2 11 16 c 0,30,31
 1 29 1 29 1 46 c 0,32,33
 1 51 1 51 2 57 c 2,0,-1
EndSplineSet
EndChar
StartChar: G
Encoding: 71 71 32
Width: 751
Flags: MW
HStem: -1 57<234 374.5 234 382.5> 221 75 239 57<532 563> 470 213<369.5 666> 626 57<369.5 518>
LayerCount: 2
Back
Fore
SplineSet
676 279 m 0xd0
 687 275 691 264 688 252 c 0
 684 235 668 224 654 224 c 0
 651 224 645 226 640 228 c 1
 583 101 460 -1 305 -1 c 0
 119 -1 39 162 75 331 c 0
 110 498 272 683 467 683 c 0
 656 683 699 536 691 495 c 0
 688 480 674 470 658 470 c 0xd0
 647 470 637 476 634 489 c 0
 623 554 581 626 455 626 c 0
 262 626 151 422 132 331 c 0
 107 212 151 56 317 56 c 0
 432 56 534 126 586 238 c 1
 577 239 568 239 558 239 c 0xa8
 478 239 440 221 423 221 c 0
 409 221 398 232 402 250 c 0
 404 262 414 273 427 277 c 0
 431 278 495 296 569 296 c 0
 632 296 668 282 676 279 c 0xd0
EndSplineSet
EndChar
StartChar: H
Encoding: 72 72 43
Width: 1495
GlyphClass: 2
Flags: W
LayerCount: 2
Back
Fore
SplineSet
2 57 m 2,0,-1
 274 1337 l 2,1,2
 280 1362 280 1362 299.5 1378.5 c 128,-1,3
 319 1395 319 1395 344 1395 c 256,4,5
 369 1395 369 1395 383 1378.5 c 128,-1,6
 397 1362 397 1362 391 1337 c 2,7,-1
 258 709 l 1,8,-1
 1188 834 l 1,9,-1
 1294 1337 l 2,10,11
 1300 1362 1300 1362 1320.5 1378.5 c 128,-1,12
 1341 1395 1341 1395 1366 1395 c 1,13,14
 1389 1394 1389 1394 1403 1378 c 0,15,16
 1413 1366 1413 1366 1413 1351 c 0,17,18
 1413 1344 1413 1344 1411 1337 c 2,19,-1
 1139 57 l 2,20,21
 1135 34 1135 34 1114.5 17 c 128,-1,22
 1094 0 1094 0 1071 0 c 0,23,24
 1046 0 1046 0 1032 17.5 c 128,-1,25
 1018 35 1018 35 1022 57 c 2,26,-1
 1163 715 l 1,27,-1
 233 590 l 1,28,-1
 119 57 l 2,29,30
 115 34 115 34 94.5 17 c 128,-1,31
 74 0 74 0 49 0 c 256,32,33
 24 0 24 0 11 18 c 0,34,35
 1 31 1 31 1 47 c 0,36,37
 1 52 1 52 2 57 c 2,0,-1
EndSplineSet
EndChar
StartChar: I
Encoding: 73 73 44
Width: 978
GlyphClass: 2
Flags: W
LayerCount: 2
Back
Fore
SplineSet
2 57 m 0,0,1
 8 82 8 82 28.5 98.5 c 128,-1,2
 49 115 49 115 74 115 c 2,3,-1
 279 115 l 1,4,-1
 526 1278 l 1,5,-1
 322 1278 l 2,6,7
 297 1278 297 1278 283.5 1295.5 c 128,-1,8
 270 1313 270 1313 274 1337 c 1,9,10
 280 1362 280 1362 301 1378.5 c 128,-1,11
 322 1395 322 1395 346 1395 c 2,12,-1
 870 1395 l 1,13,14
 894 1394 894 1394 908 1378 c 0,15,16
 917 1367 917 1367 917 1353 c 0,17,18
 917 1345 917 1345 915 1337 c 0,19,20
 911 1312 911 1312 890.5 1295 c 128,-1,21
 870 1278 870 1278 846 1278 c 2,22,-1
 643 1278 l 1,23,-1
 395 115 l 1,24,-1
 598 115 l 2,25,26
 623 115 623 115 636 98.5 c 128,-1,27
 649 82 649 82 643 57 c 1,28,29
 639 32 639 32 618.5 15 c 128,-1,30
 598 -2 598 -2 573 -2 c 2,31,-1
 49 -2 l 2,32,33
 24 -2 24 -2 11 16 c 0,34,35
 1 29 1 29 1 46 c 0,36,37
 1 51 1 51 2 57 c 0,0,1
EndSplineSet
EndChar
StartChar: J
Encoding: 74 74 45
Width: 1083
GlyphClass: 2
Flags: W
LayerCount: 2
Back
Fore
SplineSet
2 247 m 0,0,1
 1 261 1 261 1 273 c 0,2,3
 1 292 1 292 3 308 c 0,4,5
 6 334 6 334 8 346 c 1,6,7
 10 348 10 348 10 350 c 0,8,9
 14 375 14 375 35.5 392.5 c 128,-1,10
 57 410 57 410 82 410 c 256,11,12
 107 410 107 410 119 392.5 c 128,-1,13
 131 375 131 375 127 350 c 1,14,-1
 127 348 l 1,15,16
 121 317 121 317 121 289 c 0,17,18
 121 264 121 264 127 235.5 c 128,-1,19
 133 207 133 207 152 182 c 0,20,21
 200 117 200 117 322 117 c 0,22,23
 324 117 324 117 326 117 c 0,24,25
 406 117 406 117 457 140.5 c 128,-1,26
 508 164 508 164 538.5 197.5 c 128,-1,27
 569 231 569 231 583.5 266 c 128,-1,28
 598 301 598 301 602 326 c 1,29,-1
 803 1270 l 1,30,-1
 551 1270 l 2,31,32
 526 1270 526 1270 513 1287.5 c 128,-1,33
 500 1305 500 1305 504 1329 c 1,34,35
 510 1352 510 1352 530.5 1369 c 128,-1,36
 551 1386 551 1386 575 1386 c 2,37,-1
 995 1386 l 2,38,39
 1018 1386 1018 1386 1032 1369 c 0,40,41
 1042 1358 1042 1358 1042 1343 c 0,42,43
 1042 1336 1042 1336 1040 1329 c 0,44,45
 1036 1304 1036 1304 1014.5 1287 c 128,-1,46
 993 1270 993 1270 971 1270 c 2,47,-1
 920 1270 l 1,48,-1
 719 326 l 2,49,50
 707 271 707 271 677 212.5 c 128,-1,51
 647 154 647 154 596 106.5 c 128,-1,52
 545 59 545 59 471 29.5 c 128,-1,53
 397 0 397 0 301 0 c 0,54,55
 125 0 125 0 51 102 c 1,56,57
 24 135 24 135 14 174 c 128,-1,58
 4 213 4 213 2 247 c 0,0,1
EndSplineSet
EndChar
StartChar: K
Encoding: 75 75 46
Width: 1206
GlyphClass: 2
Flags: W
LayerCount: 2
Back
Fore
SplineSet
2 57 m 2,0,-1
 276 1339 l 2,1,2
 280 1362 280 1362 299.5 1378.5 c 128,-1,3
 319 1395 319 1395 342 1395 c 256,4,5
 365 1395 365 1395 379 1378.5 c 128,-1,6
 393 1362 393 1362 389 1339 c 2,7,-1
 272 797 l 1,8,-1
 1081 1382 l 1,9,10
 1099 1397 1099 1397 1120 1397 c 1,11,12
 1122 1396 1122 1396 1124 1396 c 0,13,14
 1147 1394 1147 1394 1157 1376 c 1,15,16
 1165 1365 1165 1365 1165 1351 c 0,17,18
 1165 1344 1165 1344 1163 1336 c 0,19,20
 1157 1312 1157 1312 1137 1296 c 1,21,-1
 293 686 l 1,22,-1
 922 100 l 2,23,24
 938 84 938 84 935 61.5 c 128,-1,25
 932 39 932 39 915 20 c 1,26,27
 893 -2 893 -2 866 -2 c 0,28,29
 865 -2 865 -2 864 -2 c 0,30,31
 846 -2 846 -2 834 10 c 2,32,-1
 225 578 l 1,33,-1
 115 57 l 2,34,35
 111 34 111 34 90.5 17 c 128,-1,36
 70 0 70 0 47 0 c 256,37,38
 24 0 24 0 11 18 c 0,39,40
 1 31 1 31 1 47 c 0,41,42
 1 52 1 52 2 57 c 2,0,-1
EndSplineSet
EndChar
StartChar: L
Encoding: 76 76 47
Width: 1001
GlyphClass: 2
Flags: W
LayerCount: 2
Back
Fore
SplineSet
2 57 m 2,0,-1
 274 1337 l 2,1,2
 278 1360 278 1360 298.5 1377.5 c 128,-1,3
 319 1395 319 1395 344 1395 c 0,4,5
 367 1395 367 1395 380 1377.5 c 128,-1,6
 393 1360 393 1360 389 1337 c 2,7,-1
 131 119 l 1,8,-1
 786 164 l 2,9,10
 812 166 812 166 826 150 c 0,11,12
 837 138 837 138 837 121 c 0,13,14
 837 116 837 116 836 111 c 0,15,16
 832 88 832 88 813.5 69.5 c 128,-1,17
 795 51 795 51 770 49 c 2,18,-1
 53 0 l 1,19,-1
 49 0 l 2,20,21
 24 0 24 0 12 16 c 1,22,23
 1 27 1 27 1 46 c 0,24,25
 1 51 1 51 2 57 c 2,0,-1
EndSplineSet
EndChar
StartChar: M
Encoding: 77 77 48
Width: 1757
GlyphClass: 2
Flags: W
LayerCount: 2
Back
Fore
SplineSet
4 26 m 0,0,1
 0 35 0 35 0 45 c 0,2,3
 0 57 0 57 6 70 c 2,4,-1
 559 1350 l 1,5,6
 575 1395 575 1395 621 1395 c 0,7,8
 624 1395 624 1395 627 1395 c 0,9,10
 642 1396 642 1396 654 1386 c 0,11,12
 668 1374 668 1374 670 1356 c 2,13,-1
 786 236 l 1,14,-1
 1430 1358 l 2,15,16
 1440 1374 1440 1374 1458 1386 c 0,17,18
 1473 1396 1473 1396 1489 1395 c 0,19,20
 1492 1395 1492 1395 1495 1395 c 0,21,22
 1513 1393 1513 1393 1525.5 1381.5 c 128,-1,23
 1538 1370 1538 1370 1538 1350 c 2,24,-1
 1552 70 l 2,25,26
 1552 47 1552 47 1535 26.5 c 128,-1,27
 1518 6 1518 6 1495 2 c 0,28,29
 1470 -2 1470 -2 1453 10.5 c 128,-1,30
 1436 23 1436 23 1434 45 c 1,31,-1
 1423 1133 l 1,32,-1
 795 37 l 2,33,34
 774 0 774 0 733 0 c 0,35,36
 715 0 715 0 701.5 11.5 c 128,-1,37
 688 23 688 23 688 39 c 1,38,-1
 573 1116 l 1,39,-1
 111 45 l 2,40,41
 101 22 101 22 79 10 c 128,-1,42
 57 -2 57 -2 35 2 c 0,43,44
 12 6 12 6 4 26 c 0,0,1
EndSplineSet
EndChar
StartChar: N
Encoding: 78 78 49
Width: 1402
GlyphClass: 2
Flags: W
LayerCount: 2
Back
Fore
SplineSet
2 57 m 2,0,-1
 276 1337 l 2,1,2
 280 1355 280 1355 294.5 1370.5 c 128,-1,3
 309 1386 309 1386 330 1393 c 1,4,5
 348 1397 348 1397 364.5 1391.5 c 128,-1,6
 381 1386 381 1386 389 1370 c 2,7,-1
 928 240 l 1,8,-1
 1163 1339 l 2,9,10
 1167 1362 1167 1362 1186.5 1379.5 c 128,-1,11
 1206 1397 1206 1397 1231 1397 c 1,12,13
 1254 1398 1254 1398 1268 1380 c 0,14,15
 1279 1366 1279 1366 1279 1349 c 0,16,17
 1279 1344 1279 1344 1278 1339 c 2,18,-1
 1004 57 l 1,19,20
 998 16 998 16 952 2 c 0,21,22
 946 0 946 0 936 0 c 0,23,24
 922 0 922 0 909.5 6 c 128,-1,25
 897 12 897 12 893 25 c 1,26,-1
 352 1153 l 1,27,-1
 117 57 l 1,28,29
 113 32 113 32 93.5 16 c 128,-1,30
 74 0 74 0 49 0 c 0,31,32
 26 0 26 0 12 18 c 0,33,34
 1 32 1 32 1 47 c 0,35,36
 1 52 1 52 2 57 c 2,0,-1
EndSplineSet
EndChar
StartChar: O
Encoding: 79 79 40
Width: 660
Flags: MW
HStem: -2 52<207 325.5 207 331> 630 52<362 481.5>
LayerCount: 2
Back
Fore
SplineSet
253 -2 m 0
 108 -2 35 143 71 313 c 0
 114 513 284 682 440 682 c 0
 584 682 659 539 623 367 c 0
 580 167 409 -2 253 -2 c 0
422 630 m 0
 299 630 161 489 124 313 c 0
 93 169 150 50 264 50 c 0
 387 50 533 193 569 363 c 0
 597 498 541 630 422 630 c 0
EndSplineSet
EndChar
StartChar: P
Encoding: 80 80 51
Width: 1214
GlyphClass: 2
Flags: W
LayerCount: 2
Back
Fore
SplineSet
2 57 m 2,0,-1
 274 1333 l 2,1,2
 278 1356 278 1356 296.5 1371 c 128,-1,3
 315 1386 315 1386 340 1391 c 0,4,5
 342 1391 342 1391 365.5 1393 c 128,-1,6
 389 1395 389 1395 428 1396 c 0,7,8
 448 1396 448 1396 470.5 1396 c 128,-1,9
 493 1396 493 1396 519 1396 c 0,10,11
 571 1395 571 1395 629 1391 c 0,12,13
 951 1366 951 1366 1067 1231 c 1,14,15
 1132 1157 1132 1157 1132 1054 c 0,16,17
 1132 1018 1132 1018 1124 977 c 1,18,19
 1112 924 1112 924 1082.5 863.5 c 128,-1,20
 1053 803 1053 803 993.5 744.5 c 128,-1,21
 934 686 934 686 839.5 634 c 128,-1,22
 745 582 745 582 606 545 c 0,23,24
 538 527 538 527 476 516.5 c 128,-1,25
 414 506 414 506 360.5 500 c 128,-1,26
 307 494 307 494 267 491.5 c 128,-1,27
 227 489 227 489 209 489 c 1,28,-1
 117 57 l 1,29,30
 113 32 113 32 93.5 16 c 128,-1,31
 74 0 74 0 49 0 c 0,32,33
 26 0 26 0 12 16 c 0,34,35
 1 29 1 29 1 47 c 0,36,37
 1 52 1 52 2 57 c 2,0,-1
233 604 m 1,38,39
 251 604 251 604 288.5 606 c 128,-1,40
 326 608 326 608 375 613 c 128,-1,41
 424 618 424 618 482.5 628.5 c 128,-1,42
 541 639 541 639 602 655 c 1,43,44
 682 678 682 678 749.5 706.5 c 128,-1,45
 817 735 817 735 868 772 c 0,46,47
 983 856 983 856 1010 977 c 0,48,49
 1016 1005 1016 1005 1016 1031 c 0,50,51
 1016 1098 1016 1098 973 1147 c 1,52,53
 875 1253 875 1253 594 1276 c 0,54,55
 528 1282 528 1282 472 1282 c 128,-1,56
 416 1282 416 1282 377 1280 c 1,57,-1
 233 604 l 1,38,39
EndSplineSet
EndChar
StartChar: Q
Encoding: 81 81 42
Width: 714
Flags: MW
HStem: -24 21G<571.5 581> -2 54<224.5 308> 626 54<381.5 516.5>
LayerCount: 2
Back
Fore
SplineSet
514 93 m 1
 601 27 l 2
 609 21 610 12 608 3 c 0
 605 -14 588 -24 574 -24 c 0
 569 -24 565 -23 560 -20 c 2
 462 56 l 1
 404 19 339 -2 277 -2 c 0
 113 -2 26 142 62 311 c 0
 104 512 293 680 469 680 c 0
 632 680 720 536 684 366 c 0
 662 260 597 161 514 93 c 1
289 52 m 0
 332 52 376 65 419 89 c 1
 351 141 l 2
 345 146 341 155 343 164 c 0
 347 180 362 192 376 192 c 0
 382 192 387 191 391 188 c 2
 473 125 l 1
 543 182 603 269 623 363 c 0
 651 497 583 626 450 626 c 0
 313 626 159 487 122 315 c 0
 91 168 160 52 289 52 c 0
EndSplineSet
EndChar
StartChar: R
Encoding: 82 82 53
Width: 1245
GlyphClass: 2
Flags: W
LayerCount: 2
Back
Fore
SplineSet
2 57 m 2,0,-1
 276 1346 l 2,1,2
 280 1369 280 1369 298.5 1384 c 128,-1,3
 317 1399 317 1399 340 1401 c 0,4,5
 342 1401 342 1401 365.5 1403 c 128,-1,6
 389 1405 389 1405 428 1407 c 128,-1,7
 467 1409 467 1409 519 1409 c 128,-1,8
 571 1409 571 1409 629 1405 c 0,9,10
 951 1380 951 1380 1073 1245 c 0,11,12
 1142 1170 1142 1170 1142 1062 c 0,13,14
 1142 1023 1142 1023 1133 979 c 0,15,16
 1098 823 1098 823 956 713 c 1,17,18
 901 668 901 668 830.5 633 c 128,-1,19
 760 598 760 598 674 569 c 0,20,21
 670 567 670 567 667 567 c 128,-1,22
 664 567 664 567 659 565 c 1,23,24
 696 542 696 542 725 510 c 1,25,26
 791 451 791 451 865.5 346.5 c 128,-1,27
 940 242 940 242 987 84 c 0,28,29
 993 61 993 61 982 38.5 c 128,-1,30
 971 16 971 16 946 6 c 1,31,32
 934 0 934 0 920 0 c 0,33,34
 885 0 885 0 874 33 c 0,35,36
 847 121 847 121 809.5 192.5 c 128,-1,37
 772 264 772 264 731 319.5 c 128,-1,38
 690 375 690 375 647 413 c 128,-1,39
 604 451 604 451 569 475 c 1,40,41
 538 498 538 498 483 508 c 0,42,43
 452 514 452 514 416 514 c 0,44,45
 387 514 387 514 354 510 c 0,46,47
 311 504 311 504 273.5 501 c 128,-1,48
 236 498 236 498 211 494 c 1,49,-1
 117 57 l 1,50,51
 113 32 113 32 92.5 16 c 128,-1,52
 72 0 72 0 49 0 c 0,53,54
 24 0 24 0 11 16 c 0,55,56
 1 29 1 29 1 46 c 0,57,58
 1 51 1 51 2 57 c 2,0,-1
236 608 m 1,59,60
 308 610 308 610 424.5 625.5 c 128,-1,61
 541 641 541 641 659 678 c 0,62,63
 802 723 802 723 897 795 c 1,64,65
 997 877 997 877 1018 979 c 0,66,67
 1025 1009 1025 1009 1025 1037 c 0,68,69
 1025 1110 1025 1110 977 1161 c 1,70,71
 930 1214 930 1214 833.5 1247 c 128,-1,72
 737 1280 737 1280 598 1290 c 0,73,74
 532 1294 532 1294 475 1294 c 128,-1,75
 418 1294 418 1294 381 1292 c 1,76,-1
 236 608 l 1,59,60
EndSplineSet
EndChar
StartChar: S
Encoding: 83 83 44
Width: 598
Flags: MW
HStem: 0 53<223.5 296.5 223.5 300.5> 0 186<65.5 300.5> 518 164<359 570> 632 50<359.5 439>
LayerCount: 2
Back
Fore
SplineSet
345 388 m 0x90
 483 347 542 283 522 191 c 0
 494 60 352 0 249 0 c 0
 136 0 54 58 38 140 c 0
 37 144 37 152 38 157 c 0
 41 173 57 186 74 186 c 0x60
 89 186 97 177 99 163 c 0
 109 87 188 53 259 53 c 0
 334 53 438 93 461 198 c 0
 467 228 469 288 320 331 c 0
 228 357 126 409 148 509 c 0
 176 640 302 682 416 682 c 0
 490 682 611 662 595 548 c 0
 592 531 578 518 562 518 c 0xa0
 548 518 538 529 540 542 c 0
 546 604 475 632 403 632 c 0
 316 632 231 602 211 506 c 0
 200 456 246 417 345 388 c 0x90
EndSplineSet
EndChar
StartChar: T
Encoding: 84 84 55
Width: 950
GlyphClass: 2
Flags: W
LayerCount: 2
Back
Fore
SplineSet
2 1337 m 0,0,1
 8 1362 8 1362 28.5 1378.5 c 128,-1,2
 49 1395 49 1395 72 1395 c 2,3,-1
 1026 1395 l 1,4,5
 1051 1394 1051 1394 1064 1378 c 0,6,7
 1073 1367 1073 1367 1073 1352 c 0,8,9
 1073 1345 1073 1345 1071 1337 c 0,10,11
 1067 1314 1067 1314 1046.5 1297 c 128,-1,12
 1026 1280 1026 1280 1001 1280 c 2,13,-1
 567 1280 l 1,14,-1
 307 57 l 2,15,16
 303 34 303 34 283.5 17 c 128,-1,17
 264 0 264 0 240 0 c 0,18,19
 217 0 217 0 202.5 17.5 c 128,-1,20
 188 35 188 35 193 57 c 2,21,-1
 453 1280 l 1,22,-1
 47 1280 l 2,23,24
 24 1280 24 1280 11 1298 c 0,25,26
 1 1311 1 1311 1 1327 c 0,27,28
 1 1332 1 1332 2 1337 c 0,0,1
EndSplineSet
EndChar
StartChar: U
Encoding: 85 85 56
Width: 1327
GlyphClass: 2
Flags: W
LayerCount: 2
Back
Fore
SplineSet
6 553 m 0,0,1
 14 637 14 637 33.5 746.5 c 128,-1,2
 53 856 53 856 75.5 966.5 c 128,-1,3
 98 1077 98 1077 120.5 1176.5 c 128,-1,4
 143 1276 143 1276 158 1337 c 1,5,6
 162 1360 162 1360 182.5 1377.5 c 128,-1,7
 203 1395 203 1395 227 1395 c 0,8,9
 250 1395 250 1395 264.5 1378.5 c 128,-1,10
 279 1362 279 1362 272 1337 c 1,11,12
 258 1278 258 1278 236.5 1179.5 c 128,-1,13
 215 1081 215 1081 191.5 971.5 c 128,-1,14
 168 862 168 862 149.5 754.5 c 128,-1,15
 131 647 131 647 123 567 c 0,16,17
 119 526 119 526 119 488 c 0,18,19
 119 428 119 428 129 375 c 0,20,21
 145 289 145 289 185 227.5 c 128,-1,22
 225 166 225 166 288.5 133 c 128,-1,23
 352 100 352 100 436 100 c 2,24,-1
 477 100 l 2,25,26
 561 100 561 100 639 133 c 128,-1,27
 717 166 717 166 782.5 227.5 c 128,-1,28
 848 289 848 289 900 375 c 128,-1,29
 952 461 952 461 987 567 c 0,30,31
 1014 647 1014 647 1040.5 753.5 c 128,-1,32
 1067 860 1067 860 1091.5 968.5 c 128,-1,33
 1116 1077 1116 1077 1135.5 1174.5 c 128,-1,34
 1155 1272 1155 1272 1167 1333 c 1,35,-1
 1167 1337 l 1,36,37
 1171 1360 1171 1360 1191.5 1377.5 c 128,-1,38
 1212 1395 1212 1395 1237 1395 c 1,39,40
 1260 1394 1260 1394 1274 1378 c 0,41,42
 1285 1365 1285 1365 1285 1349 c 0,43,44
 1285 1344 1285 1344 1284 1339 c 1,45,-1
 1282 1337 l 1,46,47
 1270 1276 1270 1276 1250.5 1176.5 c 128,-1,48
 1231 1077 1231 1077 1206.5 966.5 c 128,-1,49
 1182 856 1182 856 1154 746.5 c 128,-1,50
 1126 637 1126 637 1100 553 c 1,51,52
 1059 426 1059 426 993.5 323.5 c 128,-1,53
 928 221 928 221 845 149.5 c 128,-1,54
 762 78 762 78 662.5 39 c 128,-1,55
 563 0 563 0 457 0 c 2,56,-1
 416 0 l 2,57,58
 310 0 310 0 227.5 39 c 128,-1,59
 145 78 145 78 92 150 c 0,60,61
 38 222 38 222 16 324 c 0,62,63
 1 391 1 391 2 468 c 0,64,65
 2 509 2 509 6 553 c 0,0,1
EndSplineSet
EndChar
StartChar: V
Encoding: 86 86 47
Width: 535
Flags: MW
HStem: 0 21G<189 200.5> 660 20G<119 134 580 594>
LayerCount: 2
Back
Fore
SplineSet
195 0 m 0
 183 0 173 8 172 19 c 2
 94 638 l 2
 93 643 94 650 94 653 c 0
 97 668 110 680 128 680 c 0
 140 680 150 673 151 661 c 2
 220 110 l 1
 555 663 l 2
 563 674 574 680 586 680 c 0
 602 680 610 667 607 653 c 0
 606 649 605 646 603 642 c 2
 224 18 l 2
 217 7 206 0 195 0 c 0
EndSplineSet
EndChar
StartChar: W
Encoding: 87 87 58
Width: 1570
GlyphClass: 2
Flags: W
LayerCount: 2
Back
Fore
SplineSet
2 1321 m 2,0,1
 1 1325 1 1325 1 1330 c 0,2,3
 0 1348 0 1348 14 1365 c 0,4,5
 30 1386 30 1386 53 1393 c 0,6,7
 63 1396 63 1396 72 1396 c 0,8,9
 86 1396 86 1396 96 1388 c 1,10,11
 114 1376 114 1376 117 1354 c 1,12,-1
 217 248 l 1,13,-1
 811 1356 l 1,14,15
 822 1374 822 1374 838 1386 c 0,16,17
 852 1396 852 1396 868 1395 c 0,18,19
 871 1395 871 1395 874 1395 c 0,20,21
 892 1395 892 1395 906 1383.5 c 128,-1,22
 920 1372 920 1372 920 1354 c 1,23,-1
 989 246 l 1,24,-1
 1626 1358 l 1,25,26
 1638 1381 1638 1381 1662 1391 c 0,27,28
 1675 1397 1675 1397 1687 1397 c 0,29,30
 1697 1397 1697 1397 1706 1393 c 0,31,32
 1729 1383 1729 1383 1734 1362 c 0,33,34
 1735 1357 1735 1357 1735 1351 c 0,35,36
 1735 1335 1735 1335 1724 1319 c 1,37,-1
 991 37 l 1,38,39
 971 0 971 0 932 0 c 2,40,-1
 930 0 l 2,41,42
 912 0 912 0 898.5 11.5 c 128,-1,43
 885 23 885 23 885 41 c 1,44,-1
 815 1139 l 1,45,-1
 227 39 l 2,46,47
 207 0 207 0 166 0 c 2,48,-1
 164 0 l 2,49,50
 146 0 146 0 132.5 11.5 c 128,-1,51
 119 23 119 23 119 39 c 1,52,-1
 2 1321 l 2,0,1
EndSplineSet
EndChar
StartChar: X
Encoding: 88 88 59
Width: 1464
GlyphClass: 2
Flags: W
LayerCount: 2
Back
Fore
SplineSet
1 52 m 0,0,1
 4 76 4 76 23 94 c 2,2,-1
 670 709 l 1,3,-1
 324 1303 l 1,4,5
 312 1321 312 1321 319 1344.5 c 128,-1,6
 326 1368 326 1368 348 1382 c 1,7,8
 368 1396 368 1396 388 1396 c 0,9,10
 390 1396 390 1396 394 1396 c 0,11,12
 418 1394 418 1394 428 1374 c 1,13,-1
 762 799 l 1,14,-1
 1368 1374 l 2,15,16
 1388 1392 1388 1392 1412 1396 c 0,17,18
 1416 1397 1416 1397 1420 1396 c 1,19,20
 1439 1396 1439 1396 1452 1382 c 0,21,22
 1465 1369 1465 1369 1465 1352 c 0,23,24
 1465 1348 1465 1348 1464 1342 c 0,25,26
 1460 1318 1460 1318 1440 1300 c 2,27,-1
 817 707 l 1,28,-1
 1176 92 l 2,29,30
 1186 74 1186 74 1178.5 50.5 c 128,-1,31
 1171 27 1171 27 1149 12 c 0,32,33
 1131 0 1131 0 1112 0 c 0,34,35
 1083 0 1083 0 1071 20 c 2,36,-1
 721 616 l 1,37,-1
 96 20 l 2,38,39
 76 0 76 0 49 0 c 0,40,41
 26 0 26 0 14 12 c 0,42,43
 1 25 1 25 1 45 c 0,44,45
 1 48 1 48 1 52 c 0,0,1
EndSplineSet
EndChar
StartChar: Y
Encoding: 89 89 60
Width: 1013
GlyphClass: 2
Flags: W
LayerCount: 2
Back
Fore
SplineSet
4 1309 m 2,0,1
 1 1319 1 1319 1 1328 c 0,2,3
 1 1341 1 1341 7 1354 c 0,4,5
 18 1376 18 1376 41 1386 c 1,6,7
 59 1395 59 1395 76 1395 c 0,8,9
 82 1395 82 1395 88 1394 c 0,10,11
 109 1389 109 1389 115 1366 c 1,12,-1
 418 551 l 1,13,-1
 1073 1366 l 1,14,15
 1089 1389 1089 1389 1114 1394 c 0,16,17
 1121 1395 1121 1395 1127 1395 c 0,18,19
 1143 1395 1143 1395 1155 1386 c 1,20,21
 1176 1374 1176 1374 1176 1350 c 0,22,23
 1176 1328 1176 1328 1159 1309 c 1,24,-1
 127 29 l 1,25,26
 109 0 109 0 74 0 c 0,27,28
 56 0 56 0 45 8 c 0,29,30
 29 20 29 20 27 43 c 128,-1,31
 25 66 25 66 41 86 c 2,32,-1
 326 438 l 1,33,-1
 4 1309 l 2,0,1
EndSplineSet
EndChar
StartChar: Z
Encoding: 90 90 51
Width: 639
Flags: MW
HStem: 0 60<17.5 500 83 488> 619 61<162 645 183 587>
LayerCount: 2
Back
Fore
SplineSet
83 60 m 1
 500 60 l 2
 516 60 526 47 523 30 c 0
 519 14 504 0 488 0 c 2
 26 0 l 2
 9 0 -4 12 -1 30 c 0
 1 40 6 48 12 55 c 2
 587 619 l 1
 170 619 l 2
 154 619 144 633 148 650 c 0
 151 666 167 680 183 680 c 2
 645 680 l 2
 663 680 675 666 671 648 c 0
 669 639 664 632 659 626 c 2
 83 60 l 1
EndSplineSet
EndChar
StartChar: bracketleft
Encoding: 91 91 62
Width: 862
GlyphClass: 2
Flags: W
LayerCount: 2
Back
Fore
SplineSet
2 -197 m 1,0,-1
 383 1593 l 2,1,2
 387 1616 387 1616 407.5 1633.5 c 128,-1,3
 428 1651 428 1651 453 1651 c 2,4,-1
 733 1651 l 2,5,6
 756 1651 756 1651 769 1633.5 c 128,-1,7
 782 1616 782 1616 778 1593 c 1,8,9
 772 1568 772 1568 751.5 1552 c 128,-1,10
 731 1536 731 1536 709 1536 c 2,11,-1
 485 1536 l 1,12,-1
 129 -139 l 1,13,-1
 319 -139 l 2,14,15
 342 -139 342 -139 355.5 -156.5 c 128,-1,16
 369 -174 369 -174 365 -197 c 0,17,18
 361 -222 361 -222 339.5 -238 c 128,-1,19
 318 -254 318 -254 295 -254 c 2,20,-1
 47 -254 l 2,21,22
 22 -254 22 -254 10 -237.5 c 128,-1,23
 -2 -221 -2 -221 2 -197 c 1,0,-1
EndSplineSet
EndChar
StartChar: backslash
Encoding: 92 92 63
Width: 1202
GlyphClass: 2
Flags: W
LayerCount: 2
Back
Fore
SplineSet
2 1376.5 m 128,-1,1
 0 1354 0 1354 16 1331 c 1,2,-1
 1018 27 l 2,3,4
 1040 -2 1040 -2 1073 -2 c 0,5,6
 1085 -2 1085 -2 1100 4 c 1,7,8
 1116 16 1116 16 1119 38.5 c 128,-1,9
 1122 61 1122 61 1106 84 c 1,10,-1
 104 1389 l 2,11,12
 88 1409 88 1409 64.5 1415 c 128,-1,13
 41 1421 41 1421 20 1409 c 0,14,0
 4 1399 4 1399 2 1376.5 c 128,-1,1
EndSplineSet
EndChar
StartChar: bracketright
Encoding: 93 93 76
Width: 315
Flags: MW
HStem: -124 56<-0.5 128 19 128 19 144> 750 56<201.5 342 221 302>
LayerCount: 2
Back
Fore
SplineSet
221 806 m 2
 342 806 l 2
 358 806 367 794 364 778 c 2
 178 -96 l 2
 175 -111 160 -124 144 -124 c 2
 7 -124 l 2
 -8 -124 -18 -111 -15 -96 c 0
 -12 -80 4 -68 19 -68 c 2
 128 -68 l 1
 302 750 l 1
 209 750 l 2
 194 750 184 763 187 778 c 0
 190 794 206 806 221 806 c 2
EndSplineSet
EndChar
StartChar: asciicircum
Encoding: 94 94 124
Width: 500
Flags: MW
HStem: 395 21G<147.5 160.5 395 407.5> 643 20G
LayerCount: 2
Back
Fore
SplineSet
373 641 m 2
 433 438 l 2
 434 432 434 426 433 422 c 0
 430 407 415 395 400 395 c 0
 390 395 382 401 379 409 c 2
 327 582 l 1
 327 582 184 411 184 411 c 2
 177 401 166 395 155 395 c 0
 140 395 131 407 134 422 c 0
 135 427 137 432 141 436 c 2
 309 643 l 2
 319 654 331 663 345 663 c 0
 359 663 369 654 373 641 c 2
EndSplineSet
EndChar
StartChar: underscore
Encoding: 95 95 65
Width: 1120
GlyphClass: 2
Flags: W
LayerCount: 2
Back
Fore
SplineSet
2 -57 m 1,0,1
 6 -34 6 -34 25.5 -17 c 128,-1,2
 45 0 45 0 70 0 c 2,3,-1
 1073 0 l 2,4,5
 1096 0 1096 0 1109 -17.5 c 128,-1,6
 1122 -35 1122 -35 1118 -57 c 1,7,8
 1112 -82 1112 -82 1092 -98.5 c 128,-1,9
 1072 -115 1072 -115 1049 -115 c 2,10,-1
 47 -115 l 2,11,12
 22 -115 22 -115 9 -98.5 c 128,-1,13
 -4 -82 -4 -82 2 -57 c 1,0,1
EndSplineSet
EndChar
StartChar: grave
Encoding: 96 96 138
Width: 500
Flags: MW
HStem: 574 21G<373 384> 743 20G<295 309.5>
LayerCount: 2
Back
Fore
SplineSet
359 583 m 2
 267 704 l 2
 262 711 259 719 261 729 c 0
 265 747 286 763 304 763 c 0
 315 763 324 756 329 748 c 2
 407 618 l 2
 410 611 411 606 410 600 c 0
 407 585 391 574 377 574 c 0
 369 574 363 578 359 583 c 2
EndSplineSet
EndChar
StartChar: a
Encoding: 97 97 66
Width: 1040
GlyphClass: 2
Flags: W
LayerCount: 2
Back
Fore
SplineSet
4 395 m 0,0,1
 10 456 10 456 33.5 533 c 128,-1,2
 57 610 57 610 100 690 c 128,-1,3
 143 770 143 770 208.5 845 c 128,-1,4
 274 920 274 920 362 975 c 0,5,6
 462 1038 462 1038 556 1048 c 0,7,8
 596 1052 596 1052 633 1053 c 1,9,10
 683 1052 683 1052 727 1044 c 0,11,12
 803 1030 803 1030 850 1006.5 c 128,-1,13
 897 983 897 983 901 981 c 2,14,-1
 918 969 l 1,15,-1
 727 61 l 1,16,17
 727 61 727 61 725 57 c 1,18,19
 721 34 721 34 700.5 17 c 128,-1,20
 680 0 680 0 657 0 c 0,21,22
 632 0 632 0 619 17.5 c 128,-1,23
 606 35 606 35 610 57 c 1,24,25
 612 59 612 59 612 66 c 1,26,-1
 623 113 l 2,27,28
 623 111 623 111 621 111 c 256,29,30
 619 111 619 111 616 109 c 0,31,32
 550 74 550 74 466 44 c 0,33,34
 388 16 388 16 308 16 c 0,35,36
 303 16 303 16 297 16 c 0,37,38
 144 20 144 20 66 122 c 0,39,40
 1 206 1 206 1 339 c 0,41,42
 1 366 1 366 4 395 c 0,0,1
123 408 m 1,43,44
 120 385 120 385 120 363 c 0,45,46
 120 336 120 336 124 310 c 0,47,48
 131 260 131 260 154.5 220 c 128,-1,49
 178 180 178 180 219 155.5 c 128,-1,50
 260 131 260 131 324 129 c 1,51,52
 371 129 371 129 420 142.5 c 128,-1,53
 469 156 469 156 513 175.5 c 128,-1,54
 557 195 557 195 593 215.5 c 128,-1,55
 629 236 629 236 647 248 c 1,56,57
 649 256 649 256 651 264 c 128,-1,58
 653 272 653 272 655 283 c 0,59,60
 673 361 673 361 694 453 c 128,-1,61
 715 545 715 545 735.5 632 c 128,-1,62
 756 719 756 719 771 789.5 c 128,-1,63
 786 860 786 860 795 897 c 1,64,65
 779 905 779 905 750 915.5 c 128,-1,66
 721 926 721 926 686 932 c 0,67,68
 668 936 668 936 648.5 938 c 128,-1,69
 629 940 629 940 610 940 c 0,70,71
 606 940 606 940 603 940 c 0,72,73
 498 940 498 940 414 885 c 1,74,75
 342 840 342 840 290 778.5 c 128,-1,76
 238 717 238 717 202 650.5 c 128,-1,77
 166 584 166 584 146.5 520.5 c 128,-1,78
 127 457 127 457 123 408 c 1,43,44
EndSplineSet
EndChar
StartChar: b
Encoding: 98 98 4
Width: 524
Flags: MW
HStem: 0 21G<30.5 45.5> 7 53<177.5 269 177.5 280> 435 56<314.5 386.5> 670 20G<176.5 191>
LayerCount: 2
Back
Fore
SplineSet
349 491 m 0xb0
 477 491 498 374 476 271 c 0
 445 125 357 7 203 7 c 0x70
 151 7 100 22 72 35 c 1
 70 26 l 2
 67 13 53 0 38 0 c 0
 23 0 12 12 15 26 c 2
 151 665 l 2
 154 680 169 690 184 690 c 0
 198 690 209 680 206 665 c 2
 152 410 l 1
 205 460 280 491 349 491 c 0xb0
206 60 m 0
 332 60 396 144 423 271 c 0
 438 340 432 435 341 435 c 0
 236 435 144 372 127 294 c 2
 83 87 l 1
 98 79 149 60 206 60 c 0
EndSplineSet
EndChar
StartChar: c
Encoding: 99 99 5
Width: 509
Flags: MW
HStem: 0 52 448 52<280.5 340>
LayerCount: 2
Back
Fore
SplineSet
427 112 m 0
 426 105 421 99 415 93 c 0
 372 43 296 3 222 0 c 0
 102 -6 13 89 40 216 c 0
 51 265 74 309 90 335 c 0
 130 401 226 500 323 500 c 0
 397 500 429 474 458 430 c 0
 461 426 462 418 461 411 c 0
 458 396 443 384 428 384 c 0
 420 384 414 388 410 393 c 0
 390 426 366 448 314 448 c 0
 247 448 170 373 135 316 c 0
 112 278 100 245 94 218 c 0
 67 90 174 52 218 52 c 0
 290 52 339 84 377 123 c 0
 382 129 393 139 406 139 c 0
 421 139 430 127 427 112 c 0
EndSplineSet
EndChar
StartChar: d
Encoding: 100 100 6
Width: 530
Flags: MW
HStem: 0 21G<356.5 374> 4 49<133 207.5> 444 54<238 335.5> 677 20G<522 537.5>
LayerCount: 2
Back
Fore
SplineSet
551 667 m 2x70
 400 27 l 2
 397 11 382 0 366 0 c 0xb0
 347 0 340 17 345 34 c 2
 356 79 l 1
 313 46 247 4 168 4 c 0
 50 4 20 116 44 226 c 0
 74 368 160 498 315 498 c 0
 371 498 417 482 447 467 c 1
 494 668 l 2
 498 684 514 697 530 697 c 0
 545 697 555 683 551 667 c 2x70
99 229 m 0
 84 156 87 53 179 53 c 0x70
 283 53 368 130 376 161 c 2
 433 406 l 1
 416 416 365 444 306 444 c 0
 170 444 118 316 99 229 c 0
EndSplineSet
EndChar
StartChar: e
Encoding: 101 101 70
Width: 1015
GlyphClass: 2
Flags: W
LayerCount: 2
Back
Fore
SplineSet
6 319 m 0,0,1
 0 347 0 347 0 382 c 0,2,3
 0 418 0 418 7 462 c 0,4,5
 20 546 20 546 59 633 c 1,6,7
 75 672 75 672 101 716 c 128,-1,8
 127 760 127 760 164 804 c 128,-1,9
 201 848 201 848 250 890 c 128,-1,10
 299 932 299 932 365 965 c 0,11,12
 446 1006 446 1006 524 1017 c 0,13,14
 562 1022 562 1022 596 1022 c 0,15,16
 634 1022 634 1022 670 1016 c 0,17,18
 738 1004 738 1004 790 972 c 128,-1,19
 842 940 842 940 868 895 c 1,20,21
 886 868 886 868 895.5 841.5 c 128,-1,22
 905 815 905 815 909 795 c 0,23,24
 912 780 912 780 913 767 c 1,25,26
 913 750 913 750 906 736 c 0,27,28
 895 712 895 712 852 690 c 0,29,30
 836 682 836 682 786.5 657.5 c 128,-1,31
 737 633 737 633 669.5 598 c 128,-1,32
 602 563 602 563 522 522 c 128,-1,33
 442 481 442 481 366.5 442 c 128,-1,34
 291 403 291 403 225.5 369.5 c 128,-1,35
 160 336 160 336 121 317 c 1,36,37
 191 106 191 106 440 106 c 0,38,39
 444 106 444 106 473 109.5 c 128,-1,40
 502 113 502 113 543 124 c 128,-1,41
 584 135 584 135 633 157.5 c 128,-1,42
 682 180 682 180 725 221 c 1,43,44
 745 237 745 237 766 238 c 1,45,46
 789 238 789 238 801 222.5 c 128,-1,47
 813 207 813 207 809 184 c 1,48,49
 803 159 803 159 786 147 c 1,50,51
 727 94 727 94 663.5 64.5 c 128,-1,52
 600 35 600 35 547 20.5 c 128,-1,53
 494 6 494 6 458 3 c 128,-1,54
 422 0 422 0 420 0 c 2,55,-1
 418 0 l 2,56,57
 250 0 250 0 145.5 80 c 128,-1,58
 41 160 41 160 6 319 c 0,0,1
106 422 m 1,59,60
 149 442 149 442 211.5 473 c 128,-1,61
 274 504 274 504 345 538.5 c 128,-1,62
 416 573 416 573 488.5 609 c 128,-1,63
 561 645 561 645 622.5 676 c 128,-1,64
 684 707 684 707 729 728.5 c 128,-1,65
 774 750 774 750 791 758 c 0,66,67
 793 760 793 760 797 761 c 128,-1,68
 801 762 801 762 801 766 c 1,69,70
 804 769 804 769 804 777 c 0,71,72
 804 780 804 780 803 786 c 0,73,74
 801 802 801 802 784 827 c 0,75,76
 761 862 761 862 705 887.5 c 128,-1,77
 649 913 649 913 575 913 c 0,78,79
 532 913 532 913 487 903 c 128,-1,80
 442 893 442 893 395 868 c 0,81,82
 317 827 317 827 264 770 c 128,-1,83
 211 713 211 713 177 650.5 c 128,-1,84
 143 588 143 588 127 527.5 c 128,-1,85
 111 467 111 467 106 422 c 1,59,60
EndSplineSet
EndChar
StartChar: f
Encoding: 102 102 8
Width: 371
Flags: MW
HStem: 0 21G<86.5 101.5> 449 51<217 371.5> 481 20G<95 172 172 172 228 228> 638 53<354 422.5>
LayerCount: 2
Back
Fore
SplineSet
95 501 m 2xb0
 172 501 l 1
 202 644 272 691 413 691 c 0
 435 691 451 686 447 665 c 0
 444 651 431 638 414 638 c 0
 294 638 254 622 228 501 c 1xb0
 366 500 l 2
 377 500 388 489 385 475 c 0
 382 461 369 449 355 449 c 2
 217 449 l 1
 127 26 l 2
 124 12 109 0 94 0 c 0
 79 0 68 12 71 26 c 2
 161 449 l 1
 86 449 l 2xd0
 72 449 62 461 65 475 c 0
 68 489 83 501 95 501 c 2xb0
EndSplineSet
EndChar
StartChar: g
Encoding: 103 103 72
Width: 1138
GlyphClass: 2
Flags: W
LayerCount: 2
Back
Fore
SplineSet
2 -293 m 0,0,1
 8 -268 8 -268 28.5 -252 c 128,-1,2
 49 -236 49 -236 72 -236 c 0,3,4
 80 -236 80 -236 96 -240 c 0,5,6
 149 -252 149 -252 222 -260 c 0,7,8
 258 -264 258 -264 298 -264 c 128,-1,9
 338 -264 338 -264 381 -260 c 0,10,11
 457 -254 457 -254 509 -217 c 128,-1,12
 561 -180 561 -180 595 -134 c 128,-1,13
 629 -88 629 -88 647.5 -43 c 128,-1,14
 666 2 666 2 672 27 c 1,15,16
 676 37 676 37 684 71.5 c 128,-1,17
 692 106 692 106 705 160 c 1,18,19
 633 84 633 84 551 43 c 128,-1,20
 469 2 469 2 379 -2 c 1,21,-1
 371 -2 l 2,22,23
 205 -2 205 -2 117 143 c 0,24,25
 82 200 82 200 70 273 c 1,26,27
 62 315 62 315 62 360 c 0,28,29
 62 391 62 391 66 424 c 0,30,31
 76 498 76 498 104.5 578.5 c 128,-1,32
 133 659 133 659 185.5 735 c 128,-1,33
 238 811 238 811 313.5 875.5 c 128,-1,34
 389 940 389 940 492 983 c 0,35,36
 564 1014 564 1014 625 1020 c 0,37,38
 653 1023 653 1023 679 1023 c 0,39,40
 709 1023 709 1023 736 1019 c 0,41,42
 786 1012 786 1012 825 994.5 c 128,-1,43
 864 977 864 977 891 958 c 1,44,45
 895 974 895 974 896 975.5 c 128,-1,46
 897 977 897 977 901 993 c 0,47,48
 907 1016 907 1016 926.5 1031.5 c 128,-1,49
 946 1047 946 1047 969 1047 c 256,50,51
 992 1047 992 1047 1005 1030 c 0,52,53
 1015 1016 1015 1016 1015 998 c 0,54,55
 1015 993 1015 993 1014 987 c 2,56,57
 1014 987 1014 987 998 918 c 0,58,59
 981 848 981 848 956.5 743.5 c 128,-1,60
 932 639 932 639 903 515 c 128,-1,61
 874 391 874 391 848.5 283.5 c 128,-1,62
 823 176 823 176 804.5 101.5 c 128,-1,63
 786 27 786 27 784 18 c 0,64,65
 737 -150 737 -150 625.5 -255 c 128,-1,66
 514 -360 514 -360 367 -375 c 1,67,68
 344 -379 344 -379 322.5 -379 c 128,-1,69
 301 -379 301 -379 281 -379 c 0,70,71
 207 -379 207 -379 144.5 -369.5 c 128,-1,72
 82 -360 82 -360 35 -350 c 1,73,-1
 35 -348 l 1,74,75
 17 -344 17 -344 8 -328 c 1,76,77
 1 -318 1 -318 1 -304 c 0,78,79
 1 -299 1 -299 2 -293 c 0,0,1
168 430 m 1,80,81
 165 408 165 408 165 385 c 0,82,83
 165 355 165 355 170 322 c 0,84,85
 178 266 178 266 204.5 218 c 128,-1,86
 231 170 231 170 275 138 c 128,-1,87
 319 106 319 106 387 106 c 2,88,-1
 393 106 l 1,89,90
 446 108 446 108 505.5 130 c 128,-1,91
 565 152 565 152 620.5 203 c 128,-1,92
 676 254 676 254 722 338 c 128,-1,93
 768 422 768 422 795 547 c 0,94,95
 803 582 803 582 814 632 c 128,-1,96
 825 682 825 682 836 729 c 1,97,98
 846 784 846 784 858 844 c 1,99,100
 856 846 856 846 831.5 864.5 c 128,-1,101
 807 883 807 883 762 896 c 128,-1,102
 717 909 717 909 652 910 c 0,103,104
 651 910 651 910 649 910 c 0,105,106
 586 910 586 910 508 879 c 1,107,108
 404 836 404 836 338 771.5 c 128,-1,109
 272 707 272 707 235.5 640 c 128,-1,110
 199 573 199 573 184.5 516 c 128,-1,111
 170 459 170 459 168 430 c 1,80,81
EndSplineSet
EndChar
StartChar: h
Encoding: 104 104 73
Width: 1079
GlyphClass: 2
Flags: W
LayerCount: 2
Back
Fore
SplineSet
2 55 m 2,0,-1
 279 1354 l 1,1,-1
 279 1356 l 1,2,3
 283 1379 283 1379 304.5 1396 c 128,-1,4
 326 1413 326 1413 348 1413 c 0,5,6
 373 1413 373 1413 385 1395.5 c 128,-1,7
 397 1378 397 1378 393 1356 c 1,8,-1
 393 1354 l 1,9,-1
 250 682 l 1,10,11
 291 743 291 743 346 804.5 c 128,-1,12
 401 866 401 866 464.5 916.5 c 128,-1,13
 528 967 528 967 596 997.5 c 128,-1,14
 664 1028 664 1028 727 1028 c 0,15,16
 914 1028 914 1028 913 745 c 0,17,18
 913 634 913 634 885 479 c 1,19,20
 854 319 854 319 828.5 208.5 c 128,-1,21
 803 98 803 98 793 57 c 1,22,-1
 793 55 l 1,23,-1
 791 55 l 1,24,25
 787 32 787 32 767.5 16 c 128,-1,26
 748 0 748 0 725 0 c 256,27,28
 702 0 702 0 689 16.5 c 128,-1,29
 676 33 676 33 680 55 c 1,30,-1
 680 57 l 1,31,-1
 682 59 l 1,32,33
 692 96 692 96 717.5 206.5 c 128,-1,34
 743 317 743 317 772 477 c 1,35,36
 800 622 800 622 800 721 c 0,37,38
 800 764 800 764 795 799 c 0,39,40
 789 842 789 842 776.5 866.5 c 128,-1,41
 764 891 764 891 750.5 901 c 128,-1,42
 737 911 737 911 724 913 c 128,-1,43
 711 915 711 915 705 915 c 0,44,45
 639 915 639 915 568.5 872 c 128,-1,46
 498 829 498 829 434.5 772 c 128,-1,47
 371 715 371 715 323.5 659.5 c 128,-1,48
 276 604 276 604 258 578 c 0,49,50
 231 539 231 539 216 494 c 128,-1,51
 201 449 201 449 190 395 c 0,52,53
 186 377 186 377 174 321.5 c 128,-1,54
 162 266 162 266 150 207 c 0,55,56
 136 137 136 137 117 55 c 1,57,58
 113 32 113 32 92.5 15 c 128,-1,59
 72 -2 72 -2 47 -2 c 0,60,61
 24 -2 24 -2 11 16 c 0,62,63
 1 29 1 29 1 45 c 0,64,65
 1 50 1 50 2 55 c 2,0,-1
EndSplineSet
EndChar
StartChar: i
Encoding: 105 105 74
Width: 446
GlyphClass: 2
Flags: W
LayerCount: 2
Back
Fore
SplineSet
2 59 m 2,0,1
 0 52 0 52 0 45 c 0,2,3
 0 29 0 29 10 17 c 0,4,5
 24 0 24 0 49 0 c 128,-1,6
 74 0 74 0 94.5 17.5 c 128,-1,7
 115 35 115 35 121 59 c 2,8,-1
 324 956 l 1,9,10
 328 981 328 981 314.5 998.5 c 128,-1,11
 301 1016 301 1016 276 1016 c 256,12,13
 251 1016 251 1016 230 998.5 c 128,-1,14
 209 981 209 981 205 956 c 1,15,-1
 2 59 l 2,0,1
272 1255 m 2,16,-1
 293 1339 l 1,17,18
 297 1362 297 1362 317.5 1378.5 c 128,-1,19
 338 1395 338 1395 360 1395 c 1,20,21
 384 1392 384 1392 396 1376 c 0,22,23
 405 1364 405 1364 404 1350 c 0,24,25
 404 1344 404 1344 403 1337 c 2,26,-1
 385 1253 l 1,27,28
 378 1230 378 1230 358 1213 c 0,29,30
 340 1198 340 1198 320 1198 c 0,31,32
 318 1198 318 1198 315 1198 c 0,33,34
 292 1198 292 1198 280 1216 c 0,35,36
 271 1229 271 1229 271 1244 c 0,37,38
 271 1249 271 1249 272 1255 c 2,16,-1
EndSplineSet
EndChar
StartChar: j
Encoding: 106 106 11
Width: 333
Flags: MW
HStem: -181 51<37.5 92 37.5 100> -1 21G<-45.5 -31> 502 91<272.5 310.5> 670 20G<324.5 340>
LayerCount: 2
Back
Fore
SplineSet
303 474 m 0
 299 454 214 28 208 -2 c 0
 194 -66 150 -181 50 -181 c 0
 -47 -181 -68 -58 -71 -38 c 0
 -71 -35 -71 -31 -70 -28 c 0
 -67 -14 -54 -1 -37 -1 c 0
 -25 -1 -15 -9 -14 -21 c 0
 -7 -66 14 -130 61 -130 c 0
 123 -130 148 -28 152 -7 c 0
 158 21 240 440 247 473 c 0
 250 489 264 502 281 502 c 0
 296 502 306 489 303 474 c 0
331 690 m 0
 349 690 356 672 351 658 c 2
 337 615 l 2
 332 602 317 593 304 593 c 0
 289 593 280 608 283 620 c 2
 298 668 l 2
 302 681 318 690 331 690 c 0
EndSplineSet
EndChar
StartChar: k
Encoding: 107 107 76
Width: 1032
GlyphClass: 2
Flags: W
LayerCount: 2
Back
Fore
SplineSet
2 57 m 2,0,-1
 274 1358 l 1,1,2
 280 1381 280 1381 301 1397 c 128,-1,3
 322 1413 322 1413 344 1413 c 0,4,5
 369 1413 369 1413 381 1395.5 c 128,-1,6
 393 1378 393 1378 389 1356 c 1,7,-1
 389 1354 l 1,8,-1
 213 520 l 1,9,10
 262 549 262 549 340 604 c 128,-1,11
 418 659 418 659 507 729 c 128,-1,12
 596 799 596 799 686 878.5 c 128,-1,13
 776 958 776 958 852 1036 c 0,14,15
 877 1061 877 1061 905 1061 c 1,16,17
 928 1060 928 1060 940 1044 c 0,18,19
 949 1032 949 1032 949 1017 c 0,20,21
 949 1012 949 1012 948 1006 c 0,22,23
 946 996 946 996 940 987.5 c 128,-1,24
 934 979 934 979 928 973 c 0,25,26
 885 930 885 930 829.5 878.5 c 128,-1,27
 774 827 774 827 715.5 777 c 128,-1,28
 657 727 657 727 603 683 c 128,-1,29
 549 639 549 639 510 610 c 1,30,31
 512 606 512 606 528.5 578.5 c 128,-1,32
 545 551 545 551 570.5 507 c 128,-1,33
 596 463 596 463 627.5 408.5 c 128,-1,34
 659 354 659 354 692 300 c 128,-1,35
 725 246 725 246 754.5 193.5 c 128,-1,36
 784 141 784 141 807 102 c 1,37,38
 817 88 817 88 817 68 c 1,39,40
 813 45 813 45 793.5 26.5 c 128,-1,41
 774 8 774 8 752 6 c 0,42,43
 719 2 719 2 705 27 c 1,44,45
 670 109 670 109 627 187.5 c 128,-1,46
 584 266 584 266 541 334.5 c 128,-1,47
 498 403 498 403 462 457.5 c 128,-1,48
 426 512 426 512 410 545 c 1,49,50
 342 498 342 498 286.5 466 c 128,-1,51
 231 434 231 434 193 414 c 1,52,-1
 117 57 l 2,53,54
 113 34 113 34 93.5 17 c 128,-1,55
 74 0 74 0 49 0 c 0,56,57
 26 0 26 0 12 18 c 0,58,59
 1 32 1 32 1 47 c 0,60,61
 1 52 1 52 2 57 c 2,0,-1
EndSplineSet
EndChar
StartChar: l
Encoding: 108 108 77
Width: 436
GlyphClass: 2
Flags: W
LayerCount: 2
Back
Fore
SplineSet
2 49 m 2,0,-1
 279 1358 l 1,1,2
 285 1381 285 1381 304.5 1397 c 128,-1,3
 324 1413 324 1413 348 1413 c 1,4,5
 371 1412 371 1412 384 1396 c 0,6,7
 394 1383 394 1383 394 1368 c 0,8,9
 394 1363 394 1363 393 1358 c 2,10,-1
 117 49 l 1,11,12
 109 26 109 26 90.5 13 c 128,-1,13
 72 0 72 0 49 0 c 256,14,15
 26 0 26 0 13 14 c 0,16,17
 2 26 2 26 2 43 c 0,18,19
 2 46 2 46 2 49 c 2,0,-1
EndSplineSet
EndChar
StartChar: m
Encoding: 109 109 78
Width: 1693
GlyphClass: 2
Flags: W
LayerCount: 2
Back
Fore
SplineSet
2 55 m 2,0,-1
 197 965 l 2,1,2
 201 988 201 988 222.5 1005 c 128,-1,3
 244 1022 244 1022 266 1022 c 0,4,5
 291 1022 291 1022 303 1004.5 c 128,-1,6
 315 987 315 987 311 965 c 2,7,-1
 262 741 l 1,8,9
 315 798 315 798 373.5 852.5 c 128,-1,10
 432 907 432 907 491.5 950 c 128,-1,11
 551 993 551 993 608.5 1020 c 128,-1,12
 666 1047 666 1047 719 1047 c 0,13,14
 758 1047 758 1047 796 1037.5 c 128,-1,15
 834 1028 834 1028 864.5 1002.5 c 128,-1,16
 895 977 895 977 914.5 933 c 128,-1,17
 934 889 934 889 934 821 c 1,18,19
 1028 925 1028 925 1138.5 986 c 128,-1,20
 1249 1047 1249 1047 1333 1047 c 0,21,22
 1380 1047 1380 1047 1426.5 1031.5 c 128,-1,23
 1473 1016 1473 1016 1504.5 975 c 128,-1,24
 1536 934 1536 934 1546 860 c 0,25,26
 1549 838 1549 838 1549 813 c 0,27,28
 1549 752 1549 752 1532 670 c 2,29,-1
 1401 55 l 2,30,31
 1397 32 1397 32 1376.5 16 c 128,-1,32
 1356 0 1356 0 1333 0 c 256,33,34
 1310 0 1310 0 1296 16.5 c 128,-1,35
 1282 33 1282 33 1286 55 c 2,36,-1
 1419 684 l 2,37,38
 1434 758 1434 758 1434 806 c 0,39,40
 1434 814 1434 814 1434 824 c 0,41,42
 1430 876 1430 876 1411.5 903 c 128,-1,43
 1393 930 1393 930 1366 938 c 128,-1,44
 1339 946 1339 946 1313 946 c 0,45,46
 1270 946 1270 946 1207.5 921.5 c 128,-1,47
 1145 897 1145 897 1081.5 850 c 128,-1,48
 1018 803 1018 803 966.5 734.5 c 128,-1,49
 915 666 915 666 897 580 c 2,50,-1
 784 55 l 2,51,52
 780 32 780 32 760.5 16 c 128,-1,53
 741 0 741 0 717 0 c 0,54,55
 694 0 694 0 680 16.5 c 128,-1,56
 666 33 666 33 670 55 c 2,57,-1
 803 684 l 2,58,59
 818 756 818 756 818 804 c 0,60,61
 818 814 818 814 817 824 c 0,62,63
 813 876 813 876 795.5 903 c 128,-1,64
 778 930 778 930 751.5 938 c 128,-1,65
 725 946 725 946 698 946 c 0,66,67
 632 946 632 946 516.5 870.5 c 128,-1,68
 401 795 401 795 264 629 c 0,69,70
 252 615 252 615 244 599.5 c 128,-1,71
 236 584 236 584 231 571 c 0,72,73
 225 557 225 557 221 543 c 2,74,-1
 117 55 l 2,75,76
 113 32 113 32 92.5 16 c 128,-1,77
 72 0 72 0 49 0 c 256,78,79
 26 0 26 0 12 16 c 0,80,81
 1 29 1 29 1 45 c 0,82,83
 1 50 1 50 2 55 c 2,0,-1
EndSplineSet
EndChar
StartChar: n
Encoding: 110 110 15
Width: 535
Flags: MW
HStem: 0 21G<30.5 46.5 380.5 396> 445 54<342 416.5> 480 20G<136.5 151.5>
LayerCount: 2
Back
Fore
SplineSet
166 473 m 2xa0
 128 292 l 1
 172 406 273 499 379 499 c 0
 523 499 492 351 420 29 c 0
 416 13 404 0 388 0 c 0
 373 0 363 13 366 28 c 0
 420 305 469 445 364 445 c 0xc0
 320 445 263 424 189 326 c 0
 142 264 105 181 89 111 c 2
 71 30 l 2
 67 13 55 0 38 0 c 0
 23 0 12 12 15 26 c 2
 110 473 l 2
 113 488 129 500 144 500 c 0
 159 500 169 488 166 473 c 2xa0
EndSplineSet
EndChar
StartChar: o
Encoding: 111 111 80
Width: 1056
GlyphClass: 2
Flags: W
LayerCount: 2
Back
Fore
SplineSet
6 290 m 0,0,1
 1 322 1 322 1 356 c 0,2,3
 1 432 1 432 25 516 c 0,4,5
 54 620 54 620 114 712.5 c 128,-1,6
 174 805 174 805 254 874.5 c 128,-1,7
 334 944 334 944 425 984 c 128,-1,8
 516 1024 516 1024 608 1024 c 0,9,10
 684 1024 684 1024 747.5 994.5 c 128,-1,11
 811 965 811 965 854 911 c 0,12,13
 912 837 912 837 928 732 c 0,14,15
 933 700 933 700 933 666 c 0,16,17
 933 590 933 590 909 508 c 1,18,19
 880 404 880 404 820 310.5 c 128,-1,20
 760 217 760 217 681 148.5 c 128,-1,21
 602 80 602 80 511 40 c 128,-1,22
 420 0 420 0 328 0 c 0,23,24
 172 0 172 0 80 111 c 1,25,26
 22 185 22 185 6 290 c 0,0,1
122 322 m 0,27,28
 132 232 132 232 180 174 c 1,29,30
 239 98 239 98 348 98 c 0,31,32
 416 98 416 98 485.5 132 c 128,-1,33
 555 166 555 166 616.5 223.5 c 128,-1,34
 678 281 678 281 725 356.5 c 128,-1,35
 772 432 772 432 795 516 c 0,36,37
 812 577 812 577 812 635 c 0,38,39
 812 670 812 670 806 702 c 0,40,41
 790 792 790 792 743 848 c 1,42,43
 684 926 684 926 578 926 c 0,44,45
 510 926 510 926 441.5 892 c 128,-1,46
 373 858 373 858 313.5 800.5 c 128,-1,47
 254 743 254 743 209 667.5 c 128,-1,48
 164 592 164 592 139 508 c 1,49,50
 120 439 120 439 120 373 c 1,51,52
 119 347 119 347 122 322 c 0,27,28
EndSplineSet
EndChar
StartChar: p
Encoding: 112 112 17
Width: 520
Flags: MW
HStem: -195 21G<-11.5 3.5> 8 57<185.5 276 185.5 285> 451 49<315.5 360>
LayerCount: 2
Back
Fore
SplineSet
360 500 m 1
 470 495 495 381 473 276 c 0
 449 162 373 8 197 8 c 0
 145 8 102 24 73 36 c 1
 30 -167 l 2
 27 -182 11 -195 -4 -195 c 0
 -19 -195 -29 -182 -26 -167 c 2
 110 471 l 2
 113 487 128 500 144 500 c 0
 160 500 169 487 166 471 c 2
 157 431 l 1
 206 469 271 500 360 500 c 1
215 65 m 0
 337 65 398 156 423 276 c 0
 436 338 435 451 341 451 c 0
 236 451 165 388 143 363 c 1
 87 99 l 1
 104 90 156 65 215 65 c 0
EndSplineSet
EndChar
StartChar: q
Encoding: 113 113 82
Width: 1087
GlyphClass: 2
Flags: W
LayerCount: 2
Back
Fore
SplineSet
2 297 m 0,0,1
 1 311 1 311 1 325 c 0,2,3
 1 408 1 408 31 496 c 1,4,5
 121 770 121 770 322 899 c 1,6,7
 484 1001 484 1001 688 1001 c 0,8,9
 760 1001 760 1001 831 989 c 1,10,-1
 838 987 l 1,11,-1
 842 1006 l 2,12,13
 846 1029 846 1029 866.5 1045 c 128,-1,14
 887 1061 887 1061 909 1061 c 0,15,16
 932 1061 932 1061 944 1046 c 0,17,18
 953 1034 953 1034 953 1019 c 0,19,20
 953 1014 953 1014 952 1008 c 1,21,-1
 952 1006 l 1,22,-1
 621 -330 l 1,23,-1
 621 -334 l 1,24,25
 617 -357 617 -357 596 -372 c 128,-1,26
 575 -387 575 -387 553 -387 c 0,27,28
 530 -387 530 -387 517 -369.5 c 128,-1,29
 504 -352 504 -352 508 -330 c 1,30,-1
 508 -332 l 1,31,-1
 508 -334 l 1,32,33
 508 -334 508 -334 510 -330 c 2,34,-1
 623 125 l 1,35,36
 598 86 598 86 559 55 c 0,37,38
 524 28 524 28 472 8 c 128,-1,39
 420 -12 420 -12 348 -12 c 2,40,-1
 326 -12 l 1,41,42
 138 -2 138 -2 53 129 c 1,43,44
 8 201 8 201 2 297 c 0,0,1
106 326 m 0,45,46
 111 250 111 250 145 197 c 0,47,48
 215 90 215 90 352 90 c 0,49,50
 475 90 475 90 560 153.5 c 128,-1,51
 645 217 645 217 678 336 c 1,52,-1
 813 887 l 1,53,-1
 809 887 l 1,54,55
 735 899 735 899 668 899 c 0,56,57
 492 899 492 899 367 817 c 0,58,59
 287 764 287 764 226.5 681 c 128,-1,60
 166 598 166 598 131 483 c 1,61,62
 106 414 106 414 106 347 c 0,63,64
 106 337 106 337 106 326 c 0,45,46
EndSplineSet
EndChar
StartChar: r
Encoding: 114 114 19
Width: 416
Flags: MW
HStem: 0 21G<31 45.5> 447 55<302 340.5>
LayerCount: 2
Back
Fore
SplineSet
410 422 m 2
 403 389 l 2
 400 374 385 362 369 362 c 0
 349 362 347 377 349 390 c 2
 355 415 l 2
 358 432 355 447 326 447 c 0
 278 447 224 407 176 357 c 0
 152 332 127 285 120 253 c 2
 71 26 l 2
 68 12 53 0 38 0 c 0
 24 0 12 12 15 26 c 2
 110 472 l 2
 113 487 129 499 144 499 c 0
 160 499 170 487 167 472 c 2
 146 376 l 1
 188 430 258 502 346 502 c 0
 409 502 418 458 410 422 c 2
EndSplineSet
EndChar
StartChar: s
Encoding: 115 115 84
Width: 948
GlyphClass: 2
Flags: W
LayerCount: 2
Back
Fore
SplineSet
-39 262 m 0,0,1
 -35 280 -35 280 -20.5 295.5 c 128,-1,2
 -6 311 -6 311 12 315 c 0,3,4
 41 321 41 321 55.5 310 c 128,-1,5
 70 299 70 299 72 279 c 0,6,7
 82 197 82 197 142.5 150.5 c 128,-1,8
 203 104 203 104 301 104 c 0,9,10
 369 104 369 104 420 124.5 c 128,-1,11
 471 145 471 145 505 174 c 128,-1,12
 539 203 539 203 558.5 233.5 c 128,-1,13
 578 264 578 264 582 287 c 0,14,15
 588 316 588 316 589 339 c 128,-1,16
 590 362 590 362 573 385 c 1,17,18
 538 438 538 438 383 489 c 1,19,20
 229 536 229 536 169 603 c 0,21,22
 125 652 125 652 125 723 c 0,23,24
 125 749 125 749 131 778 c 0,25,26
 145 852 145 852 189 899 c 128,-1,27
 233 946 233 946 290.5 973.5 c 128,-1,28
 348 1001 348 1001 411.5 1011.5 c 128,-1,29
 475 1022 475 1022 530 1022 c 0,30,31
 727 1022 727 1022 784 922 c 1,32,33
 798 894 798 894 802 866 c 0,34,35
 804 851 804 851 803 836 c 0,36,37
 803 824 803 824 802 812 c 0,38,39
 799 786 799 786 792.5 767 c 128,-1,40
 786 748 786 748 782 739 c 0,41,42
 772 719 772 719 752.5 706.5 c 128,-1,43
 733 694 733 694 715 698 c 0,44,45
 692 702 692 702 683 717.5 c 128,-1,46
 674 733 674 733 678 754 c 0,47,48
 680 760 680 760 684 772 c 128,-1,49
 688 784 688 784 691 799.5 c 128,-1,50
 694 815 694 815 693 832.5 c 128,-1,51
 692 850 692 850 682 866 c 0,52,53
 647 919 647 919 516 920 c 0,54,55
 463 920 463 920 414 910.5 c 128,-1,56
 365 901 365 901 330 883 c 1,57,58
 252 846 252 846 238 776 c 0,59,60
 234 759 234 759 234 745 c 0,61,62
 234 722 234 722 244 704 c 0,63,64
 260 674 260 674 289.5 652.5 c 128,-1,65
 319 631 319 631 354 617.5 c 128,-1,66
 389 604 389 604 418 596 c 1,67,68
 486 573 486 573 542 550.5 c 128,-1,69
 598 528 598 528 637 494 c 1,70,71
 676 462 676 462 692 412 c 0,72,73
 699 388 699 388 699 358 c 0,74,75
 699 325 699 325 690 285 c 0,76,77
 678 234 678 234 643 182.5 c 128,-1,78
 608 131 608 131 554 89 c 128,-1,79
 500 47 500 47 429.5 21.5 c 128,-1,80
 359 -4 359 -4 279 -4 c 0,81,82
 185 -4 185 -4 121 27.5 c 128,-1,83
 57 59 57 59 20 102 c 0,84,85
 -16 144 -16 144 -30 190 c 0,86,87
 -40 222 -40 222 -41 245 c 0,88,89
 -41 254 -41 254 -39 262 c 0,0,1
EndSplineSet
EndChar
StartChar: t
Encoding: 116 116 85
Width: 714
GlyphClass: 2
Flags: W
LayerCount: 2
Back
Fore
SplineSet
2 967 m 0,0,1
 6 992 6 992 27.5 1008 c 128,-1,2
 49 1024 49 1024 72 1024 c 2,3,-1
 76 1024 l 1,4,-1
 311 1024 l 1,5,-1
 373 1317 l 1,6,-1
 373 1319 l 1,7,8
 379 1342 379 1342 399.5 1359 c 128,-1,9
 420 1376 420 1376 442 1376 c 0,10,11
 467 1376 467 1376 480.5 1358.5 c 128,-1,12
 494 1341 494 1341 487 1319 c 1,13,-1
 487 1317 l 1,14,-1
 426 1024 l 1,15,-1
 664 1024 l 1,16,-1
 668 1024 l 2,17,18
 693 1024 693 1024 705 1008 c 0,19,20
 714 996 714 996 714 979 c 0,21,22
 714 973 714 973 713 967 c 0,23,24
 709 944 709 944 688.5 926.5 c 128,-1,25
 668 909 668 909 643 909 c 2,26,-1
 401 909 l 1,27,-1
 219 53 l 2,28,29
 215 30 215 30 193.5 14 c 128,-1,30
 172 -2 172 -2 150 -2 c 0,31,32
 127 -2 127 -2 113.5 14.5 c 128,-1,33
 100 31 100 31 104 53 c 2,34,-1
 287 909 l 1,35,-1
 47 909 l 1,36,37
 22 912 22 912 10 928 c 0,38,39
 1 940 1 940 1 956 c 0,40,41
 1 961 1 961 2 967 c 0,0,1
EndSplineSet
EndChar
StartChar: u
Encoding: 117 117 22
Width: 512
Flags: MW
HStem: -3 49<121.5 199.5> 0 21G<352.5 370> 480 20G<149 163.5 465 479>
LayerCount: 2
Back
Fore
SplineSet
492 475 m 2xa0
 397 28 l 2
 394 13 378 0 362 0 c 0x60
 343 0 334 15 338 33 c 2
 347 76 l 1
 314 40 238 -3 161 -3 c 0
 9 -3 42 143 72 291 c 0
 88 368 108 428 122 466 c 0
 132 495 142 500 156 500 c 0
 171 500 182 489 178 474 c 0
 171 450 146 384 127 292 c 0
 101 170 72 46 171 46 c 0
 240 46 320 94 347 118 c 0
 363 133 369 161 369 161 c 1
 440 475 l 2
 444 490 458 500 472 500 c 0
 486 500 496 490 492 475 c 2xa0
EndSplineSet
EndChar
StartChar: v
Encoding: 118 118 87
Width: 978
GlyphClass: 2
Flags: W
LayerCount: 2
Back
Fore
SplineSet
84 946 m 1,0,1
 82 950 82 950 82 955 c 128,-1,2
 82 960 82 960 84 965 c 1,3,4
 88 990 88 990 109.5 1006 c 128,-1,5
 131 1022 131 1022 156 1022 c 0,6,7
 176 1022 176 1022 188.5 1009.5 c 128,-1,8
 201 997 201 997 201 979 c 1,9,-1
 344 193 l 1,10,-1
 829 989 l 1,11,12
 854 1024 854 1024 891 1024 c 0,13,14
 914 1024 914 1024 927 1006 c 0,15,16
 937 993 937 993 937 977 c 0,17,18
 937 972 937 972 936 967 c 0,19,20
 932 951 932 951 924 942 c 1,21,-1
 369 39 l 1,22,23
 349 -2 349 -2 303 -2 c 0,24,25
 285 -2 285 -2 273.5 10.5 c 128,-1,26
 262 23 262 23 260 39 c 1,27,-1
 84 946 l 1,0,1
EndSplineSet
EndChar
StartChar: w
Encoding: 119 119 88
Width: 1325
GlyphClass: 2
Flags: W
LayerCount: 2
Back
Fore
SplineSet
104 49 m 1,0,-1
 104 950 l 2,1,2
 104 960 104 960 106 967 c 0,3,4
 110 990 110 990 131 1007 c 128,-1,5
 152 1024 152 1024 174 1024 c 0,6,7
 197 1024 197 1024 210 1009.5 c 128,-1,8
 223 995 223 995 219 973 c 1,9,-1
 209 213 l 1,10,-1
 637 981 l 2,11,12
 645 997 645 997 664.5 1010.5 c 128,-1,13
 684 1024 684 1024 707 1024 c 256,14,15
 730 1024 730 1024 742 1007.5 c 128,-1,16
 754 991 754 991 754 971 c 2,17,-1
 754 961 l 1,18,-1
 776 203 l 1,19,-1
 1171 977 l 1,20,21
 1179 995 1179 995 1198 1008.5 c 128,-1,22
 1217 1022 1217 1022 1237 1022 c 0,23,24
 1260 1022 1260 1022 1273 1005 c 0,25,26
 1283 992 1283 992 1283 975 c 0,27,28
 1283 970 1283 970 1282 965 c 1,29,30
 1280 961 1280 961 1278 955.5 c 128,-1,31
 1276 950 1276 950 1274 946 c 2,32,-1
 793 45 l 1,33,34
 781 8 781 8 741 2 c 0,35,36
 735 1 735 1 729 1 c 0,37,38
 712 0 712 0 699 10 c 0,39,40
 682 22 682 22 682 45 c 2,41,-1
 651 801 l 1,42,-1
 217 43 l 1,43,-1
 215 43 l 1,44,45
 199 8 199 8 164 2 c 0,46,47
 158 1 158 1 153 1 c 0,48,49
 134 0 134 0 120 12 c 0,50,51
 102 26 102 26 104 49 c 1,0,-1
EndSplineSet
EndChar
StartChar: x
Encoding: 120 120 89
Width: 1177
GlyphClass: 2
Flags: W
LayerCount: 2
Back
Fore
SplineSet
-79 59 m 0,0,1
 -74 84 -74 84 -53 100 c 1,2,-1
 455 528 l 1,3,-1
 207 926 l 1,4,5
 193 942 193 942 198 966.5 c 128,-1,6
 203 991 203 991 223 1008 c 0,7,8
 243 1024 243 1024 266 1024 c 128,-1,9
 289 1024 289 1024 303 1008 c 1,10,-1
 314 990 l 2,11,12
 326 971 326 971 343 942 c 128,-1,13
 360 913 360 913 383 877.5 c 128,-1,14
 406 842 406 842 428 803 c 0,15,16
 481 713 481 713 551 600 c 1,17,-1
 1024 1004 l 2,18,19
 1044 1020 1044 1020 1068 1020 c 128,-1,20
 1092 1020 1092 1020 1106 1004 c 1,21,22
 1114 993 1114 993 1114 978 c 0,23,24
 1114 971 1114 971 1112 964 c 0,25,26
 1106 940 1106 940 1087 924 c 2,27,28
 1087 924 1087 924 1066 906 c 1,29,30
 1044 889 1044 889 1010.5 860 c 128,-1,31
 977 831 977 831 935 795.5 c 128,-1,32
 893 760 893 760 848 723 c 2,33,-1
 610 522 l 1,34,-1
 877 92 l 2,35,36
 887 76 887 76 880.5 54.5 c 128,-1,37
 874 33 874 33 856 16 c 1,38,39
 836 0 836 0 812 0 c 128,-1,40
 788 0 788 0 774 16 c 1,41,-1
 512 451 l 1,42,43
 373 332 373 332 262 236 c 0,44,45
 215 195 215 195 170 156 c 128,-1,46
 125 117 125 117 89 86 c 128,-1,47
 53 55 53 55 30 36 c 2,48,-1
 8 18 l 2,49,50
 -12 2 -12 2 -34.5 2 c 128,-1,51
 -57 2 -57 2 -72 18 c 1,52,53
 -80 29 -80 29 -80 45 c 0,54,55
 -80 52 -80 52 -79 59 c 0,0,1
EndSplineSet
EndChar
StartChar: y
Encoding: 121 121 90
Width: 1001
GlyphClass: 2
Flags: W
LayerCount: 2
Back
Fore
SplineSet
2 -344 m 0,0,1
 6 -328 6 -328 12 -322 c 1,2,-1
 12 -319 l 1,3,-1
 309 125 l 1,4,-1
 80 934 l 1,5,6
 76 940 76 940 77 948 c 128,-1,7
 78 956 78 956 80 965 c 0,8,9
 84 990 84 990 104.5 1007 c 128,-1,10
 125 1024 125 1024 150 1024 c 0,11,12
 191 1024 191 1024 197 985 c 1,13,-1
 401 260 l 1,14,-1
 891 989 l 2,15,16
 901 1005 901 1005 917.5 1015.5 c 128,-1,17
 934 1026 934 1026 954 1026 c 0,18,19
 977 1026 977 1026 990 1008 c 1,20,21
 1000 996 1000 996 1000 979 c 0,22,23
 1000 973 1000 973 999 967 c 0,24,25
 997 961 997 961 995 955.5 c 128,-1,26
 993 950 993 950 989 944 c 2,27,-1
 109 -367 l 2,28,29
 99 -383 99 -383 83.5 -393 c 128,-1,30
 68 -403 68 -403 47 -403 c 0,31,32
 24 -403 24 -403 10 -386 c 0,33,34
 0 -374 0 -374 0 -358 c 0,35,36
 0 -352 0 -352 2 -344 c 0,0,1
EndSplineSet
EndChar
StartChar: z
Encoding: 122 122 27
Width: 509
Flags: MW
HStem: 0 56<87 376> 445 56<120 477 140 412>
LayerCount: 2
Back
Fore
SplineSet
409 28 m 0
 406 13 391 0 376 0 c 2
 23 0 l 2
 8 0 -3 13 0 28 c 0
 2 35 5 40 10 45 c 2
 412 445 l 1
 128 445 l 2
 112 445 103 457 106 473 c 0
 109 488 124 501 140 501 c 2
 477 501 l 2
 492 501 502 488 499 473 c 0
 498 466 496 462 489 456 c 2
 87 56 l 1
 387 56 l 2
 402 56 413 43 409 28 c 0
EndSplineSet
EndChar
StartChar: braceleft
Encoding: 123 123 92
Width: 808
GlyphClass: 2
Flags: W
LayerCount: 2
Back
Fore
SplineSet
2 717 m 0,0,1
 8 746 8 746 37 762 c 0,2,3
 45 766 45 766 47 768 c 1,4,5
 108 791 108 791 144 823.5 c 128,-1,6
 180 856 180 856 198.5 887 c 128,-1,7
 217 918 217 918 223 940.5 c 128,-1,8
 229 963 229 963 229 965 c 2,9,-1
 229 969 l 1,10,-1
 311 1356 l 1,11,12
 325 1430 325 1430 363 1481 c 128,-1,13
 401 1532 401 1532 450.5 1568 c 128,-1,14
 500 1604 500 1604 555 1623 c 128,-1,15
 610 1642 610 1642 659 1653 c 1,16,-1
 670 1653 l 1,17,18
 674 1655 674 1655 680 1655 c 0,19,20
 703 1655 703 1655 716 1638.5 c 128,-1,21
 729 1622 729 1622 725 1599 c 256,22,23
 721 1576 721 1576 703.5 1562 c 128,-1,24
 686 1548 686 1548 666 1544 c 1,25,-1
 659 1544 l 1,26,27
 630 1538 630 1538 593.5 1527 c 128,-1,28
 557 1516 557 1516 522 1494.5 c 128,-1,29
 487 1473 487 1473 459.5 1439 c 128,-1,30
 432 1405 432 1405 422 1356 c 2,31,-1
 340 971 l 2,32,33
 336 948 336 948 325.5 916.5 c 128,-1,34
 315 885 315 885 294.5 851 c 128,-1,35
 274 817 274 817 242.5 782.5 c 128,-1,36
 211 748 211 748 166 717 c 1,37,38
 201 684 201 684 217 648 c 128,-1,39
 233 612 233 612 238 582 c 0,40,41
 246 539 246 539 241 506 c 128,-1,42
 236 473 236 473 233 463 c 2,43,-1
 143 45 l 2,44,45
 133 -4 133 -4 146.5 -38 c 128,-1,46
 160 -72 160 -72 185.5 -93.5 c 128,-1,47
 211 -115 211 -115 242.5 -126 c 128,-1,48
 274 -137 274 -137 301 -143 c 1,49,-1
 307 -143 l 1,50,51
 325 -147 325 -147 335.5 -161.5 c 128,-1,52
 346 -176 346 -176 342 -199 c 256,53,54
 338 -222 338 -222 317.5 -238 c 128,-1,55
 297 -254 297 -254 274 -254 c 0,56,57
 268 -254 268 -254 264 -252 c 1,58,-1
 254 -252 l 1,59,60
 209 -244 209 -244 163 -223.5 c 128,-1,61
 117 -203 117 -203 83 -167 c 128,-1,62
 49 -131 49 -131 32.5 -80 c 128,-1,63
 16 -29 16 -29 33 45 c 1,64,-1
 123 465 l 1,65,-1
 123 469 l 1,66,67
 125 471 125 471 129 493.5 c 128,-1,68
 133 516 133 516 127 547 c 128,-1,69
 121 578 121 578 99.5 610.5 c 128,-1,70
 78 643 78 643 29 666 c 1,71,72
 23 666 23 666 16 672 c 0,73,74
 -4 686 -4 686 2 717 c 0,0,1
EndSplineSet
EndChar
StartChar: bar
Encoding: 124 124 93
Width: 193
Flags: MW
HStem: -168 21G<-2.5 13> 820 20G<211.5 227>
LayerCount: 2
Back
Fore
SplineSet
5 -168 m 0
 -10 -168 -21 -156 -17 -140 c 2
 185 812 l 2
 188 827 204 840 219 840 c 0
 235 840 244 827 241 812 c 2
 39 -140 l 2
 35 -156 21 -168 5 -168 c 0
EndSplineSet
EndChar
StartChar: braceright
Encoding: 125 125 94
Width: 808
GlyphClass: 2
Flags: W
LayerCount: 2
Back
Fore
SplineSet
2 -198 m 256,0,1
 6 -175 6 -175 23.5 -161 c 128,-1,2
 41 -147 41 -147 61 -143 c 1,3,-1
 68 -143 l 1,4,5
 97 -137 97 -137 133.5 -126 c 128,-1,6
 170 -115 170 -115 205 -93.5 c 128,-1,7
 240 -72 240 -72 267.5 -38 c 128,-1,8
 295 -4 295 -4 305 45 c 2,9,-1
 387 430 l 2,10,11
 391 453 391 453 401.5 484.5 c 128,-1,12
 412 516 412 516 432.5 550 c 128,-1,13
 453 584 453 584 484.5 618.5 c 128,-1,14
 516 653 516 653 561 684 c 1,15,16
 526 717 526 717 510 753 c 128,-1,17
 494 789 494 789 489 819 c 0,18,19
 481 862 481 862 486 895 c 128,-1,20
 491 928 491 928 494 938 c 2,21,-1
 584 1356 l 2,22,23
 594 1405 594 1405 580.5 1439 c 128,-1,24
 567 1473 567 1473 541.5 1494.5 c 128,-1,25
 516 1516 516 1516 484.5 1527 c 128,-1,26
 453 1538 453 1538 426 1544 c 1,27,-1
 420 1544 l 1,28,29
 402 1548 402 1548 391.5 1562.5 c 128,-1,30
 381 1577 381 1577 385 1600 c 256,31,32
 389 1623 389 1623 409.5 1639 c 128,-1,33
 430 1655 430 1655 453 1655 c 0,34,35
 459 1655 459 1655 463 1653 c 1,36,-1
 473 1653 l 1,37,38
 518 1645 518 1645 564 1624.5 c 128,-1,39
 610 1604 610 1604 644 1568 c 128,-1,40
 678 1532 678 1532 694.5 1481 c 128,-1,41
 711 1430 711 1430 694 1356 c 1,42,-1
 604 936 l 1,43,-1
 604 932 l 1,44,45
 602 930 602 930 598 907.5 c 128,-1,46
 594 885 594 885 600 854 c 128,-1,47
 606 823 606 823 627.5 790.5 c 128,-1,48
 649 758 649 758 698 735 c 1,49,50
 704 735 704 735 711 729 c 0,51,52
 731 715 731 715 725 684 c 0,53,54
 719 655 719 655 690 639 c 0,55,56
 682 635 682 635 680 633 c 1,57,58
 619 610 619 610 583 577.5 c 128,-1,59
 547 545 547 545 528.5 514 c 128,-1,60
 510 483 510 483 504 460.5 c 128,-1,61
 498 438 498 438 498 436 c 2,62,-1
 498 432 l 1,63,-1
 416 45 l 1,64,65
 402 -29 402 -29 364 -80 c 128,-1,66
 326 -131 326 -131 276.5 -167 c 128,-1,67
 227 -203 227 -203 172 -222 c 128,-1,68
 117 -241 117 -241 68 -252 c 1,69,-1
 57 -252 l 1,70,71
 53 -254 53 -254 47 -254 c 0,72,73
 24 -254 24 -254 11 -237.5 c 128,-1,74
 -2 -221 -2 -221 2 -198 c 256,0,1
EndSplineSet
EndChar
StartChar: asciitilde
Encoding: 126 126 95
Width: 1167
GlyphClass: 2
Flags: W
LayerCount: 2
Back
Fore
SplineSet
2 432 m 1,0,1
 4 436 4 436 6 442.5 c 128,-1,2
 8 449 8 449 10 453 c 2,3,-1
 14 459 l 1,4,5
 26 479 26 479 40.5 502.5 c 128,-1,6
 55 526 55 526 76 551 c 1,7,8
 205 721 205 721 367 721 c 0,9,10
 414 721 414 721 448.5 705.5 c 128,-1,11
 483 690 483 690 507.5 664.5 c 128,-1,12
 532 639 532 639 549.5 608.5 c 128,-1,13
 567 578 567 578 584 547 c 0,14,15
 617 488 617 488 645.5 453 c 128,-1,16
 674 418 674 418 723 418 c 0,17,18
 764 418 764 418 802 440.5 c 128,-1,19
 840 463 840 463 872.5 495.5 c 128,-1,20
 905 528 905 528 930.5 565 c 128,-1,21
 956 602 956 602 973 631 c 1,22,-1
 979 645 l 1,23,24
 989 661 989 661 1005.5 671.5 c 128,-1,25
 1022 682 1022 682 1038 682 c 0,26,27
 1061 682 1061 682 1074 665.5 c 128,-1,28
 1087 649 1087 649 1083 627 c 1,29,30
 1081 623 1081 623 1080 617.5 c 128,-1,31
 1079 612 1079 612 1077 608 c 2,32,-1
 1069 596 l 1,33,34
 1049 559 1049 559 1014 509 c 128,-1,35
 979 459 979 459 932 415 c 128,-1,36
 885 371 885 371 825.5 339 c 128,-1,37
 766 307 766 307 698 307 c 0,38,39
 651 307 651 307 617.5 322.5 c 128,-1,40
 584 338 584 338 559.5 363.5 c 128,-1,41
 535 389 535 389 516.5 421 c 128,-1,42
 498 453 498 453 481 483 c 1,43,44
 450 542 450 542 421.5 576 c 128,-1,45
 393 610 393 610 344 610 c 0,46,47
 303 610 303 610 267 590.5 c 128,-1,48
 231 571 231 571 201.5 542.5 c 128,-1,49
 172 514 172 514 148.5 482.5 c 128,-1,50
 125 451 125 451 111 424 c 1,51,-1
 109 418 l 1,52,53
 89 377 89 377 47 377 c 0,54,55
 24 377 24 377 11 393.5 c 128,-1,56
 -2 410 -2 410 2 432 c 1,0,1
EndSplineSet
EndChar
StartChar: exclamdown
Encoding: 161 161 145
Width: 196
Flags: MW
HStem: -197 21G<-20 -4> 413 83<109.5 154.5>
LayerCount: 2
Back
Fore
SplineSet
126 315 m 2
 23 -167 l 2
 20 -183 4 -197 -12 -197 c 0
 -28 -197 -38 -183 -35 -167 c 2
 68 315 l 2
 72 331 88 344 104 344 c 0
 120 344 130 331 126 315 c 2
95 449 m 0
 101 476 125 496 145 496 c 0
 164 496 174 480 169 459 c 0
 164 435 140 413 119 413 c 0
 100 413 91 430 95 449 c 0
EndSplineSet
EndChar
StartChar: cent
Encoding: 162 162 99
Width: 556
Flags: MW
HStem: 0 21G<209 223> 671 20G<373.5 387>
LayerCount: 2
Back
Fore
SplineSet
450 238 m 0
 465 238 474 225 471 210 c 0
 470 203 466 198 460 192 c 0
 411 139 338 99 264 99 c 1
 246 24 l 2
 243 11 230 0 216 0 c 0
 202 0 193 12 196 26 c 2
 214 103 l 1
 79 138 71 249 85 314 c 0
 109 428 206 558 333 595 c 1
 350 666 l 2
 353 680 367 691 380 691 c 0
 394 691 403 678 400 665 c 2
 384 598 l 1
 439 600 513 545 506 510 c 0
 503 495 488 483 473 483 c 0
 464 483 458 486 454 492 c 0
 438 524 408 543 371 546 c 1
 277 151 l 1
 332 154 383 180 421 221 c 0
 425 225 436 238 450 238 c 0
139 316 m 0
 123 242 159 179 228 156 c 1
 319 540 l 1
 205 488 150 369 139 316 c 0
EndSplineSet
EndChar
StartChar: sterling
Encoding: 163 163 98
Width: 744
Flags: MW
HStem: -10 54<459.5 491> 0 21G<90.5 107.5> 71 54<266.5 273.5> 327 54<97.5 207 116 206 262 487> 510 216<440 664.5> 672 54<442.5 550.5>
VStem: 207 55<381 381> 632 55
LayerCount: 2
Back
Fore
SplineSet
633 157 m 0xb7
 653 157 659 138 650 119 c 0
 599 7 514 -10 468 -10 c 0xbb
 416 -10 362 11 317 51 c 0
 301 65 283 71 264 71 c 0
 188 71 117 0 98 0 c 0
 83 0 73 12 76 27 c 0
 78 36 84 44 92 49 c 0
 155 91 195 159 206 211 c 0
 214 249 207 294 206 327 c 1
 105 327 l 2
 90 327 81 340 84 354 c 0
 87 369 101 381 116 381 c 2
 207 381 l 1
 209 417 213 451 220 482 c 0
 254 644 355 726 525 726 c 0
 656 726 685 625 687 547 c 0
 688 527 675 510 654 510 c 0x7b
 640 510 631 520 632 537 c 0
 634 622 588 672 513 672 c 0
 372 672 302 615 274 482 c 0
 268 452 263 418 262 381 c 1
 498 381 l 2
 513 381 523 369 520 354 c 0
 517 340 502 327 487 327 c 2
 261 327 l 1
 261 291 269 252 260 211 c 0
 254 183 241 145 221 117 c 1
 240 122 258 125 275 125 c 0
 308 125 337 114 359 94 c 0
 394 61 439 44 480 44 c 0
 532 44 574 72 599 130 c 0
 607 148 620 157 633 157 c 0xb7
EndSplineSet
EndChar
StartChar: currency
Encoding: 164 164 205
Width: 517
Flags: MW
HStem: 44 21G<23.5 33.5 393 403.5> 441 20G<111 121.5 480.5 491>
LayerCount: 2
Back
Fore
SplineSet
368 159 m 1
 423 88 l 2
 427 83 428 76 426 70 c 0
 424 57 411 44 396 44 c 0
 390 44 383 47 380 52 c 2
 324 122 l 1
 293 103 259 91 223 91 c 0
 188 91 157 103 135 122 c 1
 50 52 l 2
 44 47 37 44 30 44 c 0
 17 44 6 56 9 70 c 0
 11 76 15 83 21 88 c 2
 107 159 l 1
 95 185 91 217 98 251 c 0
 105 286 123 319 149 345 c 1
 91 418 l 2
 87 423 86 429 87 436 c 0
 90 450 104 461 118 461 c 0
 125 461 131 459 135 454 c 2
 192 381 l 1
 223 400 257 410 291 410 c 0
 326 410 356 400 377 381 c 1
 465 454 l 2
 471 459 477 461 484 461 c 0
 498 461 507 449 504 436 c 0
 503 429 499 423 493 418 c 2
 406 345 l 1
 419 319 424 286 417 251 c 0
 410 217 392 185 368 159 c 1
149 251 m 0
 136 191 175 142 234 142 c 0
 294 142 353 191 366 251 c 0
 379 311 340 359 280 359 c 0
 221 359 162 311 149 251 c 0
EndSplineSet
EndChar
StartChar: yen
Encoding: 165 165 80
Width: 573
Flags: MW
HStem: 0 188<212.5 228> 134 54<96.5 231 115 220 287 393 115 276> 288 54<129.5 243 148 243 148 253 343 426> 674 20G<556.5 568.5>
LayerCount: 2
Back
Fore
SplineSet
561 694 m 0xb0
 576 694 587 681 584 665 c 0
 583 661 581 656 578 652 c 2
 343 342 l 1
 437 342 l 2
 452 342 462 330 458 315 c 0
 455 300 441 288 426 288 c 2
 309 288 l 1
 287 188 l 1
 404 188 l 2
 419 188 429 176 426 161 c 0
 423 146 408 134 393 134 c 2
 276 134 l 1x70
 253 28 l 2
 250 13 236 0 220 0 c 0xb0
 205 0 194 13 197 28 c 2
 220 134 l 1
 104 134 l 2x70
 89 134 80 146 83 161 c 0
 86 176 100 188 115 188 c 2
 231 188 l 1
 253 288 l 1
 137 288 l 2
 122 288 112 300 115 315 c 0
 119 330 133 342 148 342 c 2
 243 342 l 1
 155 652 l 2
 154 656 154 660 155 664 c 0
 158 678 173 692 190 692 c 0
 200 692 208 687 210 677 c 2
 299 368 l 1
 534 679 l 2
 541 688 552 694 561 694 c 0xb0
EndSplineSet
EndChar
StartChar: section
Encoding: 167 167 125
Width: 457
Flags: MW
HStem: 0 53<212 285.5> 0 157<103.5 285.5> 486 158<349.5 489> 594 50<349.5 412.5>
LayerCount: 2
Back
Fore
SplineSet
463 284 m 0x90
 458 262 446 239 428 218 c 1
 438 199 440 174 433 141 c 0
 419 74 338 0 233 0 c 0
 110 0 71 96 78 130 c 0
 81 145 96 157 111 157 c 0x60
 124 157 131 149 132 138 c 0
 139 85 180 53 244 53 c 0
 333 53 374 110 382 147 c 0
 390 187 375 211 284 241 c 0
 185 273 146 311 161 382 c 0
 167 412 182 434 201 452 c 1
 188 472 184 496 190 525 c 0
 210 620 314 644 385 644 c 0
 486 644 531 600 517 532 c 0
 510 502 499 486 479 486 c 0xa0
 461 486 455 499 458 513 c 0
 458 516 462 524 464 533 c 0
 472 570 447 594 378 594 c 0
 307 594 251 569 242 524 c 0
 230 467 293 448 330 436 c 0
 417 406 484 384 463 284 c 0x90
212 381 m 0
 200 324 263 305 301 293 c 0
 337 281 371 269 395 253 c 1
 404 265 408 277 411 291 c 0
 424 350 367 364 301 389 c 0
 280 397 257 406 236 419 c 1
 223 408 216 396 212 381 c 0
EndSplineSet
EndChar
StartChar: dieresis
Encoding: 168 168 208
Width: 500
Flags: MW
HStem: 576 83<244 248.5 403 407.5>
LayerCount: 2
Back
Fore
SplineSet
294 620 m 0
 289 596 263 576 234 576 c 0
 209 576 192 592 197 615 c 0
 202 638 230 659 258 659 c 0
 281 659 299 642 294 620 c 0
453 620 m 0
 448 596 422 576 393 576 c 0
 368 576 351 592 356 615 c 0
 361 638 389 659 417 659 c 0
 440 659 458 642 453 620 c 0
EndSplineSet
EndChar
StartChar: copyright
Encoding: 169 169 68
Width: 544
Flags: MW
HStem: 236 46<227.5 324.5 227.5 328> 348 46<275 306.5 275 311> 545 46<305.5 344> 644 46<304.5 401.5>
LayerCount: 2
Back
Fore
SplineSet
267 236 m 0
 145 236 66 338 93 463 c 0
 119 588 241 690 363 690 c 0
 485 690 563 588 537 463 c 0
 510 338 389 236 267 236 c 0
353 644 m 0
 256 644 160 563 139 463 c 0
 118 363 179 282 276 282 c 0
 373 282 470 363 491 463 c 0
 512 563 450 644 353 644 c 0
406 403 m 0
 381 376 340 348 282 348 c 0
 218 348 176 401 189 464 c 0
 205 541 267 591 344 591 c 0
 376 591 399 577 414 565 c 0
 420 558 423 552 421 544 c 0
 418 531 406 521 393 521 c 0
 387 521 383 523 378 528 c 0
 369 536 354 545 334 545 c 0
 261 545 241 489 236 464 c 0
 227 422 258 394 292 394 c 0
 321 394 356 405 371 427 c 0
 381 439 390 443 398 443 c 0
 411 443 419 433 416 420 c 0
 415 416 413 412 406 403 c 0
EndSplineSet
EndChar
StartChar: ordfeminine
Encoding: 170 170 129
Width: 250
Flags: MW
HStem: 342 21G<235.5 248.5> 347 49<123.5 155.5> 618 50<191 235.5>
LayerCount: 2
Back
Fore
SplineSet
242 342 m 0xa0
 229 342 220 354 223 369 c 1
 196 358 175 347 136 347 c 0x60
 68 347 31 405 47 483 c 0
 65 569 138 668 233 668 c 0
 277 668 317 651 329 639 c 1
 273 367 l 2
 270 354 255 342 242 342 c 0xa0
227 618 m 0
 155 618 109 540 98 485 c 0
 89 445 99 396 148 396 c 0x60
 185 396 224 421 234 427 c 1
 276 609 l 1
 268 614 244 618 227 618 c 0
EndSplineSet
EndChar
StartChar: guillemotleft
Encoding: 171 171 101
Width: 1245
GlyphClass: 2
Flags: W
LayerCount: 2
Back
Fore
SplineSet
141 530 m 1,0,1
 147 553 147 553 170 573 c 1,2,-1
 567 872 l 2,3,4
 577 880 577 880 587.5 883.5 c 128,-1,5
 598 887 598 887 608 887 c 0,6,7
 635 887 635 887 647 868 c 0,8,9
 659 850 659 850 653 826.5 c 128,-1,10
 647 803 647 803 627 786 c 1,11,-1
 285 530 l 1,12,-1
 545 256 l 2,13,14
 561 240 561 240 557 216.5 c 128,-1,15
 553 193 553 193 535 174 c 1,16,17
 515 158 515 158 491 155 c 128,-1,18
 467 152 467 152 451 168 c 2,19,-1
 152 487 l 2,20,21
 136 503 136 503 141 530 c 1,0,1
561 530 m 0,22,23
 567 553 567 553 590 573 c 1,24,-1
 987 872 l 2,25,26
 997 880 997 880 1007.5 883.5 c 128,-1,27
 1018 887 1018 887 1028 887 c 0,28,29
 1055 887 1055 887 1067 868 c 0,30,31
 1079 850 1079 850 1073 826.5 c 128,-1,32
 1067 803 1067 803 1047 786 c 1,33,-1
 705 530 l 1,34,-1
 965 256 l 2,35,36
 981 240 981 240 977 216.5 c 128,-1,37
 973 193 973 193 954 174 c 1,38,39
 934 158 934 158 910.5 155 c 128,-1,40
 887 152 887 152 870 168 c 1,41,-1
 571 487 l 2,42,43
 555 503 555 503 561 530 c 0,22,23
EndSplineSet
EndChar
StartChar: logicalnot
Encoding: 172 172 139
Width: 480
Flags: MW
HStem: 125 21G<358 372> 278 51<62 408 79 373>
LayerCount: 2
Back
Fore
SplineSet
365 125 m 0
 351 125 341 136 344 150 c 2
 373 278 l 1
 69 278 l 2
 55 278 46 289 49 303 c 0
 52 317 65 329 79 329 c 2
 408 329 l 2
 421 329 432 319 429 303 c 2
 395 150 l 2
 392 136 379 125 365 125 c 0
EndSplineSet
EndChar
StartChar: uni00AD
Encoding: 173 173 141
Width: 441
Flags: MW
HStem: 223 54<83 348 101 337>
LayerCount: 2
Back
Fore
SplineSet
337 223 m 2
 90 223 l 2
 76 223 66 236 69 250 c 0
 72 265 87 277 101 277 c 2
 348 277 l 2
 363 277 373 265 370 250 c 0
 367 236 352 223 337 223 c 2
EndSplineSet
EndChar
StartChar: registered
Encoding: 174 174 103
Width: 1202
GlyphClass: 2
Flags: W
LayerCount: 2
Back
Fore
SplineSet
140.5 767 m 128,-1,1
 123 852 123 852 143 948 c 256,2,3
 163 1044 163 1044 216.5 1129 c 128,-1,4
 270 1214 270 1214 345 1276.5 c 128,-1,5
 420 1339 420 1339 511 1376 c 128,-1,6
 602 1413 602 1413 696 1413 c 256,7,8
 790 1413 790 1413 865 1376 c 128,-1,9
 940 1339 940 1339 988 1276.5 c 128,-1,10
 1036 1214 1036 1214 1054.5 1129 c 128,-1,11
 1073 1044 1073 1044 1053 948 c 256,12,13
 1033 852 1033 852 978.5 767 c 128,-1,14
 924 682 924 682 849 619.5 c 128,-1,15
 774 557 774 557 684 520 c 128,-1,16
 594 483 594 483 500 483 c 256,17,18
 406 483 406 483 330 520 c 128,-1,19
 254 557 254 557 206 619.5 c 128,-1,0
 158 682 158 682 140.5 767 c 128,-1,1
236 803.5 m 128,-1,21
 250 737 250 737 288 686 c 128,-1,22
 326 635 326 635 385 606.5 c 128,-1,23
 444 578 444 578 518 578 c 256,24,25
 592 578 592 578 664.5 606.5 c 128,-1,26
 737 635 737 635 796.5 686 c 128,-1,27
 856 737 856 737 899 803.5 c 128,-1,28
 942 870 942 870 958 948 c 0,29,30
 974 1024 974 1024 960 1091.5 c 128,-1,31
 946 1159 946 1159 907 1210.5 c 128,-1,32
 868 1262 868 1262 809 1290.5 c 128,-1,33
 750 1319 750 1319 676 1319 c 256,34,35
 602 1319 602 1319 530.5 1290.5 c 128,-1,36
 459 1262 459 1262 398.5 1210.5 c 128,-1,37
 338 1159 338 1159 296 1091.5 c 128,-1,38
 254 1024 254 1024 238 948 c 0,39,20
 222 870 222 870 236 803.5 c 128,-1,21
348 784 m 2,40,41
 348 768 348 768 358.5 755.5 c 128,-1,42
 369 743 369 743 387 743 c 256,43,44
 405 743 405 743 421.5 755.5 c 128,-1,45
 438 768 438 768 442 786 c 1,46,-1
 449 801 l 1,47,-1
 483 895 l 1,48,-1
 651 760 l 1,49,-1
 664 750 l 1,50,51
 672 742 672 742 688 741 c 1,52,53
 708 741 708 741 724.5 754.5 c 128,-1,54
 741 768 741 768 745 788 c 0,55,56
 751 815 751 815 731 827 c 1,57,-1
 725 836 l 1,58,-1
 625 915 l 1,59,60
 662 923 662 923 700.5 934.5 c 128,-1,61
 739 946 739 946 773 964.5 c 128,-1,62
 807 983 807 983 830.5 1007.5 c 128,-1,63
 854 1032 854 1032 860 1065 c 1,64,65
 872 1120 872 1120 838 1155 c 1,66,67
 793 1204 793 1204 655 1208 c 1,68,69
 608 1208 608 1208 573.5 1205 c 128,-1,70
 539 1202 539 1202 537 1202 c 0,71,72
 502 1196 502 1196 487 1161 c 1,73,-1
 358 817 l 1,74,-1
 350 799 l 1,75,76
 348 797 348 797 348 793 c 2,77,-1
 348 784 l 2,40,41
522 993 m 1,78,-1
 565 1112 l 1,79,80
 622 1116 622 1116 680.5 1111 c 128,-1,81
 739 1106 739 1106 762 1083 c 1,82,83
 770 1079 770 1079 766 1065 c 0,84,85
 762 1049 762 1049 691 1026 c 128,-1,86
 620 1003 620 1003 522 993 c 1,78,-1
EndSplineSet
EndChar
StartChar: macron
Encoding: 175 175 146
Width: 500
Flags: MW
HStem: 600 51<210 437 228 426>
LayerCount: 2
Back
Fore
SplineSet
426 600 m 2
 217 600 l 2
 203 600 195 612 198 626 c 0
 201 640 214 651 228 651 c 2
 437 651 l 2
 451 651 460 640 457 626 c 0
 454 612 440 600 426 600 c 2
EndSplineSet
EndChar
StartChar: degree
Encoding: 176 176 70
Width: 243
Flags: MW
HStem: 464 46<154 196 154 198.5> 662 46<186 228>
LayerCount: 2
Back
Fore
SplineSet
165 464 m 0
 98 464 55 519 69 586 c 0
 83 653 150 708 217 708 c 0
 284 708 326 653 312 586 c 0
 298 519 232 464 165 464 c 0
207 662 m 0
 165 662 123 628 114 586 c 0
 105 544 133 510 175 510 c 0
 217 510 258 544 267 586 c 0
 276 628 249 662 207 662 c 0
EndSplineSet
EndChar
StartChar: plusminus
Encoding: 177 177 140
Width: 441
Flags: MW
HStem: -1 53<37.5 295 56 283> 136 187<185.5 199.5> 270 53<78.5 206 97 195 259 358 97 248> 270 177<78.5 267.5 86 267.5 251.5 267.5 251.5 358 248 267.5>
LayerCount: 2
Back
Fore
SplineSet
65 296 m 0xa0
 68 310 83 323 97 323 c 2
 206 323 l 1xc0
 227 421 l 2
 230 434 243 447 260 447 c 0x90
 275 447 283 434 280 421 c 2
 259 323 l 1
 369 323 l 2
 382 323 393 311 389 296 c 0
 386 282 371 270 358 270 c 2
 248 270 l 1xa0
 225 162 l 2
 222 148 206 136 193 136 c 0xc0
 178 136 169 149 172 162 c 2
 195 270 l 1
 86 270 l 2
 71 270 64 283 65 296 c 0xa0
24 26 m 0
 27 41 43 52 56 52 c 2
 295 52 l 2
 309 52 318 40 315 26 c 0
 312 10 297 -1 283 -1 c 2
 44 -1 l 2
 31 -1 20 9 24 26 c 0
EndSplineSet
EndChar
StartChar: twosuperior
Encoding: 178 178 142
Width: 240
Flags: MW
HStem: 443 47<100 251> 780 46<212.5 249.5>
LayerCount: 2
Back
Fore
SplineSet
251 443 m 2
 42 443 l 1
 47 466 l 2
 68 565 122 603 229 663 c 0
 257 678 277 698 283 727 c 0
 289 755 269 780 230 780 c 0
 195 780 166 759 153 748 c 0
 139 735 134 730 123 730 c 0
 112 730 102 742 105 753 c 0
 106 759 108 763 114 769 c 0
 133 788 185 826 239 826 c 0
 296 826 342 790 329 727 c 0
 316 664 264 632 215 606 c 0
 168 580 110 541 100 490 c 1
 261 490 l 2
 271 490 282 481 279 466 c 0
 276 454 262 443 251 443 c 2
EndSplineSet
EndChar
StartChar: threesuperior
Encoding: 179 179 143
Width: 236
Flags: MW
HStem: 440 46<148.5 178 148.5 185.5> 440 242 783 47<209 238.5>
LayerCount: 2
Back
Fore
SplineSet
154 440 m 0x60
 92 440 65 476 55 502 c 0
 53 507 54 513 54 516 c 0
 57 528 68 540 81 540 c 0x60
 94 540 99 530 100 526 c 0
 112 499 133 486 164 486 c 0xa0
 192 486 241 505 253 560 c 0
 261 598 245 630 184 635 c 0
 172 636 165 646 167 658 c 0
 171 675 181 681 194 682 c 0
 227 684 275 703 283 740 c 0
 289 771 251 783 226 783 c 0
 185 783 172 770 160 762 c 0
 156 759 150 757 144 757 c 0
 133 757 123 765 126 780 c 0
 131 803 182 830 236 830 c 0
 292 830 341 797 329 740 c 0
 322 710 300 678 266 660 c 1
 297 639 309 603 300 560 c 0
 284 488 217 440 154 440 c 0x60
EndSplineSet
EndChar
StartChar: acute
Encoding: 180 180 216
Width: 500
Flags: MW
HStem: 563 21G<235 245> 705 20G<406.5 421.5>
LayerCount: 2
Back
Fore
SplineSet
423 666 m 2
 265 572 l 2
 257 567 248 563 242 563 c 0
 228 563 219 575 222 590 c 0
 223 596 226 603 232 607 c 2
 379 710 l 2
 389 717 401 725 412 725 c 0
 431 725 442 709 438 689 c 0
 436 680 431 671 423 666 c 2
EndSplineSet
EndChar
StartChar: mu
Encoding: 181 181 148
Width: 500
Flags: MW
HStem: -181 227<25.5 204.5> -3 49<134 198.5> 0 21G<351.5 369> 480 20G<148 162.5 464 478>
VStem: 10 55<-165.5 -149>
LayerCount: 2
Back
Fore
SplineSet
64 256 m 0x38
 78 333 107 428 121 466 c 0
 131 495 141 500 155 500 c 0
 170 500 181 489 177 474 c 0
 170 450 145 384 126 292 c 0
 86 106 90 46 170 46 c 0x98
 239 46 319 94 346 118 c 0
 362 133 368 161 368 161 c 1
 439 475 l 2
 443 490 457 500 471 500 c 0
 485 500 495 490 491 475 c 2
 396 28 l 2
 393 13 377 0 361 0 c 0x38
 342 0 333 15 337 33 c 2
 346 76 l 1
 313 40 237 -3 160 -3 c 0x58
 108 -3 80 18 80 18 c 1
 74 -26 67 -101 65 -149 c 0
 65 -164 52 -181 32 -181 c 0x98
 19 -181 10 -172 10 -159 c 0
 12 -122 13 -83 25 0 c 0
 30 41 46 158 64 256 c 0x38
EndSplineSet
EndChar
StartChar: paragraph
Encoding: 182 182 106
Width: 559
Flags: MW
HStem: -80 21G<193 207.5> -79 21G<306 320.5>
LayerCount: 2
Back
Fore
SplineSet
578 714 m 0x40
 527 440 442 182 345 -57 c 0
 340 -70 327 -79 314 -79 c 0
 298 -79 287 -65 294 -47 c 0
 379 168 465 414 522 712 c 0
 524 728 539 740 555 741 c 0
 570 741 580 729 578 714 c 0x40
467 729 m 1
 419 452 328 171 233 -58 c 0x40
 227 -71 214 -80 201 -80 c 0x80
 185 -80 172 -64 181 -46 c 0
 218 29 299 270 321 349 c 1
 302 349 l 2
 192 349 98 399 125 526 c 0
 156 671 327 756 493 786 c 0
 508 789 517 774 514 759 c 0
 511 746 499 734 487 732 c 2
 467 729 l 1
EndSplineSet
EndChar
StartChar: periodcentered
Encoding: 183 183 149
Width: 172
Flags: MW
HStem: 210 83<61.5 106>
LayerCount: 2
Back
Fore
SplineSet
71 210 m 0
 52 210 43 227 47 248 c 0
 52 271 76 293 97 293 c 0
 115 293 125 277 121 257 c 0
 116 231 92 210 71 210 c 0
EndSplineSet
EndChar
StartChar: cedilla
Encoding: 184 184 220
Width: 500
Flags: MW
HStem: -201 42<143.5 168.5 143.5 171> -61 42<173 189.5> 22 20G<168.5 184>
LayerCount: 2
Back
Fore
SplineSet
146 -201 m 0
 114 -201 71 -179 78 -146 c 0
 80 -138 91 -128 103 -128 c 0
 111 -128 115 -133 119 -139 c 0
 125 -148 132 -159 155 -159 c 0
 182 -159 208 -137 214 -110 c 0
 220 -83 203 -61 176 -61 c 0
 161 -61 150 -67 142 -71 c 0
 138 -74 133 -76 129 -76 c 0
 118 -76 110 -68 113 -56 c 0
 114 -50 117 -43 123 -33 c 0
 160 30 162 42 175 42 c 0
 183 42 189 38 184 22 c 2
 173 -19 l 1
 241 -19 266 -62 256 -110 c 0
 245 -160 196 -201 146 -201 c 0
EndSplineSet
EndChar
StartChar: onesuperior
Encoding: 185 185 147
Width: 166
Flags: MW
HStem: 444 46<56 114 74 114 160 182> 809 20G<210 219.5>
LayerCount: 2
Back
Fore
SplineSet
182 444 m 2
 64 444 l 2
 48 444 43 455 46 467 c 0
 49 481 62 490 74 490 c 2
 114 490 l 1
 172 745 l 1
 136 714 l 2
 130 709 125 707 117 707 c 0
 107 707 97 716 99 729 c 0
 101 735 104 741 109 746 c 2
 194 821 l 2
 200 826 207 829 213 829 c 0
 226 829 234 817 232 805 c 2
 160 490 l 1
 192 490 l 2
 204 490 212 479 210 467 c 0
 207 452 193 444 182 444 c 2
EndSplineSet
EndChar
StartChar: ordmasculine
Encoding: 186 186 128
Width: 277
Flags: MW
HStem: 347 45<134.5 180.5 134.5 197> 618 45<197 244>
LayerCount: 2
Back
Fore
SplineSet
147 347 m 0
 78 347 31 409 49 491 c 0
 66 572 141 663 233 663 c 0
 302 663 350 604 331 515 c 0
 317 449 247 347 147 347 c 0
221 618 m 0
 173 618 115 562 101 494 c 0
 89 439 112 392 157 392 c 0
 204 392 265 444 280 515 c 0
 291 567 267 618 221 618 c 0
EndSplineSet
EndChar
StartChar: guillemotright
Encoding: 187 187 88
Width: 591
Flags: MW
HStem: 76 21G<68.5 79.5 273.5 284.5> 413 20G<129 139 334 344>
LayerCount: 2
Back
Fore
SplineSet
76 76 m 0
 61 76 50 88 53 103 c 0
 55 111 60 119 67 124 c 2
 233 249 l 1
 107 384 l 2
 102 390 100 397 102 405 c 0
 105 421 122 433 136 433 c 0
 142 433 148 430 152 426 c 2
 299 271 l 2
 304 266 305 258 304 250 c 0
 302 242 297 234 290 229 c 2
 96 83 l 2
 89 78 83 76 76 76 c 0
281 76 m 0
 266 76 255 88 258 103 c 0
 260 111 265 119 272 124 c 2
 438 249 l 1
 312 384 l 2
 307 390 305 397 307 405 c 0
 310 421 327 433 341 433 c 0
 347 433 353 430 357 426 c 2
 504 271 l 2
 509 266 510 258 509 250 c 0
 507 242 502 234 495 229 c 2
 301 83 l 2
 294 78 288 76 281 76 c 0
EndSplineSet
EndChar
StartChar: questiondown
Encoding: 191 191 107
Width: 1024
GlyphClass: 2
Flags: W
LayerCount: 2
Back
Fore
SplineSet
-41 -315 m 0,0,1
 -37 -290 -37 -290 -15.5 -274 c 128,-1,2
 6 -258 6 -258 29 -258 c 0,3,4
 39 -258 39 -258 51 -262 c 1,5,6
 104 -274 104 -274 178 -282.5 c 128,-1,7
 252 -291 252 -291 336 -283 c 1,8,9
 412 -277 412 -277 465 -240 c 128,-1,10
 518 -203 518 -203 552 -157 c 128,-1,11
 586 -111 586 -111 604.5 -65.5 c 128,-1,12
 623 -20 623 -20 629 4 c 0,13,14
 631 14 631 14 639 49 c 128,-1,15
 647 84 647 84 662 137 c 1,16,17
 590 61 590 61 507 20.5 c 128,-1,18
 424 -20 424 -20 336 -25 c 1,19,-1
 328 -25 l 2,20,21
 160 -25 160 -25 74 121 c 1,22,23
 39 178 39 178 26.5 251 c 128,-1,24
 14 324 14 324 23 401 c 1,25,26
 33 475 33 475 61.5 556 c 128,-1,27
 90 637 90 637 141.5 712.5 c 128,-1,28
 193 788 193 788 268.5 853 c 128,-1,29
 344 918 344 918 446 961 c 0,30,31
 518 992 518 992 579.5 998 c 128,-1,32
 641 1004 641 1004 691 996.5 c 128,-1,33
 741 989 741 989 781 971.5 c 128,-1,34
 821 954 821 954 848 936 c 1,35,36
 848 940 848 940 855 973 c 128,-1,37
 862 1006 862 1006 872.5 1051 c 128,-1,38
 883 1096 883 1096 894 1147 c 128,-1,39
 905 1198 905 1198 914.5 1244 c 128,-1,40
 924 1290 924 1290 931 1322 c 128,-1,41
 938 1354 938 1354 940 1360 c 0,42,43
 946 1383 946 1383 965.5 1398 c 128,-1,44
 985 1413 985 1413 1008 1413 c 256,45,46
 1031 1413 1031 1413 1044 1395 c 128,-1,47
 1057 1377 1057 1377 1053 1354 c 1,48,49
 1053 1354 1053 1354 1040 1296 c 1,50,51
 1026 1239 1026 1239 1005.5 1146 c 128,-1,52
 985 1053 985 1053 957.5 933 c 128,-1,53
 930 813 930 813 901 687 c 128,-1,54
 872 561 872 561 844.5 440 c 128,-1,55
 817 319 817 319 794.5 222 c 128,-1,56
 772 125 772 125 757.5 63.5 c 128,-1,57
 743 2 743 2 741 -4 c 0,58,59
 694 -172 694 -172 581.5 -277.5 c 128,-1,60
 469 -383 469 -383 322 -397 c 1,61,62
 299 -401 299 -401 278.5 -401 c 128,-1,63
 258 -401 258 -401 238 -401 c 0,64,65
 164 -401 164 -401 100.5 -392 c 128,-1,66
 37 -383 37 -383 -8 -373 c 1,67,-1
 -8 -371 l 1,68,69
 -26 -367 -26 -367 -35.5 -351.5 c 128,-1,70
 -45 -336 -45 -336 -41 -315 c 0,0,1
125 408 m 1,71,72
 119 357 119 357 127 300.5 c 128,-1,73
 135 244 135 244 160.5 195.5 c 128,-1,74
 186 147 186 147 230 115.5 c 128,-1,75
 274 84 274 84 342 84 c 2,76,-1
 348 84 l 1,77,78
 401 86 401 86 461.5 107.5 c 128,-1,79
 522 129 522 129 577.5 180 c 128,-1,80
 633 231 633 231 679 315 c 128,-1,81
 725 399 725 399 752 524 c 0,82,83
 760 559 760 559 770 609 c 128,-1,84
 780 659 780 659 791 707 c 1,85,86
 801 762 801 762 815 821 c 1,87,88
 813 823 813 823 787.5 841.5 c 128,-1,89
 762 860 762 860 717 873.5 c 128,-1,90
 672 887 672 887 607.5 888 c 128,-1,91
 543 889 543 889 463 856 c 0,92,93
 359 813 359 813 294 748.5 c 128,-1,94
 229 684 229 684 192.5 617.5 c 128,-1,95
 156 551 156 551 141.5 493.5 c 128,-1,96
 127 436 127 436 125 408 c 1,71,72
EndSplineSet
EndChar
StartChar: Agrave
Encoding: 192 192 152
Width: 624
Flags: MW
HStem: -1 21G<483 497.5> 0 21G<15.5 29.5> 669 20G<413 424.5> 885 20G<381 395.5>
LayerCount: 2
Back
Fore
SplineSet
446 725 m 2x70
 353 846 l 2
 348 853 346 861 348 871 c 0
 351 889 372 905 390 905 c 0
 401 905 410 898 416 890 c 2
 493 760 l 2
 497 753 497 748 496 742 c 0
 493 727 477 716 463 716 c 0
 455 716 450 720 446 725 c 2x70
441 670 m 2
 524 37 l 2
 525 34 524 31 523 28 c 0
 520 13 506 -1 489 -1 c 0xb0
 477 -1 468 6 466 18 c 2
 434 262 l 1
 167 206 l 1
 53 18 l 2
 47 7 35 0 24 0 c 0
 7 0 -2 15 1 29 c 0
 1 32 3 36 5 39 c 2
 97 192 l 1
 80 188 78 188 76 188 c 0
 60 188 50 200 54 217 c 0
 56 230 68 241 81 244 c 2
 136 256 l 1
 387 671 l 2
 394 682 407 689 419 689 c 0
 430 689 439 681 441 670 c 2
206 270 m 1
 427 316 l 1
 392 578 l 1
 206 270 l 1
EndSplineSet
EndChar
StartChar: Acircumflex
Encoding: 194 194 154
Width: 624
Flags: MW
HStem: -1 21G<483 497.5> 0 21G<15.5 29.5> 669 20G<413 424.5> 875 20G<468 474.5>
LayerCount: 2
Back
Fore
SplineSet
489 887 m 2x70
 576 777 l 2
 581 772 582 765 580 757 c 0
 577 743 563 731 549 731 c 0
 542 731 535 733 531 738 c 2
 454 825 l 1
 320 736 l 2
 314 732 308 731 302 731 c 0
 288 731 278 742 281 757 c 0
 283 765 288 773 296 778 c 2
 450 888 l 2
 457 893 465 895 471 895 c 0
 478 895 484 892 489 887 c 2x70
441 670 m 2
 524 37 l 2
 525 34 524 31 523 28 c 0
 520 13 506 -1 489 -1 c 0xb0
 477 -1 468 6 466 18 c 2
 434 262 l 1
 167 206 l 1
 53 18 l 2
 47 7 35 0 24 0 c 0
 7 0 -2 15 1 29 c 0
 1 32 3 36 5 39 c 2
 97 192 l 1
 80 188 78 188 76 188 c 0
 60 188 50 200 54 217 c 0
 56 230 68 241 81 244 c 2
 136 256 l 1
 387 671 l 2
 394 682 407 689 419 689 c 0
 430 689 439 681 441 670 c 2
206 270 m 1
 427 316 l 1
 392 578 l 1
 206 270 l 1
EndSplineSet
EndChar
StartChar: Atilde
Encoding: 195 195 155
Width: 624
Flags: MW
HStem: -1 21G<483 497.5> 0 21G<15.5 29.5> 669 20G<413 424.5> 713 42<488.5 512 488.5 520.5> 736 127<270 406.5> 821 42<368.5 383.5>
LayerCount: 2
Back
Fore
SplineSet
574 833 m 0x74
 580 843 591 850 601 850 c 0
 615 850 625 839 622 826 c 0
 621 821 619 818 616 812 c 0
 599 781 553 713 488 713 c 0
 443 713 426 745 412 773 c 0
 398 799 392 821 375 821 c 0
 362 821 332 804 306 755 c 0x74
 299 742 289 736 277 736 c 0
 263 736 253 747 256 761 c 0
 259 776 273 793 281 804 c 0
 311 842 347 863 384 863 c 0x68
 429 863 446 830 460 803 c 0
 474 777 480 755 497 755 c 0
 527 755 556 804 574 833 c 0x74
441 670 m 2
 524 37 l 2
 525 34 524 31 523 28 c 0
 520 13 506 -1 489 -1 c 0xb4
 477 -1 468 6 466 18 c 2
 434 262 l 1
 167 206 l 1
 53 18 l 2
 47 7 35 0 24 0 c 0
 7 0 -2 15 1 29 c 0
 1 32 3 36 5 39 c 2
 97 192 l 1
 80 188 78 188 76 188 c 0
 60 188 50 200 54 217 c 0
 56 230 68 241 81 244 c 2
 136 256 l 1
 387 671 l 2
 394 682 407 689 419 689 c 0
 430 689 439 681 441 670 c 2
206 270 m 1
 427 316 l 1
 392 578 l 1
 206 270 l 1
EndSplineSet
EndChar
StartChar: Adieresis
Encoding: 196 196 156
Width: 624
Flags: MW
HStem: -1 21G<483 497.5> 0 21G<15.5 29.5> 669 20G<413 424.5> 733 83<353 357.5 512 516.5>
LayerCount: 2
Back
Fore
SplineSet
404 777 m 0x70
 399 753 372 733 343 733 c 0
 318 733 302 749 307 772 c 0
 311 795 339 816 367 816 c 0
 390 816 408 799 404 777 c 0x70
563 777 m 0
 558 753 531 733 502 733 c 0
 477 733 461 749 466 772 c 0
 470 795 498 816 526 816 c 0
 549 816 567 799 563 777 c 0
441 670 m 2
 524 37 l 2
 525 34 524 31 523 28 c 0
 520 13 506 -1 489 -1 c 0xb0
 477 -1 468 6 466 18 c 2
 434 262 l 1
 167 206 l 1
 53 18 l 2
 47 7 35 0 24 0 c 0
 7 0 -2 15 1 29 c 0
 1 32 3 36 5 39 c 2
 97 192 l 1
 80 188 78 188 76 188 c 0
 60 188 50 200 54 217 c 0
 56 230 68 241 81 244 c 2
 136 256 l 1
 387 671 l 2
 394 682 407 689 419 689 c 0
 430 689 439 681 441 670 c 2
206 270 m 1
 427 316 l 1
 392 578 l 1
 206 270 l 1
EndSplineSet
EndChar
StartChar: Aring
Encoding: 197 197 157
Width: 624
Flags: MW
HStem: -1 21G<483 497.5> 0 21G<15.5 29.5> 669 20G<413 424.5> 721 46<416 453.5> 893 47<454 495.5>
LayerCount: 2
Back
Fore
SplineSet
420 721 m 0x78
 358 721 315 766 327 823 c 0
 342 891 420 940 488 940 c 0
 548 940 592 895 579 837 c 0
 565 768 487 721 420 721 c 0x78
474 893 m 0
 420 893 376 853 369 823 c 0
 362 788 393 767 439 767 c 0
 474 767 528 793 537 835 c 0
 543 864 517 893 474 893 c 0
441 670 m 2
 524 37 l 2
 525 34 524 31 523 28 c 0
 520 13 506 -1 489 -1 c 0xb8
 477 -1 468 6 466 18 c 2
 434 262 l 1
 167 206 l 1
 53 18 l 2
 47 7 35 0 24 0 c 0
 7 0 -2 15 1 29 c 0
 1 32 3 36 5 39 c 2
 97 192 l 1
 80 188 78 188 76 188 c 0
 60 188 50 200 54 217 c 0
 56 230 68 241 81 244 c 2
 136 256 l 1
 387 671 l 2
 394 682 407 689 419 689 c 0
 430 689 439 681 441 670 c 2
206 270 m 1
 427 316 l 1
 392 578 l 1
 206 270 l 1
EndSplineSet
EndChar
StartChar: AE
Encoding: 198 198 120
Width: 1040
Flags: MW
HStem: -3 21G<14 25> 0 54<461.5 909 507 898> 309 55<913 920.5> 627 54<629 1031 629 629>
LayerCount: 2
Back
Fore
SplineSet
507 54 m 1x70
 909 54 l 2
 925 54 934 43 930 27 c 0
 927 12 914 0 898 0 c 2
 469 0 l 2x70
 454 0 444 12 447 27 c 2
 506 304 l 1
 275 258 l 1
 45 8 l 2
 39 1 29 -3 21 -3 c 0xb0
 7 -3 -3 10 -1 23 c 0
 1 29 3 34 8 39 c 2
 195 243 l 1
 175 239 l 2
 160 236 150 251 153 267 c 0
 156 280 167 290 182 293 c 2
 255 307 l 1
 589 670 l 2
 593 675 601 681 610 681 c 2
 1042 681 l 2
 1058 681 1067 670 1064 654 c 0
 1061 640 1047 627 1031 627 c 2
 629 627 l 1
 573 364 l 1
 925 364 l 2
 940 364 949 351 946 337 c 0
 943 321 928 309 913 309 c 2
 561 310 l 1
 507 54 l 1x70
336 323 m 1
 518 359 l 1
 562 569 l 1
 336 323 l 1
EndSplineSet
EndChar
StartChar: Ccedilla
Encoding: 199 199 158
Width: 632
Flags: MW
HStem: -201 42<221.5 246.5 221.5 249> -61 42<251 267.5> -2 57<277.5 330> 538 121<568 610> 627 32 627 57<368 466.5>
LayerCount: 2
Back
Fore
SplineSet
201 -33 m 0xe8
 210 -17 217 -5 222 4 c 1
 99 32 26 148 57 296 c 0
 101 500 298 684 436 684 c 0xe4
 505 684 547 664 573 644 c 1
 579 653 591 659 602 659 c 0
 618 659 627 647 624 631 c 2
 610 567 l 2
 607 551 592 538 576 538 c 0xf0
 560 538 550 551 553 567 c 2
 554 572 l 1
 539 593 509 627 424 627 c 0
 312 627 149 460 114 296 c 0
 78 124 204 55 294 55 c 0
 366 55 439 81 506 150 c 0
 515 159 523 161 531 161 c 0
 546 161 558 151 554 133 c 0
 552 127 550 121 545 116 c 0
 472 40 378 -2 282 -2 c 0
 273 -2 264 -2 256 -1 c 1
 251 -19 l 1
 319 -19 344 -62 334 -110 c 0
 323 -160 274 -201 224 -201 c 0
 192 -201 149 -179 156 -146 c 0
 158 -138 169 -128 181 -128 c 0
 189 -128 193 -133 197 -139 c 0
 203 -148 210 -159 233 -159 c 0
 260 -159 286 -137 292 -110 c 0
 298 -83 281 -61 254 -61 c 0
 239 -61 228 -67 220 -71 c 0
 216 -74 211 -76 207 -76 c 0
 196 -76 188 -68 191 -56 c 0
 192 -50 195 -43 201 -33 c 0xe8
EndSplineSet
EndChar
StartChar: Eacute
Encoding: 201 201 160
Width: 610
Flags: MW
HStem: 0 57<31 477 79 465> 324 57<147 486 135 498> 625 57<199 599 199 199> 874 20G<505.5 520.5>
LayerCount: 2
Back
Fore
SplineSet
522 835 m 2
 364 741 l 2
 356 736 347 732 341 732 c 0
 327 732 318 744 321 759 c 0
 322 765 325 772 330 776 c 2
 478 879 l 2
 488 886 500 894 511 894 c 0
 530 894 541 878 537 858 c 0
 535 849 530 840 522 835 c 2
79 57 m 1
 477 57 l 2
 493 57 502 45 499 29 c 0
 495 13 481 0 465 0 c 2
 39 0 l 2
 23 0 12 13 16 29 c 2
 149 654 l 2
 152 670 167 682 183 682 c 2
 611 682 l 2
 627 682 637 670 634 654 c 0
 630 638 615 625 599 625 c 2
 199 625 l 1
 147 381 l 1
 498 381 l 2
 514 381 524 369 521 353 c 0
 517 337 502 324 486 324 c 2
 135 324 l 1
 79 57 l 1
EndSplineSet
EndChar
StartChar: Ecircumflex
Encoding: 202 202 161
Width: 610
Flags: MW
HStem: 0 57<31 477 79 465> 324 57<147 486 135 498> 625 57<199 599 199 199> 682 49<287 297 537.5 548> 875 20G<460 466.5>
LayerCount: 2
Back
Fore
SplineSet
481 887 m 2xd8
 568 777 l 2
 573 772 574 765 572 757 c 0
 569 743 555 731 541 731 c 0
 534 731 527 733 523 738 c 2
 446 825 l 1
 312 736 l 2
 306 732 300 731 294 731 c 0
 280 731 270 742 273 757 c 0
 275 765 280 773 288 778 c 2
 442 888 l 2
 449 893 457 895 463 895 c 0
 470 895 476 892 481 887 c 2xd8
79 57 m 1
 477 57 l 2
 493 57 502 45 499 29 c 0
 495 13 481 0 465 0 c 2
 39 0 l 2
 23 0 12 13 16 29 c 2
 149 654 l 2
 152 670 167 682 183 682 c 2
 611 682 l 2
 627 682 637 670 634 654 c 0
 630 638 615 625 599 625 c 2
 199 625 l 1xe8
 147 381 l 1
 498 381 l 2
 514 381 524 369 521 353 c 0
 517 337 502 324 486 324 c 2
 135 324 l 1
 79 57 l 1
EndSplineSet
EndChar
StartChar: Igrave
Encoding: 204 204 163
Width: 433
Flags: MW
HStem: -1 57<25 145 45 145 202 289> 624 57<158 434 178 266 323 323 323 422> 885 20G<285 299.5>
LayerCount: 2
Back
Fore
SplineSet
202 56 m 1
 301 56 l 2
 318 56 327 44 323 28 c 0
 320 12 305 -1 289 -1 c 2
 33 -1 l 2
 17 -1 7 12 10 28 c 0
 14 44 29 56 45 56 c 2
 145 56 l 1
 266 624 l 1
 166 624 l 2
 150 624 140 637 143 653 c 0
 147 669 162 681 178 681 c 2
 434 681 l 2
 450 681 460 669 456 653 c 0
 453 637 438 624 422 624 c 2
 323 624 l 1
 202 56 l 1
350 725 m 2
 257 846 l 2
 252 853 250 861 252 871 c 0
 255 889 276 905 294 905 c 0
 305 905 314 898 320 890 c 2
 397 760 l 2
 401 753 401 748 400 742 c 0
 397 727 381 716 367 716 c 0
 359 716 354 720 350 725 c 2
EndSplineSet
EndChar
StartChar: Iacute
Encoding: 205 205 164
Width: 433
Flags: MW
HStem: -1 57<25 145 45 145 202 289> 624 57<158 434 178 266 323 323 323 422> 874 20G<429.5 444.5>
LayerCount: 2
Back
Fore
SplineSet
202 56 m 1
 301 56 l 2
 318 56 327 44 323 28 c 0
 320 12 305 -1 289 -1 c 2
 33 -1 l 2
 17 -1 7 12 10 28 c 0
 14 44 29 56 45 56 c 2
 145 56 l 1
 266 624 l 1
 166 624 l 2
 150 624 140 637 143 653 c 0
 147 669 162 681 178 681 c 2
 434 681 l 2
 450 681 460 669 456 653 c 0
 453 637 438 624 422 624 c 2
 323 624 l 1
 202 56 l 1
446 835 m 2
 288 741 l 2
 280 736 271 732 265 732 c 0
 251 732 242 744 245 759 c 0
 246 765 249 772 254 776 c 2
 402 879 l 2
 412 886 424 894 435 894 c 0
 454 894 465 878 461 858 c 0
 459 849 454 840 446 835 c 2
EndSplineSet
EndChar
StartChar: Icircumflex
Encoding: 206 206 165
Width: 433
Flags: MW
HStem: -1 57<25 145 45 145 202 289> 624 57<158 434 178 266 323 323 323 422> 681 50<192 202 192 434> 875 20G<365 371.5>
LayerCount: 2
Back
Fore
SplineSet
202 56 m 1xd0
 301 56 l 2
 318 56 327 44 323 28 c 0
 320 12 305 -1 289 -1 c 2
 33 -1 l 2
 17 -1 7 12 10 28 c 0
 14 44 29 56 45 56 c 2
 145 56 l 1
 266 624 l 1
 166 624 l 2
 150 624 140 637 143 653 c 0
 147 669 162 681 178 681 c 2
 434 681 l 2
 450 681 460 669 456 653 c 0
 453 637 438 624 422 624 c 2
 323 624 l 1
 202 56 l 1xd0
386 887 m 2
 473 777 l 2
 478 772 479 765 477 757 c 0
 474 743 460 731 446 731 c 0
 439 731 432 733 428 738 c 2
 351 825 l 1
 217 736 l 2
 211 732 205 731 199 731 c 0xb0
 185 731 175 742 178 757 c 0
 180 765 185 773 193 778 c 2
 347 888 l 2
 354 893 362 895 368 895 c 0
 375 895 381 892 386 887 c 2
EndSplineSet
EndChar
StartChar: Idieresis
Encoding: 207 207 166
Width: 433
Flags: MW
HStem: -1 57<25 145 45 145 202 289> 624 57<158 434 178 266 323 323 323 422> 733 83<249 253.5 408 412.5>
LayerCount: 2
Back
Fore
SplineSet
202 56 m 1
 301 56 l 2
 318 56 327 44 323 28 c 0
 320 12 305 -1 289 -1 c 2
 33 -1 l 2
 17 -1 7 12 10 28 c 0
 14 44 29 56 45 56 c 2
 145 56 l 1
 266 624 l 1
 166 624 l 2
 150 624 140 637 143 653 c 0
 147 669 162 681 178 681 c 2
 434 681 l 2
 450 681 460 669 456 653 c 0
 453 637 438 624 422 624 c 2
 323 624 l 1
 202 56 l 1
300 777 m 0
 295 753 268 733 239 733 c 0
 214 733 198 749 203 772 c 0
 207 795 235 816 263 816 c 0
 286 816 304 799 300 777 c 0
459 777 m 0
 454 753 427 733 398 733 c 0
 373 733 357 749 362 772 c 0
 366 795 394 816 422 816 c 0
 445 816 463 799 459 777 c 0
EndSplineSet
EndChar
StartChar: Eth
Encoding: 208 208 119
Width: 655
Flags: MW
HStem: -20 57<207 307.5> 281 57<59.5 142 79 130 196 288 79 184> 624 57<257 257>
LayerCount: 2
Back
Fore
SplineSet
211 -20 m 0
 152 -20 99 -5 92 -3 c 0
 80 0 73 12 76 25 c 2
 130 281 l 1
 67 281 l 2
 52 281 42 294 45 309 c 0
 49 325 64 338 79 338 c 2
 142 338 l 1
 209 653 l 2
 213 669 228 681 244 681 c 0
 407 681 682 626 612 300 c 0
 565 77 404 -20 211 -20 c 0
184 281 m 1
 135 48 l 1
 156 43 191 37 223 37 c 0
 401 37 520 123 557 300 c 0
 607 532 458 615 257 624 c 1
 196 338 l 1
 300 338 l 2
 315 338 326 325 322 309 c 0
 319 294 303 281 288 281 c 2
 184 281 l 1
EndSplineSet
EndChar
StartChar: Ntilde
Encoding: 209 209 167
Width: 619
Flags: MW
HStem: 0 21G<30.5 46 466.5 479> 662 20G<607 622.5> 713 42<482.5 506 482.5 514.5> 736 127<264 400.5> 821 42<362.5 377.5>
LayerCount: 2
Back
Fore
SplineSet
471 0 m 0xe8
 462 0 453 4 450 12 c 2
 186 563 l 1
 71 28 l 2
 68 12 54 0 38 0 c 0
 23 0 12 13 15 28 c 2
 149 653 l 2
 152 667 166 681 182 681 c 0
 191 681 199 677 204 669 c 2
 467 117 l 1
 582 654 l 2
 585 669 599 682 615 682 c 0
 630 682 641 669 638 654 c 2
 504 28 l 2
 501 13 487 0 471 0 c 0xe8
568 833 m 0
 574 843 585 850 595 850 c 0
 609 850 619 839 616 826 c 0
 615 821 613 818 610 812 c 0
 593 781 547 713 482 713 c 0
 437 713 420 745 406 773 c 0
 392 799 386 821 369 821 c 0
 356 821 326 804 300 755 c 0xe8
 293 742 283 736 271 736 c 0
 257 736 247 747 250 761 c 0
 253 776 267 793 275 804 c 0
 305 842 341 863 378 863 c 0xd0
 423 863 440 830 454 803 c 0
 468 777 474 755 491 755 c 0
 521 755 550 804 568 833 c 0
EndSplineSet
EndChar
StartChar: Ograve
Encoding: 210 210 168
Width: 660
Flags: MW
HStem: -2 52<207 325.5 207 331> 630 52<362 481.5> 885 20G<422 436.5>
LayerCount: 2
Back
Fore
SplineSet
253 -2 m 0
 108 -2 35 143 71 313 c 0
 114 513 284 682 440 682 c 0
 584 682 659 539 623 367 c 0
 580 167 409 -2 253 -2 c 0
422 630 m 0
 299 630 161 489 124 313 c 0
 93 169 150 50 264 50 c 0
 387 50 533 193 569 363 c 0
 597 498 541 630 422 630 c 0
487 725 m 2
 394 846 l 2
 389 853 387 861 389 871 c 0
 392 889 413 905 431 905 c 0
 442 905 451 898 457 890 c 2
 534 760 l 2
 538 753 538 748 537 742 c 0
 534 727 518 716 504 716 c 0
 496 716 491 720 487 725 c 2
EndSplineSet
EndChar
StartChar: Oacute
Encoding: 211 211 169
Width: 660
Flags: MW
HStem: -2 52<207 325.5 207 331> 630 52<362 481.5> 874 20G<560.5 575.5>
LayerCount: 2
Back
Fore
SplineSet
253 -2 m 0
 108 -2 35 143 71 313 c 0
 114 513 284 682 440 682 c 0
 584 682 659 539 623 367 c 0
 580 167 409 -2 253 -2 c 0
422 630 m 0
 299 630 161 489 124 313 c 0
 93 169 150 50 264 50 c 0
 387 50 533 193 569 363 c 0
 597 498 541 630 422 630 c 0
577 835 m 2
 419 741 l 2
 411 736 402 732 396 732 c 0
 382 732 373 744 376 759 c 0
 377 765 380 772 385 776 c 2
 533 879 l 2
 543 886 555 894 566 894 c 0
 585 894 596 878 592 858 c 0
 590 849 585 840 577 835 c 2
EndSplineSet
EndChar
StartChar: Ocircumflex
Encoding: 212 212 170
Width: 660
Flags: MW
HStem: -2 52<207 325.5 207 331> 630 52<362 481.5> 682 49<328 512> 875 20G<501 507.5>
LayerCount: 2
Back
Fore
SplineSet
253 -2 m 0xd0
 108 -2 35 143 71 313 c 0
 114 513 284 682 440 682 c 0
 584 682 659 539 623 367 c 0
 580 167 409 -2 253 -2 c 0xd0
422 630 m 0
 299 630 161 489 124 313 c 0
 93 169 150 50 264 50 c 0
 387 50 533 193 569 363 c 0
 597 498 541 630 422 630 c 0
522 887 m 2
 609 777 l 2
 614 772 615 765 613 757 c 0
 610 743 596 731 582 731 c 0
 575 731 568 733 564 738 c 2
 487 825 l 1
 353 736 l 2
 347 732 341 731 335 731 c 0xb0
 321 731 311 742 314 757 c 0
 316 765 321 773 329 778 c 2
 483 888 l 2
 490 893 498 895 504 895 c 0
 511 895 517 892 522 887 c 2
EndSplineSet
EndChar
StartChar: Otilde
Encoding: 213 213 171
Width: 660
Flags: MW
HStem: -2 52<207 325.5 207 331> 630 52<362 481.5> 713 42<530.5 554 530.5 562.5> 736 127<312 448.5> 821 42<410.5 425.5>
LayerCount: 2
Back
Fore
SplineSet
253 -2 m 0xe8
 108 -2 35 143 71 313 c 0
 114 513 284 682 440 682 c 0
 584 682 659 539 623 367 c 0
 580 167 409 -2 253 -2 c 0xe8
422 630 m 0
 299 630 161 489 124 313 c 0
 93 169 150 50 264 50 c 0
 387 50 533 193 569 363 c 0
 597 498 541 630 422 630 c 0
616 833 m 0
 622 843 633 850 643 850 c 0
 657 850 667 839 664 826 c 0
 663 821 661 818 658 812 c 0
 641 781 595 713 530 713 c 0
 485 713 468 745 454 773 c 0
 440 799 434 821 417 821 c 0
 404 821 374 804 348 755 c 0xe8
 341 742 331 736 319 736 c 0
 305 736 295 747 298 761 c 0
 301 776 315 793 323 804 c 0
 353 842 389 863 426 863 c 0xd0
 471 863 488 830 502 803 c 0
 516 777 522 755 539 755 c 0
 569 755 598 804 616 833 c 0
EndSplineSet
EndChar
StartChar: Odieresis
Encoding: 214 214 172
Width: 660
Flags: MW
HStem: -2 52<207 325.5 207 331> 630 52<362 481.5> 733 83<390 394.5 549 553.5>
LayerCount: 2
Back
Fore
SplineSet
253 -2 m 0
 108 -2 35 143 71 313 c 0
 114 513 284 682 440 682 c 0
 584 682 659 539 623 367 c 0
 580 167 409 -2 253 -2 c 0
422 630 m 0
 299 630 161 489 124 313 c 0
 93 169 150 50 264 50 c 0
 387 50 533 193 569 363 c 0
 597 498 541 630 422 630 c 0
441 777 m 0
 436 753 409 733 380 733 c 0
 355 733 339 749 344 772 c 0
 348 795 376 816 404 816 c 0
 427 816 445 799 441 777 c 0
600 777 m 0
 595 753 568 733 539 733 c 0
 514 733 498 749 503 772 c 0
 507 795 535 816 563 816 c 0
 586 816 604 799 600 777 c 0
EndSplineSet
EndChar
StartChar: multiply
Encoding: 215 215 173
Width: 441
Flags: MW
HStem: 120 21G<86 98> 121 21G<282.5 293> 344 20G<333 345.5>
LayerCount: 2
Back
Fore
SplineSet
358 336 m 0xa0
 357 330 352 324 348 320 c 2
 254 243 l 1
 314 166 l 2
 318 161 319 155 318 148 c 0
 315 132 300 121 286 121 c 0x60
 279 121 273 124 269 129 c 2
 209 205 l 1
 115 128 l 2
 109 123 102 120 94 120 c 0
 78 120 71 134 74 146 c 0
 75 153 80 160 86 165 c 2
 180 243 l 1
 125 312 l 2
 121 317 119 323 121 331 c 0
 124 344 138 357 152 357 c 0
 160 357 166 354 170 349 c 2
 225 280 l 1
 318 357 l 2
 323 361 330 364 336 364 c 0
 355 364 362 353 358 336 c 0xa0
EndSplineSet
EndChar
StartChar: Oslash
Encoding: 216 216 127
Width: 660
Flags: MW
HStem: -32 21G<45 59> -2 52<243 325.5 243 331> 630 52<362 436.5> 723 20G<614 625>
LayerCount: 2
Back
Fore
SplineSet
253 -2 m 0
 202 -2 160 15 128 46 c 1
 78 -19 l 2
 72 -28 64 -32 54 -32 c 0
 36 -32 29 -20 32 -5 c 0
 33 -1 35 3 38 7 c 2
 98 85 l 1
 63 143 52 224 71 313 c 0
 114 513 284 682 440 682 c 0
 477 682 509 672 537 655 c 1
 594 730 l 2
 599 738 609 743 619 743 c 0
 631 743 643 733 640 717 c 0
 639 713 637 708 634 704 c 2
 573 625 l 1
 625 567 645 473 623 367 c 0
 580 167 409 -2 253 -2 c 0
264 50 m 0
 387 50 533 193 569 363 c 0
 586 443 573 523 535 574 c 1
 164 92 l 1
 188 65 222 50 264 50 c 0
422 630 m 0
 299 630 161 489 124 313 c 0
 109 244 114 182 136 135 c 1
 500 607 l 1
 478 622 451 630 422 630 c 0
EndSplineSet
EndChar
StartChar: Ugrave
Encoding: 217 217 174
Width: 683
Flags: MW
HStem: 0 49<202 357.5 202 366.5> 885 20G<400 414.5>
LayerCount: 2
Back
Fore
SplineSet
699 653 m 0
 677 527 655 400 610 270 c 0
 555 110 455 0 278 0 c 0
 110 0 47 125 90 367 c 0
 108 474 131 569 151 654 c 0
 154 670 170 681 184 681 c 0
 199 681 210 669 206 653 c 0
 185 564 165 474 148 381 c 0
 123 236 114 49 290 49 c 0
 425 49 510 139 555 277 c 0
 594 397 615 518 643 651 c 0
 646 667 659 681 677 681 c 0
 692 681 702 668 699 653 c 0
465 725 m 2
 372 846 l 2
 367 853 365 861 367 871 c 0
 370 889 391 905 409 905 c 0
 420 905 429 898 435 890 c 2
 512 760 l 2
 516 753 516 748 515 742 c 0
 512 727 496 716 482 716 c 0
 474 716 469 720 465 725 c 2
EndSplineSet
EndChar
StartChar: Uacute
Encoding: 218 218 175
Width: 683
Flags: MW
HStem: 0 49<202 357.5 202 366.5> 874 20G<558.5 573.5>
LayerCount: 2
Back
Fore
SplineSet
699 653 m 0
 677 527 655 400 610 270 c 0
 555 110 455 0 278 0 c 0
 110 0 47 125 90 367 c 0
 108 474 131 569 151 654 c 0
 154 670 170 681 184 681 c 0
 199 681 210 669 206 653 c 0
 185 564 165 474 148 381 c 0
 123 236 114 49 290 49 c 0
 425 49 510 139 555 277 c 0
 594 397 615 518 643 651 c 0
 646 667 659 681 677 681 c 0
 692 681 702 668 699 653 c 0
575 835 m 2
 417 741 l 2
 409 736 400 732 394 732 c 0
 380 732 371 744 374 759 c 0
 375 765 378 772 383 776 c 2
 531 879 l 2
 541 886 553 894 564 894 c 0
 583 894 594 878 590 858 c 0
 588 849 583 840 575 835 c 2
EndSplineSet
EndChar
StartChar: Ucircumflex
Encoding: 219 219 176
Width: 683
Flags: MW
HStem: 0 49<202 357.5 202 366.5> 875 20G<494 500.5>
LayerCount: 2
Back
Fore
SplineSet
699 653 m 0
 677 527 655 400 610 270 c 0
 555 110 455 0 278 0 c 0
 110 0 47 125 90 367 c 0
 108 474 131 569 151 654 c 0
 154 670 170 681 184 681 c 0
 199 681 210 669 206 653 c 0
 185 564 165 474 148 381 c 0
 123 236 114 49 290 49 c 0
 425 49 510 139 555 277 c 0
 594 397 615 518 643 651 c 0
 646 667 659 681 677 681 c 0
 692 681 702 668 699 653 c 0
515 887 m 2
 602 777 l 2
 607 772 608 765 606 757 c 0
 603 743 589 731 575 731 c 0
 568 731 561 733 557 738 c 2
 480 825 l 1
 346 736 l 2
 340 732 334 731 328 731 c 0
 314 731 304 742 307 757 c 0
 309 765 314 773 322 778 c 2
 476 888 l 2
 483 893 491 895 497 895 c 0
 504 895 510 892 515 887 c 2
EndSplineSet
EndChar
StartChar: Udieresis
Encoding: 220 220 177
Width: 683
Flags: MW
HStem: 0 49<202 357.5 202 366.5> 733 83<371 375.5 530 534.5>
LayerCount: 2
Back
Fore
SplineSet
699 653 m 0
 677 527 655 400 610 270 c 0
 555 110 455 0 278 0 c 0
 110 0 47 125 90 367 c 0
 108 474 131 569 151 654 c 0
 154 670 170 681 184 681 c 0
 199 681 210 669 206 653 c 0
 185 564 165 474 148 381 c 0
 123 236 114 49 290 49 c 0
 425 49 510 139 555 277 c 0
 594 397 615 518 643 651 c 0
 646 667 659 681 677 681 c 0
 692 681 702 668 699 653 c 0
422 777 m 0
 417 753 390 733 361 733 c 0
 336 733 320 749 325 772 c 0
 329 795 357 816 385 816 c 0
 408 816 426 799 422 777 c 0
581 777 m 0
 576 753 549 733 520 733 c 0
 495 733 479 749 484 772 c 0
 488 795 516 816 544 816 c 0
 567 816 585 799 581 777 c 0
EndSplineSet
EndChar
StartChar: Thorn
Encoding: 222 222 117
Width: 547
Flags: MW
HStem: 0 21G<28 42.5> 143 55<91 104> 519 53<202 258 184 294> 519 161<174 294>
LayerCount: 2
Back
Fore
SplineSet
184 572 m 1xe0
 332 572 536 553 498 375 c 0
 461 198 234 146 91 143 c 1
 66 25 l 2
 63 11 50 0 35 0 c 0
 21 0 12 11 15 26 c 2
 151 655 l 2
 154 669 167 680 181 680 c 0xd0
 195 680 205 669 202 654 c 2
 184 572 l 1xe0
104 198 m 1
 206 199 418 236 447 375 c 0
 467 466 379 519 209 519 c 0
 195 519 183 519 173 518 c 1
 104 198 l 1
EndSplineSet
EndChar
StartChar: germandbls
Encoding: 223 223 126
Width: 525
Flags: MW
HStem: -25 52<216 267 216 270.5> -1 21G<28 42> 587 52<266.5 327.5>
LayerCount: 2
Back
Fore
SplineSet
217 -25 m 0xa0
 179 -25 113 -11 120 21 c 0
 123 36 138 47 151 47 c 0
 155 47 159 46 163 44 c 0
 182 33 204 27 228 27 c 0xa0
 306 27 387 93 404 173 c 0
 421 252 374 330 269 317 c 0
 260 316 249 314 239 314 c 0
 226 314 216 325 219 339 c 0
 222 353 234 365 248 366 c 2
 264 367 l 2
 319 371 372 421 384 476 c 0
 397 537 358 587 297 587 c 0
 236 587 176 537 163 476 c 2
 67 25 l 2
 64 11 49 -1 35 -1 c 0x60
 21 -1 12 11 15 25 c 2
 111 476 l 2
 130 566 218 639 308 639 c 0
 397 639 455 566 436 476 c 0
 426 432 399 391 362 360 c 1
 436 334 475 261 456 172 c 0
 433 65 324 -25 217 -25 c 0xa0
EndSplineSet
EndChar
StartChar: agrave
Encoding: 224 224 135
Width: 505
Flags: MW
HStem: -10 21G<344.5 362> -2 55<144.5 209.5> 449 55<263.5 349> 727 20G<328 342.5>
LayerCount: 2
Back
Fore
SplineSet
483 463 m 1x70
 389 20 l 2
 385 4 370 -10 354 -10 c 0xb0
 335 -10 330 5 333 22 c 2
 338 45 l 1
 297 23 237 -2 182 -2 c 0
 74 -2 13 85 40 214 c 0
 62 318 167 504 341 504 c 0
 415 504 470 471 483 463 c 1x70
350 111 m 1
 421 428 l 1
 404 436 366 449 332 449 c 0
 195 449 115 299 97 216 c 0
 83 146 97 53 192 53 c 0x70
 253 53 324 95 350 111 c 1
393 567 m 2
 301 688 l 2
 295 695 293 703 295 713 c 0
 299 731 319 747 337 747 c 0
 348 747 358 740 363 732 c 2
 440 602 l 2
 444 595 445 590 444 584 c 0
 440 569 424 558 410 558 c 0
 402 558 397 562 393 567 c 2
EndSplineSet
EndChar
StartChar: aacute
Encoding: 225 225 134
Width: 505
Flags: MW
HStem: -10 21G<344.5 362> -2 55<144.5 209.5> 449 55<263.5 349> 705 20G<485.5 500.5>
LayerCount: 2
Back
Fore
SplineSet
483 463 m 1x70
 389 20 l 2
 385 4 370 -10 354 -10 c 0xb0
 335 -10 330 5 333 22 c 2
 338 45 l 1
 297 23 237 -2 182 -2 c 0
 74 -2 13 85 40 214 c 0
 62 318 167 504 341 504 c 0
 415 504 470 471 483 463 c 1x70
350 111 m 1
 421 428 l 1
 404 436 366 449 332 449 c 0
 195 449 115 299 97 216 c 0
 83 146 97 53 192 53 c 0x70
 253 53 324 95 350 111 c 1
502 666 m 2
 344 572 l 2
 336 567 327 563 321 563 c 0
 307 563 298 575 301 590 c 0
 302 596 305 603 311 607 c 2
 458 710 l 2
 468 717 480 725 491 725 c 0
 510 725 521 709 517 689 c 0
 515 680 510 671 502 666 c 2
EndSplineSet
EndChar
StartChar: acircumflex
Encoding: 226 226 131
Width: 505
Flags: MW
HStem: -10 21G<344.5 362> -2 55<144.5 209.5> 449 55<263.5 349> 504 70<233 378> 718 20G<405 411.5>
LayerCount: 2
Back
Fore
SplineSet
483 463 m 1x68
 389 20 l 2
 385 4 370 -10 354 -10 c 0xa8
 335 -10 330 5 333 22 c 2
 338 45 l 1
 297 23 237 -2 182 -2 c 0
 74 -2 13 85 40 214 c 0
 62 318 167 504 341 504 c 0
 415 504 470 471 483 463 c 1x68
350 111 m 1
 421 428 l 1
 404 436 366 449 332 449 c 0
 195 449 115 299 97 216 c 0
 83 146 97 53 192 53 c 0x68
 253 53 324 95 350 111 c 1
427 730 m 2
 513 620 l 2
 518 615 520 608 518 600 c 0
 515 586 501 574 487 574 c 0
 480 574 473 576 469 581 c 2
 391 668 l 1
 258 579 l 2
 252 575 246 574 240 574 c 0x58
 226 574 216 585 219 600 c 0
 221 608 225 616 233 621 c 2
 388 731 l 2
 395 736 402 738 408 738 c 0
 415 738 422 735 427 730 c 2
EndSplineSet
EndChar
StartChar: atilde
Encoding: 227 227 132
Width: 505
Flags: MW
HStem: -10 21G<344.5 362> -2 55<144.5 209.5> 449 55<263.5 349> 556 42<395.5 419 395.5 427.5> 579 127<177 313.5> 664 42<275.5 290.5>
LayerCount: 2
Back
Fore
SplineSet
483 463 m 1x74
 389 20 l 2
 385 4 370 -10 354 -10 c 0xb4
 335 -10 330 5 333 22 c 2
 338 45 l 1
 297 23 237 -2 182 -2 c 0
 74 -2 13 85 40 214 c 0
 62 318 167 504 341 504 c 0
 415 504 470 471 483 463 c 1x74
350 111 m 1
 421 428 l 1
 404 436 366 449 332 449 c 0
 195 449 115 299 97 216 c 0
 83 146 97 53 192 53 c 0x74
 253 53 324 95 350 111 c 1
480 676 m 0
 486 686 498 693 508 693 c 0
 522 693 531 682 529 669 c 0
 528 664 526 661 523 655 c 0
 505 624 460 556 395 556 c 0
 350 556 332 588 318 616 c 0
 305 642 299 664 282 664 c 0
 269 664 239 647 213 598 c 0x74
 206 585 196 579 184 579 c 0
 170 579 160 590 163 604 c 0
 166 619 180 636 188 647 c 0
 218 685 254 706 291 706 c 0x68
 336 706 353 673 367 646 c 0
 380 620 387 598 404 598 c 0
 434 598 463 647 480 676 c 0
EndSplineSet
EndChar
StartChar: adieresis
Encoding: 228 228 133
Width: 505
Flags: MW
HStem: -10 21G<344.5 362> -2 55<144.5 209.5> 449 55<263.5 349> 576 83<279 283.5 438 442.5>
LayerCount: 2
Back
Fore
SplineSet
483 463 m 1x70
 389 20 l 2
 385 4 370 -10 354 -10 c 0xb0
 335 -10 330 5 333 22 c 2
 338 45 l 1
 297 23 237 -2 182 -2 c 0
 74 -2 13 85 40 214 c 0
 62 318 167 504 341 504 c 0
 415 504 470 471 483 463 c 1x70
350 111 m 1
 421 428 l 1
 404 436 366 449 332 449 c 0
 195 449 115 299 97 216 c 0
 83 146 97 53 192 53 c 0x70
 253 53 324 95 350 111 c 1
329 620 m 0
 324 596 298 576 269 576 c 0
 244 576 227 592 232 615 c 0
 237 638 265 659 293 659 c 0
 316 659 334 642 329 620 c 0
488 620 m 0
 483 596 457 576 428 576 c 0
 403 576 386 592 391 615 c 0
 396 638 424 659 452 659 c 0
 475 659 493 642 488 620 c 0
EndSplineSet
EndChar
StartChar: aring
Encoding: 229 229 130
Width: 505
Flags: MW
HStem: -10 21G<344.5 362> -2 55<144.5 209.5> 449 55<263.5 349> 563 46<352 389.5> 735 47<391 432.5>
LayerCount: 2
Back
Fore
SplineSet
483 463 m 1x78
 389 20 l 2
 385 4 370 -10 354 -10 c 0xb8
 335 -10 330 5 333 22 c 2
 338 45 l 1
 297 23 237 -2 182 -2 c 0
 74 -2 13 85 40 214 c 0
 62 318 167 504 341 504 c 0
 415 504 470 471 483 463 c 1x78
350 111 m 1
 421 428 l 1
 404 436 366 449 332 449 c 0
 195 449 115 299 97 216 c 0
 83 146 97 53 192 53 c 0x78
 253 53 324 95 350 111 c 1
356 563 m 0
 294 563 252 608 264 665 c 0
 278 733 357 782 425 782 c 0
 485 782 528 737 516 679 c 0
 501 610 423 563 356 563 c 0
411 735 m 0
 357 735 312 695 306 665 c 0
 298 630 329 609 375 609 c 0
 410 609 464 635 473 677 c 0
 480 706 454 735 411 735 c 0
EndSplineSet
EndChar
StartChar: ae
Encoding: 230 230 121
Width: 832
Flags: MW
HStem: 0 21G<336.5 352 518.5 587.5> 8 44 430 53<612 663.5> 445 53<265.5 339>
LayerCount: 2
Back
Fore
SplineSet
468 458 m 1x50
 455 398 l 1
 511 455 582 483 642 483 c 0
 762 483 801 397 792 354 c 0
 789 343 781 334 764 325 c 2
 417 147 l 1
 439 78 494 52 575 52 c 0x60
 618 52 671 77 704 108 c 0
 710 113 717 116 724 116 c 0
 739 116 748 105 745 90 c 0
 743 83 739 76 734 72 c 0
 690 32 618 0 557 0 c 0
 480 0 422 27 389 82 c 1
 377 27 l 2
 374 14 359 0 345 0 c 0xa0
 328 0 319 14 322 27 c 2
 328 53 l 1
 289 32 231 8 179 8 c 0
 75 8 13 86 40 214 c 0
 75 380 206 498 325 498 c 0
 390 498 454 470 468 458 c 1x50
339 117 m 1
 410 424 l 1
 394 432 356 445 322 445 c 0x50
 189 445 112 298 95 217 c 0
 76 131 107 61 186 61 c 0
 237 61 308 95 339 117 c 1
631 430 m 0x60
 534 430 440 345 415 229 c 0
 413 218 411 209 411 198 c 1
 739 361 l 1
 725 411 696 430 631 430 c 0x60
EndSplineSet
EndChar
StartChar: ccedilla
Encoding: 231 231 179
Width: 509
Flags: MW
HStem: -201 42<178.5 203.5 178.5 206> -61 42<208 224.5> 0 52<214 222 214 214> 448 52<280.5 340>
LayerCount: 2
Back
Fore
SplineSet
158 -33 m 2
 178 2 l 1
 81 18 17 105 40 216 c 0
 51 265 74 309 90 335 c 0
 130 401 226 500 323 500 c 0
 397 500 429 474 458 430 c 0
 461 426 462 418 461 411 c 0
 458 396 443 384 428 384 c 0
 420 384 414 388 410 393 c 0
 390 426 366 448 314 448 c 0
 247 448 170 373 135 316 c 0
 112 278 100 245 94 218 c 0
 67 90 174 52 218 52 c 0
 290 52 339 84 377 123 c 0
 382 129 393 139 406 139 c 0
 421 139 430 127 427 112 c 0
 426 105 421 99 415 93 c 0
 372 43 296 3 222 0 c 2
 214 0 l 1
 208 -19 l 1
 276 -19 301 -62 291 -110 c 0
 280 -160 231 -201 181 -201 c 0
 149 -201 106 -179 113 -146 c 0
 115 -138 126 -128 138 -128 c 0
 146 -128 150 -133 154 -139 c 0
 160 -148 167 -159 190 -159 c 0
 217 -159 243 -137 249 -110 c 0
 255 -83 238 -61 211 -61 c 0
 196 -61 185 -67 177 -71 c 0
 173 -74 168 -76 164 -76 c 0
 153 -76 145 -68 148 -56 c 0
 149 -50 152 -43 158 -33 c 2
EndSplineSet
EndChar
StartChar: ecircumflex
Encoding: 234 234 182
Width: 521
Flags: MW
HStem: 0 52<214.5 275.5> 446 53<263 351.5> 499 75<226 390.5> 718 20G<398 404.5>
LayerCount: 2
Back
Fore
SplineSet
435 90 m 0xd0
 433 83 429 76 424 72 c 0
 380 32 306 0 245 0 c 0
 92 0 20 114 46 238 c 0
 75 376 190 499 326 499 c 0
 455 499 493 409 484 366 c 0
 482 355 474 346 456 337 c 2
 99 155 l 1
 122 86 174 52 255 52 c 0
 298 52 361 77 394 108 c 0
 400 113 407 116 414 116 c 0
 429 116 438 105 435 90 c 0xd0
314 446 m 0
 212 446 122 353 97 237 c 0
 95 226 93 217 92 206 c 1
 432 373 l 1
 424 420 389 446 314 446 c 0
420 730 m 2
 506 620 l 2
 511 615 513 608 511 600 c 0
 508 586 494 574 480 574 c 0
 473 574 466 576 462 581 c 2
 384 668 l 1
 251 579 l 2
 245 575 239 574 233 574 c 0xb0
 219 574 209 585 212 600 c 0
 214 608 218 616 226 621 c 2
 381 731 l 2
 388 736 395 738 401 738 c 0
 408 738 415 735 420 730 c 2
EndSplineSet
EndChar
StartChar: edieresis
Encoding: 235 235 183
Width: 521
Flags: MW
HStem: 0 52<214.5 275.5> 446 53<263 351.5> 576 83<285 289.5 444 448.5>
LayerCount: 2
Back
Fore
SplineSet
435 90 m 0
 433 83 429 76 424 72 c 0
 380 32 306 0 245 0 c 0
 92 0 20 114 46 238 c 0
 75 376 190 499 326 499 c 0
 455 499 493 409 484 366 c 0
 482 355 474 346 456 337 c 2
 99 155 l 1
 122 86 174 52 255 52 c 0
 298 52 361 77 394 108 c 0
 400 113 407 116 414 116 c 0
 429 116 438 105 435 90 c 0
314 446 m 0
 212 446 122 353 97 237 c 0
 95 226 93 217 92 206 c 1
 432 373 l 1
 424 420 389 446 314 446 c 0
335 620 m 0
 330 596 304 576 275 576 c 0
 250 576 233 592 238 615 c 0
 243 638 271 659 299 659 c 0
 322 659 340 642 335 620 c 0
494 620 m 0
 489 596 463 576 434 576 c 0
 409 576 392 592 397 615 c 0
 402 638 430 659 458 659 c 0
 481 659 499 642 494 620 c 0
EndSplineSet
EndChar
StartChar: igrave
Encoding: 236 236 184
Width: 194
Flags: MW
HStem: 0 21G<31 47> 727 20G<144 158.5>
LayerCount: 2
Back
Fore
SplineSet
173 467 m 2
 173 467 74 29 74 29 c 2
 70 13 55 0 39 0 c 0
 23 0 12 13 16 29 c 2
 16 29 115 467 115 467 c 2
 118 483 134 496 150 496 c 0
 166 496 176 483 173 467 c 2
209 567 m 2
 117 688 l 2
 111 695 109 703 111 713 c 0
 115 731 135 747 153 747 c 0
 164 747 174 740 179 732 c 2
 256 602 l 2
 260 595 261 590 260 584 c 0
 256 569 240 558 226 558 c 0
 218 558 213 562 209 567 c 2
EndSplineSet
EndChar
StartChar: iacute
Encoding: 237 237 185
Width: 194
Flags: MW
HStem: 0 21G<31 47> 705 20G<259.5 274.5>
LayerCount: 2
Back
Fore
SplineSet
173 467 m 2
 173 467 74 29 74 29 c 2
 70 13 55 0 39 0 c 0
 23 0 12 13 16 29 c 2
 16 29 115 467 115 467 c 2
 118 483 134 496 150 496 c 0
 166 496 176 483 173 467 c 2
276 666 m 2
 118 572 l 2
 110 567 101 563 95 563 c 0
 81 563 72 575 75 590 c 0
 76 596 79 603 85 607 c 2
 232 710 l 2
 242 717 254 725 265 725 c 0
 284 725 295 709 291 689 c 0
 289 680 284 671 276 666 c 2
EndSplineSet
EndChar
StartChar: icircumflex
Encoding: 238 238 186
Width: 234
Flags: MW
HStem: 0 21G<55 71> 718 20G<234 240.5>
LayerCount: 2
Back
Fore
SplineSet
197 467 m 2
 197 467 98 29 98 29 c 2
 94 13 79 0 63 0 c 0
 47 0 36 13 40 29 c 2
 40 29 139 467 139 467 c 2
 142 483 158 496 174 496 c 0
 190 496 200 483 197 467 c 2
256 730 m 2
 342 620 l 2
 347 615 349 608 347 600 c 0
 344 586 330 574 316 574 c 0
 309 574 302 576 298 581 c 2
 220 668 l 1
 87 579 l 2
 81 575 75 574 69 574 c 0
 55 574 45 585 48 600 c 0
 50 608 54 616 62 621 c 2
 217 731 l 2
 224 736 231 738 237 738 c 0
 244 738 251 735 256 730 c 2
EndSplineSet
EndChar
StartChar: idieresis
Encoding: 239 239 187
Width: 258
Flags: MW
HStem: 0 21G<60 76> 576 83<127 131.5 286 290.5>
LayerCount: 2
Back
Fore
SplineSet
202 467 m 2
 202 467 103 29 103 29 c 2
 99 13 84 0 68 0 c 0
 52 0 41 13 45 29 c 2
 45 29 144 467 144 467 c 2
 147 483 163 496 179 496 c 0
 195 496 205 483 202 467 c 2
177 620 m 0
 172 596 146 576 117 576 c 0
 92 576 75 592 80 615 c 0
 85 638 113 659 141 659 c 0
 164 659 182 642 177 620 c 0
336 620 m 0
 331 596 305 576 276 576 c 0
 251 576 234 592 239 615 c 0
 244 638 272 659 300 659 c 0
 323 659 341 642 336 620 c 0
EndSplineSet
EndChar
StartChar: eth
Encoding: 240 240 116
Width: 482
Flags: MW
HStem: 1 51<138.5 223.5 138.5 227.5> 386 50 651 20G<447 458.5>
LayerCount: 2
Back
Fore
SplineSet
344 584 m 1
 406 498 457 379 431 256 c 0
 404 129 295 1 160 1 c 0
 67 1 10 72 32 178 c 0
 66 335 197 430 360 436 c 1
 342 483 316 525 293 558 c 1
 197 510 169 488 159 488 c 0
 148 488 142 497 144 508 c 0
 146 516 152 522 163 529 c 0
 184 543 221 561 270 588 c 1
 251 614 231 624 235 641 c 0
 238 655 253 667 266 667 c 0
 272 667 277 665 281 661 c 0
 283 660 294 650 322 614 c 1
 358 632 440 671 454 671 c 0
 463 671 472 664 469 652 c 0
 468 646 465 640 456 636 c 0
 419 620 377 601 344 584 c 1
171 52 m 0
 276 52 358 153 381 259 c 0
 390 302 386 346 376 386 c 1
 248 386 116 330 83 177 c 0
 67 100 106 52 171 52 c 0
EndSplineSet
EndChar
StartChar: ntilde
Encoding: 241 241 188
Width: 535
Flags: MW
HStem: 0 21G<30.5 46.5 380.5 396> 445 54<342 416.5> 556 42<419.5 443 419.5 451.5> 579 127<201 337.5> 664 42<299.5 314.5>
LayerCount: 2
Back
Fore
SplineSet
166 473 m 2xe8
 128 292 l 1
 172 406 273 499 379 499 c 0
 523 499 492 351 420 29 c 0
 416 13 404 0 388 0 c 0
 373 0 363 13 366 28 c 0
 420 305 469 445 364 445 c 0
 320 445 263 424 189 326 c 0
 142 264 105 181 89 111 c 2
 71 30 l 2
 67 13 55 0 38 0 c 0
 23 0 12 12 15 26 c 2
 110 473 l 2
 113 488 129 500 144 500 c 0
 159 500 169 488 166 473 c 2xe8
504 676 m 0
 510 686 522 693 532 693 c 0
 546 693 555 682 553 669 c 0
 552 664 550 661 547 655 c 0
 529 624 484 556 419 556 c 0
 374 556 356 588 342 616 c 0
 329 642 323 664 306 664 c 0
 293 664 263 647 237 598 c 0xe8
 230 585 220 579 208 579 c 0
 194 579 184 590 187 604 c 0
 190 619 204 636 212 647 c 0
 242 685 278 706 315 706 c 0xd0
 360 706 377 673 391 646 c 0
 404 620 411 598 428 598 c 0
 458 598 487 647 504 676 c 0
EndSplineSet
EndChar
StartChar: ograve
Encoding: 242 242 189
Width: 535
Flags: MW
HStem: 0 48<163.5 252.5 163.5 260> 452 48<272.5 360.5> 727 20G<334 348.5>
LayerCount: 2
Back
Fore
SplineSet
197 0 m 0
 82 0 17 104 43 230 c 0
 74 376 208 500 334 500 c 0
 448 500 513 394 487 270 c 0
 456 123 323 0 197 0 c 0
319 452 m 0
 226 452 126 349 101 232 c 0
 80 133 120 48 207 48 c 0
 298 48 403 149 428 265 c 0
 449 365 402 452 319 452 c 0
399 567 m 2
 307 688 l 2
 301 695 299 703 301 713 c 0
 305 731 325 747 343 747 c 0
 354 747 364 740 369 732 c 2
 446 602 l 2
 450 595 451 590 450 584 c 0
 446 569 430 558 416 558 c 0
 408 558 403 562 399 567 c 2
EndSplineSet
EndChar
StartChar: oacute
Encoding: 243 243 190
Width: 535
Flags: MW
HStem: 0 48<163.5 252.5 163.5 260> 452 48<272.5 360.5> 705 20G<456.5 471.5>
LayerCount: 2
Back
Fore
SplineSet
197 0 m 0
 82 0 17 104 43 230 c 0
 74 376 208 500 334 500 c 0
 448 500 513 394 487 270 c 0
 456 123 323 0 197 0 c 0
319 452 m 0
 226 452 126 349 101 232 c 0
 80 133 120 48 207 48 c 0
 298 48 403 149 428 265 c 0
 449 365 402 452 319 452 c 0
473 666 m 2
 315 572 l 2
 307 567 298 563 292 563 c 0
 278 563 269 575 272 590 c 0
 273 596 276 603 282 607 c 2
 429 710 l 2
 439 717 451 725 462 725 c 0
 481 725 492 709 488 689 c 0
 486 680 481 671 473 666 c 2
EndSplineSet
EndChar
StartChar: ocircumflex
Encoding: 244 244 191
Width: 535
Flags: MW
HStem: 0 48<163.5 252.5 163.5 260> 452 48<272.5 360.5> 500 74<241 391> 718 20G<413 419.5>
LayerCount: 2
Back
Fore
SplineSet
197 0 m 0xd0
 82 0 17 104 43 230 c 0
 74 376 208 500 334 500 c 0
 448 500 513 394 487 270 c 0
 456 123 323 0 197 0 c 0xd0
319 452 m 0
 226 452 126 349 101 232 c 0
 80 133 120 48 207 48 c 0
 298 48 403 149 428 265 c 0
 449 365 402 452 319 452 c 0
435 730 m 2
 521 620 l 2
 526 615 528 608 526 600 c 0
 523 586 509 574 495 574 c 0
 488 574 481 576 477 581 c 2
 399 668 l 1
 266 579 l 2
 260 575 254 574 248 574 c 0xb0
 234 574 224 585 227 600 c 0
 229 608 233 616 241 621 c 2
 396 731 l 2
 403 736 410 738 416 738 c 0
 423 738 430 735 435 730 c 2
EndSplineSet
EndChar
StartChar: otilde
Encoding: 245 245 192
Width: 535
Flags: MW
HStem: 0 48<163.5 252.5 163.5 260> 452 48<272.5 360.5> 556 42<435.5 459 435.5 467.5> 579 127<217 353.5> 664 42<315.5 330.5>
LayerCount: 2
Back
Fore
SplineSet
197 0 m 0xe8
 82 0 17 104 43 230 c 0
 74 376 208 500 334 500 c 0
 448 500 513 394 487 270 c 0
 456 123 323 0 197 0 c 0xe8
319 452 m 0
 226 452 126 349 101 232 c 0
 80 133 120 48 207 48 c 0
 298 48 403 149 428 265 c 0
 449 365 402 452 319 452 c 0
520 676 m 0
 526 686 538 693 548 693 c 0
 562 693 571 682 569 669 c 0
 568 664 566 661 563 655 c 0
 545 624 500 556 435 556 c 0
 390 556 372 588 358 616 c 0
 345 642 339 664 322 664 c 0
 309 664 279 647 253 598 c 0xe8
 246 585 236 579 224 579 c 0
 210 579 200 590 203 604 c 0
 206 619 220 636 228 647 c 0
 258 685 294 706 331 706 c 0xd0
 376 706 393 673 407 646 c 0
 420 620 427 598 444 598 c 0
 474 598 503 647 520 676 c 0
EndSplineSet
EndChar
StartChar: odieresis
Encoding: 246 246 193
Width: 535
Flags: MW
HStem: 0 48<163.5 252.5 163.5 260> 452 48<272.5 360.5> 576 83<294 298.5 453 457.5>
LayerCount: 2
Back
Fore
SplineSet
197 0 m 0
 82 0 17 104 43 230 c 0
 74 376 208 500 334 500 c 0
 448 500 513 394 487 270 c 0
 456 123 323 0 197 0 c 0
319 452 m 0
 226 452 126 349 101 232 c 0
 80 133 120 48 207 48 c 0
 298 48 403 149 428 265 c 0
 449 365 402 452 319 452 c 0
344 620 m 0
 339 596 313 576 284 576 c 0
 259 576 242 592 247 615 c 0
 252 638 280 659 308 659 c 0
 331 659 349 642 344 620 c 0
503 620 m 0
 498 596 472 576 443 576 c 0
 418 576 401 592 406 615 c 0
 411 638 439 659 467 659 c 0
 490 659 508 642 503 620 c 0
EndSplineSet
EndChar
StartChar: divide
Encoding: 247 247 194
Width: 433
Flags: MW
HStem: 116 70<221 258> 217 52<127 402 145 391> 300 70<276 313>
CounterMasks: 1 e0
LayerCount: 2
Back
Fore
SplineSet
391 217 m 2
 134 217 l 2
 120 217 109 229 112 243 c 0
 115 258 131 269 145 269 c 2
 402 269 l 2
 417 269 426 258 423 243 c 0
 420 229 406 217 391 217 c 2
284 300 m 0
 268 300 260 314 264 332 c 0
 268 351 287 370 306 370 c 0
 320 370 329 357 326 341 c 0
 321 318 302 300 284 300 c 0
229 116 m 0
 213 116 205 130 209 148 c 0
 213 167 232 186 251 186 c 0
 265 186 274 173 271 157 c 0
 266 134 247 116 229 116 c 0
EndSplineSet
EndChar
StartChar: oslash
Encoding: 248 248 195
Width: 535
Flags: MW
HStem: -35 21G<39 50.5> 0 48<194 252.5 194 260> 452 48<272.5 330> 524 20G<473.5 484.5>
LayerCount: 2
Back
Fore
SplineSet
197 0 m 0
 163 0 132 9 108 25 c 1
 71 -22 l 2
 64 -30 55 -35 46 -35 c 0
 32 -35 23 -22 27 -7 c 0
 28 -3 30 0 32 4 c 2
 74 56 l 1
 42 99 29 161 43 230 c 0
 74 376 208 500 334 500 c 0
 363 500 389 493 412 480 c 1
 454 532 l 2
 460 540 469 544 478 544 c 0
 491 544 502 533 499 519 c 0
 498 515 496 511 492 506 c 2
 448 451 l 1
 486 408 502 342 487 270 c 0
 456 123 323 0 197 0 c 0
207 48 m 0
 298 48 403 149 428 265 c 0
 439 318 431 367 409 402 c 1
 142 68 l 1
 159 55 181 48 207 48 c 0
319 452 m 0
 226 452 126 349 101 232 c 0
 90 183 95 138 113 104 c 1
 376 435 l 1
 360 446 341 452 319 452 c 0
EndSplineSet
EndChar
StartChar: ugrave
Encoding: 249 249 196
Width: 512
Flags: MW
HStem: -3 49<121.5 199.5> 0 21G<352.5 370> 723 20G<307 321.5>
LayerCount: 2
Back
Fore
SplineSet
492 475 m 2xa0
 397 28 l 2
 394 13 378 0 362 0 c 0x60
 343 0 334 15 338 33 c 2
 347 76 l 1
 314 40 238 -3 161 -3 c 0
 9 -3 42 143 72 291 c 0
 88 368 108 428 122 466 c 0
 132 495 142 500 156 500 c 0
 171 500 182 489 178 474 c 0
 171 450 146 384 127 292 c 0
 101 170 72 46 171 46 c 0
 240 46 320 94 347 118 c 0
 363 133 369 161 369 161 c 1
 440 475 l 2
 444 490 458 500 472 500 c 0
 486 500 496 490 492 475 c 2xa0
372 563 m 2
 280 684 l 2
 274 691 272 699 274 709 c 0
 278 727 298 743 316 743 c 0
 327 743 337 736 342 728 c 2
 420 598 l 2
 423 591 424 586 423 580 c 0
 420 565 403 554 389 554 c 0
 381 554 376 558 372 563 c 2
EndSplineSet
EndChar
StartChar: uacute
Encoding: 250 250 197
Width: 512
Flags: MW
HStem: -3 49<121.5 199.5> 0 21G<352.5 370> 702 20G<454.5 469.5>
LayerCount: 2
Back
Fore
SplineSet
492 475 m 2xa0
 397 28 l 2
 394 13 378 0 362 0 c 0x60
 343 0 334 15 338 33 c 2
 347 76 l 1
 314 40 238 -3 161 -3 c 0
 9 -3 42 143 72 291 c 0
 88 368 108 428 122 466 c 0
 132 495 142 500 156 500 c 0
 171 500 182 489 178 474 c 0
 171 450 146 384 127 292 c 0
 101 170 72 46 171 46 c 0
 240 46 320 94 347 118 c 0
 363 133 369 161 369 161 c 1
 440 475 l 2
 444 490 458 500 472 500 c 0
 486 500 496 490 492 475 c 2xa0
471 663 m 2
 313 569 l 2
 305 564 297 560 291 560 c 0
 277 560 267 572 270 587 c 0
 272 593 274 600 280 604 c 2
 428 707 l 2
 437 714 449 722 460 722 c 0
 479 722 491 706 486 686 c 0
 484 677 479 668 471 663 c 2
EndSplineSet
EndChar
StartChar: ucircumflex
Encoding: 251 251 198
Width: 512
Flags: MW
HStem: -3 49<121.5 199.5> 0 21G<352.5 370> 500 70<149 230 470.5 479> 714 20G<393 399.5>
LayerCount: 2
Back
Fore
SplineSet
492 475 m 2xb0
 397 28 l 2
 394 13 378 0 362 0 c 0x70
 343 0 334 15 338 33 c 2
 347 76 l 1
 314 40 238 -3 161 -3 c 0
 9 -3 42 143 72 291 c 0
 88 368 108 428 122 466 c 0
 132 495 142 500 156 500 c 0
 171 500 182 489 178 474 c 0
 171 450 146 384 127 292 c 0
 101 170 72 46 171 46 c 0
 240 46 320 94 347 118 c 0
 363 133 369 161 369 161 c 1
 440 475 l 2
 444 490 458 500 472 500 c 0
 486 500 496 490 492 475 c 2xb0
414 726 m 2
 500 616 l 2
 505 611 507 604 505 596 c 0
 502 582 488 570 474 570 c 0
 467 570 460 572 456 577 c 2
 379 664 l 1
 245 575 l 2
 239 571 233 570 227 570 c 0
 213 570 203 581 206 596 c 0
 208 604 213 612 221 617 c 2
 375 727 l 2
 382 732 390 734 396 734 c 0
 403 734 409 731 414 726 c 2
EndSplineSet
EndChar
StartChar: udieresis
Encoding: 252 252 199
Width: 512
Flags: MW
HStem: -3 49<121.5 199.5> 0 21G<352.5 370> 576 83<267 271.5 426 430.5>
LayerCount: 2
Back
Fore
SplineSet
492 475 m 2xa0
 397 28 l 2
 394 13 378 0 362 0 c 0x60
 343 0 334 15 338 33 c 2
 347 76 l 1
 314 40 238 -3 161 -3 c 0
 9 -3 42 143 72 291 c 0
 88 368 108 428 122 466 c 0
 132 495 142 500 156 500 c 0
 171 500 182 489 178 474 c 0
 171 450 146 384 127 292 c 0
 101 170 72 46 171 46 c 0
 240 46 320 94 347 118 c 0
 363 133 369 161 369 161 c 1
 440 475 l 2
 444 490 458 500 472 500 c 0
 486 500 496 490 492 475 c 2xa0
317 620 m 0
 312 596 286 576 257 576 c 0
 232 576 215 592 220 615 c 0
 225 638 253 659 281 659 c 0
 304 659 322 642 317 620 c 0
476 620 m 0
 471 596 445 576 416 576 c 0
 391 576 374 592 379 615 c 0
 384 638 412 659 440 659 c 0
 463 659 481 642 476 620 c 0
EndSplineSet
EndChar
StartChar: yacute
Encoding: 253 253 200
Width: 489
Flags: MW
HStem: -197 21G<41.5 55.5> 481 20G 705 20G<422.5 437.5>
LayerCount: 2
Back
Fore
SplineSet
509 461 m 2
 79 -179 l 2
 73 -189 62 -197 49 -197 c 0
 34 -197 23 -184 27 -168 c 0
 28 -164 29 -160 32 -156 c 2
 177 61 l 1
 65 456 l 2
 64 460 64 466 65 471 c 0
 68 487 83 500 99 500 c 0
 111 500 119 491 122 481 c 2
 222 127 l 1
 461 483 l 2
 467 493 479 501 492 501 c 0
 507 501 517 489 514 473 c 0
 513 469 512 465 509 461 c 2
439 666 m 2
 281 572 l 2
 273 567 264 563 258 563 c 0
 244 563 235 575 238 590 c 0
 239 596 242 603 248 607 c 2
 395 710 l 2
 405 717 417 725 428 725 c 0
 447 725 458 709 454 689 c 0
 452 680 447 671 439 666 c 2
EndSplineSet
EndChar
StartChar: thorn
Encoding: 254 254 118
Width: 520
Flags: MW
HStem: -195 21G<-11.5 3.5> 8 57<185.5 276 185.5 285> 441 49<313.5 358 313.5 386> 441 248<176 386>
LayerCount: 2
Back
Fore
SplineSet
358 490 m 1xe0
 468 485 494 376 472 271 c 0
 448 157 373 8 197 8 c 0
 145 8 102 24 73 36 c 1
 30 -167 l 2
 27 -182 11 -195 -4 -195 c 0
 -19 -195 -29 -182 -26 -167 c 2
 150 660 l 2
 153 676 168 689 184 689 c 0xd0
 200 689 209 676 206 660 c 2
 155 421 l 1
 204 459 269 490 358 490 c 1xe0
215 65 m 0
 337 65 397 151 422 271 c 0
 435 333 433 441 339 441 c 0
 234 441 163 378 141 353 c 1
 87 99 l 1
 104 90 156 65 215 65 c 0
EndSplineSet
EndChar
StartChar: ydieresis
Encoding: 255 255 201
Width: 489
Flags: MW
HStem: -197 21G<41.5 55.5> 481 20G 576 83<245 249.5 404 408.5>
LayerCount: 2
Back
Fore
SplineSet
509 461 m 2
 79 -179 l 2
 73 -189 62 -197 49 -197 c 0
 34 -197 23 -184 27 -168 c 0
 28 -164 29 -160 32 -156 c 2
 177 61 l 1
 65 456 l 2
 64 460 64 466 65 471 c 0
 68 487 83 500 99 500 c 0
 111 500 119 491 122 481 c 2
 222 127 l 1
 461 483 l 2
 467 493 479 501 492 501 c 0
 507 501 517 489 514 473 c 0
 513 469 512 465 509 461 c 2
295 620 m 0
 290 596 264 576 235 576 c 0
 210 576 193 592 198 615 c 0
 203 638 231 659 259 659 c 0
 282 659 300 642 295 620 c 0
454 620 m 0
 449 596 423 576 394 576 c 0
 369 576 352 592 357 615 c 0
 362 638 390 659 418 659 c 0
 441 659 459 642 454 620 c 0
EndSplineSet
EndChar
StartChar: Abreve
Encoding: 258 258 227
Width: 624
Flags: MW
HStem: -1 21G<483 497.5> 0 21G<15.5 29.5> 669 20G<413 424.5> 740 46<416.5 460.5 416.5 470.5> 740 136<364 587.5>
LayerCount: 2
Back
Fore
SplineSet
289 852 m 0x68
 290 860 295 871 310 871 c 0
 321 871 326 860 329 853 c 0
 343 803 398 786 435 786 c 0x70
 486 786 525 806 555 855 c 0
 563 867 570 876 583 876 c 0
 592 876 598 868 596 859 c 0
 587 814 518 740 423 740 c 0
 305 740 284 831 289 852 c 0x68
441 670 m 2
 524 37 l 2
 525 34 524 31 523 28 c 0
 520 13 506 -1 489 -1 c 0xb0
 477 -1 468 6 466 18 c 2
 434 262 l 1
 167 206 l 1
 53 18 l 2
 47 7 35 0 24 0 c 0
 7 0 -2 15 1 29 c 0
 1 32 3 36 5 39 c 2
 97 192 l 1
 80 188 78 188 76 188 c 0
 60 188 50 200 54 217 c 0
 56 230 68 241 81 244 c 2
 136 256 l 1
 387 671 l 2
 394 682 407 689 419 689 c 0
 430 689 439 681 441 670 c 2
206 270 m 1
 427 316 l 1
 392 578 l 1
 206 270 l 1
EndSplineSet
EndChar
StartChar: abreve
Encoding: 259 259 243
Width: 505
Flags: MW
HStem: -10 21G<344.5 362> -2 55<144.5 209.5> 449 55<263.5 349> 559 46<341.5 385.5 341.5 395.5> 559 136<289 512.5>
LayerCount: 2
Back
Fore
SplineSet
483 463 m 1x70
 389 20 l 2
 385 4 370 -10 354 -10 c 0xb0
 335 -10 330 5 333 22 c 2
 338 45 l 1
 297 23 237 -2 182 -2 c 0
 74 -2 13 85 40 214 c 0
 62 318 167 504 341 504 c 0
 415 504 470 471 483 463 c 1x70
350 111 m 1
 421 428 l 1
 404 436 366 449 332 449 c 0
 195 449 115 299 97 216 c 0
 83 146 97 53 192 53 c 0x68
 253 53 324 95 350 111 c 1
214 671 m 0
 216 679 220 690 235 690 c 0
 246 690 252 679 254 672 c 0
 269 622 323 605 360 605 c 0x70
 411 605 450 625 481 674 c 0
 488 686 495 695 508 695 c 0
 517 695 524 687 522 678 c 0
 512 633 443 559 348 559 c 0
 230 559 210 650 214 671 c 0
EndSplineSet
EndChar
StartChar: Aogonek
Encoding: 260 260 202
Width: 624
Flags: MW
HStem: -201 43<445 459> 0 21G 669 20G<413 424.5>
LayerCount: 2
Back
Fore
SplineSet
445 -201 m 0
 386 -200 351 -158 363 -100 c 0
 374 -48 420 -7 466 21 c 1
 434 262 l 1
 167 206 l 1
 53 18 l 2
 47 7 35 0 24 0 c 0
 7 0 -2 15 1 29 c 0
 1 32 3 36 5 39 c 2
 97 192 l 1
 80 188 78 188 76 188 c 0
 60 188 50 200 54 217 c 0
 56 230 68 241 81 244 c 2
 136 256 l 1
 387 671 l 2
 394 682 407 689 419 689 c 0
 430 689 439 681 441 670 c 2
 523 42 l 2
 527 15 508 2 487 -11 c 0
 457 -30 414 -57 405 -101 c 0
 398 -135 420 -158 454 -158 c 0
 474 -158 497 -151 521 -135 c 0
 525 -132 530 -131 535 -131 c 0
 545 -131 554 -141 551 -152 c 0
 545 -181 473 -201 445 -201 c 0
206 270 m 1
 427 316 l 1
 392 578 l 1
 206 270 l 1
EndSplineSet
EndChar
StartChar: aogonek
Encoding: 261 261 213
Width: 505
Flags: MW
HStem: -201 43<310 324> 8 55<146.5 211.5> 459 55<265.5 351>
LayerCount: 2
Back
Fore
SplineSet
310 -201 m 0
 251 -200 216 -158 228 -100 c 0
 240 -47 287 -5 334 23 c 0
 334 26 335 29 335 32 c 2
 340 55 l 1
 300 33 239 8 184 8 c 0
 76 8 15 95 42 224 c 0
 64 328 169 514 343 514 c 0
 417 514 472 481 485 473 c 1
 391 30 l 2
 387 12 370 0 352 -11 c 0
 322 -30 279 -57 270 -101 c 0
 263 -135 285 -158 319 -158 c 0
 339 -158 362 -151 386 -135 c 0
 390 -132 395 -131 400 -131 c 0
 410 -131 419 -141 416 -152 c 0
 410 -181 338 -201 310 -201 c 0
352 121 m 1
 424 438 l 1
 406 446 368 459 334 459 c 0
 197 459 117 309 100 226 c 0
 85 156 99 63 194 63 c 0
 255 63 326 105 352 121 c 1
EndSplineSet
EndChar
StartChar: Cacute
Encoding: 262 262 229
Width: 632
Flags: MW
HStem: -2 57<249 330 249 330> 538 121<568 610> 627 32 627 57<368 466.5> 892 20G<543.5 558.5>
LayerCount: 2
Back
Fore
SplineSet
531 161 m 0xa8
 546 161 558 151 554 133 c 0
 552 127 550 121 545 116 c 0
 472 40 378 -2 282 -2 c 0
 125 -2 21 126 57 296 c 0
 101 500 298 684 436 684 c 0x98
 505 684 547 664 573 644 c 1
 579 653 591 659 602 659 c 0
 618 659 627 647 624 631 c 2
 610 567 l 2
 607 551 592 538 576 538 c 0xc8
 560 538 550 551 553 567 c 2
 554 572 l 1
 539 593 509 627 424 627 c 0
 312 627 149 460 114 296 c 0
 78 124 204 55 294 55 c 0
 366 55 439 81 506 150 c 0
 515 159 523 161 531 161 c 0xa8
561 853 m 2
 403 759 l 2
 395 754 386 750 380 750 c 0
 366 750 356 762 360 777 c 0
 361 783 363 790 369 794 c 2
 517 897 l 2
 527 904 538 912 549 912 c 0
 568 912 580 896 576 876 c 0
 574 867 569 858 561 853 c 2
EndSplineSet
EndChar
StartChar: cacute
Encoding: 263 263 245
Width: 509
Flags: MW
HStem: 0 52 448 52<280.5 340> 705 20G<458.5 473.5>
LayerCount: 2
Back
Fore
SplineSet
427 112 m 0
 426 105 421 99 415 93 c 0
 372 43 296 3 222 0 c 0
 102 -6 13 89 40 216 c 0
 51 265 74 309 90 335 c 0
 130 401 226 500 323 500 c 0
 397 500 429 474 458 430 c 0
 461 426 462 418 461 411 c 0
 458 396 443 384 428 384 c 0
 420 384 414 388 410 393 c 0
 390 426 366 448 314 448 c 0
 247 448 170 373 135 316 c 0
 112 278 100 245 94 218 c 0
 67 90 174 52 218 52 c 0
 290 52 339 84 377 123 c 0
 382 129 393 139 406 139 c 0
 421 139 430 127 427 112 c 0
475 666 m 2
 317 572 l 2
 309 567 300 563 294 563 c 0
 280 563 271 575 274 590 c 0
 275 596 278 603 284 607 c 2
 431 710 l 2
 441 717 453 725 464 725 c 0
 483 725 494 709 490 689 c 0
 488 680 483 671 475 666 c 2
EndSplineSet
EndChar
StartChar: Ccaron
Encoding: 268 268 230
Width: 632
Flags: MW
HStem: -2 57<249 330 249 330> 538 121<568 610> 627 32 627 57<368 466.5> 866 20G<364 374.5 615 625>
LayerCount: 2
Back
Fore
SplineSet
531 161 m 0xa8
 546 161 558 151 554 133 c 0
 552 127 550 121 545 116 c 0
 472 40 378 -2 282 -2 c 0
 125 -2 21 126 57 296 c 0
 101 500 298 684 436 684 c 0x98
 505 684 547 664 573 644 c 1
 579 653 591 659 602 659 c 0
 618 659 627 647 624 631 c 2
 610 567 l 2
 607 551 592 538 576 538 c 0xc8
 560 538 550 551 553 567 c 2
 554 572 l 1
 539 593 509 627 424 627 c 0
 312 627 149 460 114 296 c 0
 78 124 204 55 294 55 c 0
 366 55 439 81 506 150 c 0
 515 159 523 161 531 161 c 0xa8
431 730 m 2
 344 840 l 2
 339 845 338 852 339 860 c 0
 342 874 357 886 371 886 c 0
 378 886 384 884 388 879 c 2
 466 792 l 1
 600 881 l 2
 606 885 612 886 618 886 c 0
 632 886 641 875 638 860 c 0
 637 852 632 844 624 839 c 2
 469 729 l 2
 462 724 455 722 449 722 c 0
 442 722 436 725 431 730 c 2
EndSplineSet
EndChar
StartChar: ccaron
Encoding: 269 269 246
Width: 509
Flags: MW
HStem: 0 52 448 52<280.5 340> 709 20G<250 260.5 501 511>
LayerCount: 2
Back
Fore
SplineSet
427 112 m 0
 426 105 421 99 415 93 c 0
 372 43 296 3 222 0 c 0
 102 -6 13 89 40 216 c 0
 51 265 74 309 90 335 c 0
 130 401 226 500 323 500 c 0
 397 500 429 474 458 430 c 0
 461 426 462 418 461 411 c 0
 458 396 443 384 428 384 c 0
 420 384 414 388 410 393 c 0
 390 426 366 448 314 448 c 0
 247 448 170 373 135 316 c 0
 112 278 100 245 94 218 c 0
 67 90 174 52 218 52 c 0
 290 52 339 84 377 123 c 0
 382 129 393 139 406 139 c 0
 421 139 430 127 427 112 c 0
317 573 m 2
 231 683 l 2
 226 688 224 695 226 703 c 0
 229 717 243 729 257 729 c 0
 264 729 271 727 275 722 c 2
 352 635 l 1
 486 724 l 2
 492 728 498 729 504 729 c 0
 518 729 528 718 525 703 c 0
 523 695 519 687 510 682 c 2
 356 572 l 2
 349 567 342 565 336 565 c 0
 329 565 322 568 317 573 c 2
EndSplineSet
EndChar
StartChar: Dcaron
Encoding: 270 270 233
Width: 620
Flags: MW
HStem: -20 57<146 246.5> 624 57<199 199> 866 20G<278 288.5 529 539>
LayerCount: 2
Back
Fore
SplineSet
150 -20 m 0
 91 -20 38 -5 31 -3 c 0
 19 0 12 12 15 25 c 2
 148 653 l 2
 152 669 167 681 183 681 c 0
 346 681 638 626 568 300 c 0
 521 77 343 -20 150 -20 c 0
199 624 m 1
 77 48 l 1
 98 43 130 37 162 37 c 0
 340 37 474 123 511 300 c 0
 561 532 400 615 199 624 c 1
345 730 m 2
 258 840 l 2
 253 845 252 852 253 860 c 0
 256 874 271 886 285 886 c 0
 292 886 298 884 302 879 c 2
 380 792 l 1
 514 881 l 2
 520 885 526 886 532 886 c 0
 546 886 555 875 552 860 c 0
 551 852 546 844 538 839 c 2
 383 729 l 2
 376 724 369 722 363 722 c 0
 356 722 350 725 345 730 c 2
EndSplineSet
EndChar
StartChar: dcaron
Encoding: 271 271 249
Width: 545
Flags: MW
HStem: 0 21G<356.5 374> 4 49<133 207.5> 444 54<238 335.5> 520 177<522 589.5>
LayerCount: 2
Back
Fore
SplineSet
551 667 m 2x70
 400 27 l 2
 397 11 382 0 366 0 c 0xb0
 347 0 340 17 345 34 c 2
 356 79 l 1
 313 46 247 4 168 4 c 0
 50 4 20 116 44 226 c 0
 74 368 160 498 315 498 c 0
 371 498 417 482 447 467 c 1
 494 668 l 2
 498 684 514 697 530 697 c 0
 545 697 555 683 551 667 c 2x70
99 229 m 0
 84 156 87 53 179 53 c 0x70
 283 53 368 130 376 161 c 2
 433 406 l 1
 416 416 365 444 306 444 c 0
 170 444 118 316 99 229 c 0
647 690 m 0
 665 690 676 673 672 658 c 0
 668 639 662 630 640 594 c 0
 603 536 599 520 580 520 c 0
 567 520 559 530 562 542 c 0
 562 545 564 548 566 551 c 2
 603 615 l 1
 598 622 595 633 598 645 c 0
 603 669 626 690 647 690 c 0
EndSplineSet
EndChar
StartChar: dcroat
Encoding: 273 273 250
Width: 557
Flags: MW
HStem: 0 21G<356.5 374> 4 49<133 207.5> 444 54<238 335.5> 552 51<388 479 406 467 536 591 406 524> 552 145<388 537.5 395 537.5 524 537.5 522 591 524 524>
LayerCount: 2
Back
Fore
SplineSet
551 667 m 2x68
 536 603 l 1
 602 603 l 2
 616 603 624 592 621 578 c 0
 618 564 605 552 591 552 c 2
 524 552 l 1
 400 27 l 2
 397 11 382 0 366 0 c 0xb0
 347 0 340 17 345 34 c 2
 356 79 l 1
 313 46 247 4 168 4 c 0
 50 4 20 116 44 226 c 0
 74 368 160 498 315 498 c 0
 371 498 417 482 447 467 c 1
 467 552 l 1
 395 552 l 2
 381 552 371 564 374 578 c 0
 377 592 392 603 406 603 c 2
 479 603 l 1x70
 494 668 l 2
 498 684 514 697 530 697 c 0
 545 697 555 683 551 667 c 2x68
99 229 m 0
 84 156 87 53 179 53 c 0x70
 283 53 368 130 376 161 c 2
 433 406 l 1
 416 416 365 444 306 444 c 0
 170 444 118 316 99 229 c 0
EndSplineSet
EndChar
StartChar: Eogonek
Encoding: 280 280 231
Width: 610
Flags: MW
HStem: -201 43<366 380> 0 57<31 477 79 357 425 425 425 465> 324 57<147 486 135 498> 625 57<199 599 199 199>
LayerCount: 2
Back
Fore
SplineSet
366 -201 m 0
 307 -200 272 -158 284 -100 c 0
 293 -60 322 -26 357 0 c 1
 39 0 l 2
 23 0 12 13 16 29 c 2
 149 654 l 2
 152 670 167 682 183 682 c 2
 611 682 l 2
 627 682 637 670 634 654 c 0
 630 638 615 625 599 625 c 2
 199 625 l 1
 147 381 l 1
 498 381 l 2
 514 381 524 369 521 353 c 0
 517 337 502 324 486 324 c 2
 135 324 l 1
 79 57 l 1
 477 57 l 2
 493 57 502 45 499 29 c 0
 495 13 481 0 465 0 c 2
 425 0 l 1
 408 -11 l 2
 378 -30 335 -57 326 -101 c 0
 319 -135 341 -158 375 -158 c 0
 395 -158 418 -151 442 -135 c 0
 446 -132 451 -131 456 -131 c 0
 466 -131 475 -141 472 -152 c 0
 466 -181 394 -201 366 -201 c 0
EndSplineSet
EndChar
StartChar: eogonek
Encoding: 281 281 247
Width: 521
Flags: MW
HStem: -201 43<224 238> 446 53<263 351.5>
LayerCount: 2
Back
Fore
SplineSet
224 -201 m 0
 165 -200 130 -158 142 -100 c 0
 151 -59 181 -25 216 1 c 1
 82 14 21 122 46 238 c 0
 75 376 190 499 326 499 c 0
 455 499 493 409 484 366 c 0
 482 355 474 346 456 337 c 2
 99 155 l 1
 122 86 174 52 255 52 c 0
 298 52 361 77 394 108 c 0
 400 113 407 116 414 116 c 0
 429 116 438 105 435 90 c 0
 433 83 429 76 424 72 c 0
 396 46 357 29 317 12 c 0
 256 -15 197 -42 184 -101 c 0
 177 -135 199 -158 233 -158 c 0
 253 -158 276 -151 300 -135 c 0
 304 -132 309 -131 314 -131 c 0
 324 -131 333 -141 330 -152 c 0
 324 -181 252 -201 224 -201 c 0
314 446 m 0
 212 446 122 353 97 237 c 0
 95 226 93 217 92 206 c 1
 432 373 l 1
 424 420 389 446 314 446 c 0
EndSplineSet
EndChar
StartChar: Ecaron
Encoding: 282 282 232
Width: 610
Flags: MW
HStem: 0 57<31 477 79 465> 324 57<147 486 135 498> 625 57<199 599 199 199> 866 20G<314 324.5 565 575>
LayerCount: 2
Back
Fore
SplineSet
381 730 m 2
 294 840 l 2
 289 845 288 852 289 860 c 0
 292 874 307 886 321 886 c 0
 328 886 334 884 338 879 c 2
 416 792 l 1
 550 881 l 2
 556 885 562 886 568 886 c 0
 582 886 591 875 588 860 c 0
 587 852 582 844 574 839 c 2
 419 729 l 2
 412 724 405 722 399 722 c 0
 392 722 386 725 381 730 c 2
79 57 m 1
 477 57 l 2
 493 57 502 45 499 29 c 0
 495 13 481 0 465 0 c 2
 39 0 l 2
 23 0 12 13 16 29 c 2
 149 654 l 2
 152 670 167 682 183 682 c 2
 611 682 l 2
 627 682 637 670 634 654 c 0
 630 638 615 625 599 625 c 2
 199 625 l 1
 147 381 l 1
 498 381 l 2
 514 381 524 369 521 353 c 0
 517 337 502 324 486 324 c 2
 135 324 l 1
 79 57 l 1
EndSplineSet
EndChar
StartChar: ecaron
Encoding: 283 283 248
Width: 521
Flags: MW
HStem: 0 52<214.5 275.5> 446 53<263 351.5> 709 20G<251 261.5 502 512>
LayerCount: 2
Back
Fore
SplineSet
435 90 m 0
 433 83 429 76 424 72 c 0
 380 32 306 0 245 0 c 0
 92 0 20 114 46 238 c 0
 75 376 190 499 326 499 c 0
 455 499 493 409 484 366 c 0
 482 355 474 346 456 337 c 2
 99 155 l 1
 122 86 174 52 255 52 c 0
 298 52 361 77 394 108 c 0
 400 113 407 116 414 116 c 0
 429 116 438 105 435 90 c 0
314 446 m 0
 212 446 122 353 97 237 c 0
 95 226 93 217 92 206 c 1
 432 373 l 1
 424 420 389 446 314 446 c 0
318 573 m 2
 232 683 l 2
 227 688 225 695 227 703 c 0
 230 717 244 729 258 729 c 0
 265 729 272 727 276 722 c 2
 353 635 l 1
 487 724 l 2
 493 728 499 729 505 729 c 0
 519 729 529 718 526 703 c 0
 524 695 520 687 511 682 c 2
 357 572 l 2
 350 567 343 565 337 565 c 0
 330 565 323 568 318 573 c 2
EndSplineSet
EndChar
StartChar: Lacute
Encoding: 313 313 228
Width: 477
Flags: MW
HStem: 12 57 892 20G<441.5 456.5>
LayerCount: 2
Back
Fore
SplineSet
390 24 m 2
 39 0 l 2
 23 -1 12 13 15 28 c 2
 148 653 l 2
 151 668 166 681 182 681 c 0
 197 681 207 668 204 653 c 2
 78 58 l 1
 398 80 l 2
 415 81 425 70 422 52 c 0
 419 38 405 25 390 24 c 2
459 853 m 2
 301 759 l 2
 293 754 284 750 278 750 c 0
 264 750 254 762 258 777 c 0
 259 783 261 790 267 794 c 2
 415 897 l 2
 425 904 436 912 447 912 c 0
 466 912 478 896 474 876 c 0
 472 867 467 858 459 853 c 2
EndSplineSet
EndChar
StartChar: lacute
Encoding: 314 314 244
Width: 226
Flags: MW
HStem: 0 21G<51 65> 863 20G<312.5 327.5>
LayerCount: 2
Back
Fore
SplineSet
226 663 m 2
 91 25 l 2
 88 11 72 0 58 0 c 0
 44 0 32 11 35 25 c 2
 170 663 l 2
 174 678 188 690 204 690 c 0
 219 690 230 678 226 663 c 2
330 824 m 2
 172 730 l 2
 164 725 155 721 149 721 c 0
 135 721 125 733 128 748 c 0
 130 754 132 761 138 765 c 2
 286 868 l 2
 295 875 307 883 318 883 c 0
 337 883 349 867 345 847 c 0
 343 838 338 829 330 824 c 2
EndSplineSet
EndChar
StartChar: Lcaron
Encoding: 317 317 206
Width: 477
Flags: MW
HStem: 12 57 866 20G<162 172.5 413 423>
LayerCount: 2
Back
Fore
SplineSet
390 24 m 2
 39 0 l 2
 23 -1 12 13 15 28 c 2
 148 653 l 2
 151 668 166 681 182 681 c 0
 197 681 207 668 204 653 c 2
 78 58 l 1
 398 80 l 2
 415 81 425 70 422 52 c 0
 419 38 405 25 390 24 c 2
229 730 m 2
 142 840 l 2
 137 845 136 852 137 860 c 0
 140 874 155 886 169 886 c 0
 176 886 182 884 186 879 c 2
 264 792 l 1
 398 881 l 2
 404 885 410 886 416 886 c 0
 430 886 439 875 436 860 c 0
 435 852 430 844 422 839 c 2
 267 729 l 2
 260 724 253 722 247 722 c 0
 240 722 234 725 229 730 c 2
EndSplineSet
EndChar
StartChar: lcaron
Encoding: 318 318 217
Width: 257
Flags: MW
HStem: 0 21G<51 65> 520 170<196 270.5>
LayerCount: 2
Back
Fore
SplineSet
328 690 m 0
 346 690 357 673 353 658 c 0
 349 639 343 630 321 594 c 0
 284 536 280 520 261 520 c 0
 248 520 240 530 243 542 c 0
 243 545 245 548 247 551 c 2
 284 615 l 1
 279 622 276 633 279 645 c 0
 284 669 307 690 328 690 c 0
226 663 m 2
 91 25 l 2
 88 11 72 0 58 0 c 0
 44 0 32 11 35 25 c 2
 170 663 l 2
 174 678 188 690 204 690 c 0
 219 690 230 678 226 663 c 2
EndSplineSet
EndChar
StartChar: Lslash
Encoding: 321 321 204
Width: 528
Flags: MW
HStem: 12 57 661 20G<225 240.5>
LayerCount: 2
Back
Fore
SplineSet
473 54 m 0
 470 39 458 25 441 24 c 2
 89 0 l 2
 73 -1 63 13 66 28 c 2
 123 295 l 1
 61 259 l 2
 55 256 50 255 44 255 c 0
 31 255 18 264 21 282 c 0
 24 292 29 301 40 307 c 2
 137 362 l 1
 199 653 l 2
 202 668 217 681 233 681 c 0
 248 681 258 668 255 653 c 2
 201 397 l 1
 265 433 l 2
 269 436 275 437 280 437 c 0
 295 437 307 425 303 408 c 0
 301 399 294 390 285 385 c 2
 187 330 l 1
 129 58 l 1
 449 80 l 2
 465 81 476 71 473 54 c 0
EndSplineSet
EndChar
StartChar: lslash
Encoding: 322 322 215
Width: 284
Flags: MW
HStem: 0 21G<88 102> 670 20G<233 248.5>
LayerCount: 2
Back
Fore
SplineSet
292 437 m 0
 308 437 319 424 315 408 c 0
 313 399 306 390 297 385 c 2
 192 326 l 1
 128 25 l 2
 125 11 109 0 95 0 c 0
 81 0 69 11 72 25 c 2
 128 291 l 1
 73 259 l 2
 67 256 62 255 56 255 c 0
 43 255 30 264 33 282 c 0
 36 292 41 301 52 307 c 2
 143 358 l 1
 207 663 l 2
 211 678 225 690 241 690 c 0
 256 690 267 678 263 663 c 2
 206 394 l 1
 277 433 l 2
 281 436 287 437 292 437 c 0
EndSplineSet
EndChar
StartChar: Nacute
Encoding: 323 323 235
Width: 619
Flags: MW
HStem: 0 21G<30.5 46 466.5 479> 662 20G<607 622.5> 908 20G<530.5 545.5>
LayerCount: 2
Back
Fore
SplineSet
471 0 m 0
 462 0 453 4 450 12 c 2
 186 563 l 1
 71 28 l 2
 68 12 54 0 38 0 c 0
 23 0 12 13 15 28 c 2
 149 653 l 2
 152 667 166 681 182 681 c 0
 191 681 199 677 204 669 c 2
 467 117 l 1
 582 654 l 2
 585 669 599 682 615 682 c 0
 630 682 641 669 638 654 c 2
 504 28 l 2
 501 13 487 0 471 0 c 0
547 869 m 2
 389 775 l 2
 381 770 372 766 366 766 c 0
 352 766 343 778 346 793 c 0
 347 799 350 806 356 810 c 2
 504 913 l 2
 513 920 525 928 536 928 c 0
 555 928 566 912 562 892 c 0
 560 883 555 874 547 869 c 2
EndSplineSet
EndChar
StartChar: nacute
Encoding: 324 324 251
Width: 535
Flags: MW
HStem: 0 21G<30.5 46.5 380.5 396> 445 54<342 416.5> 705 20G<475.5 490.5>
LayerCount: 2
Back
Fore
SplineSet
166 473 m 2
 128 292 l 1
 172 406 273 499 379 499 c 0
 523 499 492 351 420 29 c 0
 416 13 404 0 388 0 c 0
 373 0 363 13 366 28 c 0
 420 305 469 445 364 445 c 0
 320 445 263 424 189 326 c 0
 142 264 105 181 89 111 c 2
 71 30 l 2
 67 13 55 0 38 0 c 0
 23 0 12 12 15 26 c 2
 110 473 l 2
 113 488 129 500 144 500 c 0
 159 500 169 488 166 473 c 2
492 666 m 2
 334 572 l 2
 326 567 317 563 311 563 c 0
 297 563 288 575 291 590 c 0
 292 596 295 603 301 607 c 2
 448 710 l 2
 458 717 470 725 481 725 c 0
 500 725 511 709 507 689 c 0
 505 680 500 671 492 666 c 2
EndSplineSet
EndChar
StartChar: Ncaron
Encoding: 327 327 236
Width: 619
Flags: MW
HStem: 0 21G<30.5 46 466.5 479> 662 20G<607 622.5> 866 20G<321 331.5 572 582>
LayerCount: 2
Back
Fore
SplineSet
471 0 m 0
 462 0 453 4 450 12 c 2
 186 563 l 1
 71 28 l 2
 68 12 54 0 38 0 c 0
 23 0 12 13 15 28 c 2
 149 653 l 2
 152 667 166 681 182 681 c 0
 191 681 199 677 204 669 c 2
 467 117 l 1
 582 654 l 2
 585 669 599 682 615 682 c 0
 630 682 641 669 638 654 c 2
 504 28 l 2
 501 13 487 0 471 0 c 0
388 730 m 2
 301 840 l 2
 296 845 295 852 296 860 c 0
 299 874 314 886 328 886 c 0
 335 886 341 884 345 879 c 2
 423 792 l 1
 557 881 l 2
 563 885 569 886 575 886 c 0
 589 886 598 875 595 860 c 0
 594 852 589 844 581 839 c 2
 426 729 l 2
 419 724 412 722 406 722 c 0
 399 722 393 725 388 730 c 2
EndSplineSet
EndChar
StartChar: ncaron
Encoding: 328 328 252
Width: 535
Flags: MW
HStem: 0 21G<30.5 46.5 380.5 396> 445 54<342 416.5> 709 20G<265 275.5 516 526>
LayerCount: 2
Back
Fore
SplineSet
166 473 m 2
 128 292 l 1
 172 406 273 499 379 499 c 0
 523 499 492 351 420 29 c 0
 416 13 404 0 388 0 c 0
 373 0 363 13 366 28 c 0
 420 305 469 445 364 445 c 0
 320 445 263 424 189 326 c 0
 142 264 105 181 89 111 c 2
 71 30 l 2
 67 13 55 0 38 0 c 0
 23 0 12 12 15 26 c 2
 110 473 l 2
 113 488 129 500 144 500 c 0
 159 500 169 488 166 473 c 2
332 573 m 2
 246 683 l 2
 241 688 239 695 241 703 c 0
 244 717 258 729 272 729 c 0
 279 729 286 727 290 722 c 2
 367 635 l 1
 501 724 l 2
 507 728 513 729 519 729 c 0
 533 729 543 718 540 703 c 0
 538 695 534 687 525 682 c 2
 371 572 l 2
 364 567 357 565 351 565 c 0
 344 565 337 568 332 573 c 2
EndSplineSet
EndChar
StartChar: Ohungarumlaut
Encoding: 336 336 237
Width: 660
Flags: MW
HStem: -2 52<207 325.5 207 331> 630 52<362 481.5> 721 162<365 550.5 525 550.5>
LayerCount: 2
Back
Fore
SplineSet
553 824 m 2
 395 730 l 2
 387 725 378 721 372 721 c 0
 358 721 348 733 351 748 c 0
 353 754 355 761 361 765 c 2
 509 868 l 2
 518 875 530 883 541 883 c 0
 560 883 572 867 568 847 c 0
 566 838 561 829 553 824 c 2
713 824 m 2
 555 730 l 2
 547 725 538 721 532 721 c 0
 518 721 508 733 511 748 c 0
 513 754 515 761 521 765 c 2
 669 868 l 2
 678 875 690 883 701 883 c 0
 720 883 732 867 728 847 c 0
 726 838 721 829 713 824 c 2
253 -2 m 0
 108 -2 35 143 71 313 c 0
 114 513 284 682 440 682 c 0
 584 682 659 539 623 367 c 0
 580 167 409 -2 253 -2 c 0
422 630 m 0
 299 630 161 489 124 313 c 0
 93 169 150 50 264 50 c 0
 387 50 533 193 569 363 c 0
 597 498 541 630 422 630 c 0
EndSplineSet
EndChar
StartChar: ohungarumlaut
Encoding: 337 337 253
Width: 535
Flags: MW
HStem: 0 48<163.5 252.5 163.5 260> 452 48<272.5 360.5> 562 162<211 396.5 371 396.5>
LayerCount: 2
Back
Fore
SplineSet
197 0 m 0
 82 0 17 104 43 230 c 0
 74 376 208 500 334 500 c 0
 448 500 513 394 487 270 c 0
 456 123 323 0 197 0 c 0
319 452 m 0
 226 452 126 349 101 232 c 0
 80 133 120 48 207 48 c 0
 298 48 403 149 428 265 c 0
 449 365 402 452 319 452 c 0
399 665 m 2
 241 571 l 2
 233 566 224 562 218 562 c 0
 204 562 195 574 198 589 c 0
 199 595 201 602 207 606 c 2
 355 709 l 2
 365 716 376 724 387 724 c 0
 406 724 418 708 414 688 c 0
 412 679 407 670 399 665 c 2
559 665 m 2
 401 571 l 2
 393 566 384 562 378 562 c 0
 364 562 355 574 358 589 c 0
 359 595 361 602 367 606 c 2
 515 709 l 2
 525 716 536 724 547 724 c 0
 566 724 578 708 574 688 c 0
 572 679 567 670 559 665 c 2
EndSplineSet
EndChar
StartChar: OE
Encoding: 338 338 122
Width: 1098
Flags: MW
HStem: 0 57<519 965 567 953> 324 57<635 974 623 986> 625 57<687 1087 687 687> 664 20G<363 480.5>
LayerCount: 2
Back
Fore
SplineSet
567 57 m 1xe0
 965 57 l 2
 981 57 990 45 987 29 c 0
 983 13 969 0 953 0 c 2
 527 0 l 2
 511 0 500 13 504 29 c 2
 534 172 l 1
 459 69 354 0 254 0 c 0
 109 0 35 145 71 315 c 0
 114 515 285 684 441 684 c 0xd0
 520 684 588 638 616 557 c 1
 637 654 l 2
 640 670 655 682 671 682 c 2
 1099 682 l 2
 1115 682 1125 670 1122 654 c 0
 1118 638 1103 625 1087 625 c 2
 687 625 l 1
 635 381 l 1
 986 381 l 2
 1002 381 1012 369 1009 353 c 0
 1005 337 990 324 974 324 c 2
 623 324 l 1
 567 57 l 1xe0
265 52 m 0
 416 52 541 232 569 365 c 0
 598 500 542 632 423 632 c 0
 300 632 162 491 124 315 c 0
 94 171 151 52 265 52 c 0
EndSplineSet
EndChar
StartChar: oe
Encoding: 339 339 123
Width: 877
Flags: MW
HStem: 0 46<161 231.5> 437 46 464 20G<255.5 360>
LayerCount: 2
Back
Fore
SplineSet
411 244 m 0xc0
 436 361 387 437 308 437 c 0
 218 437 122 335 98 224 c 0
 76 120 122 46 200 46 c 0
 297 46 394 161 411 244 c 0xc0
605 0 m 0
 507 0 441 44 415 134 c 1
 357 52 272 0 191 0 c 0
 79 0 16 101 41 220 c 0
 68 347 188 484 323 484 c 0xa0
 397 484 458 434 472 361 c 1
 531 444 619 483 690 483 c 0
 810 483 849 397 840 354 c 0
 837 343 829 334 812 325 c 2
 465 147 l 1
 487 78 542 52 623 52 c 0
 666 52 719 77 752 108 c 0
 758 113 765 116 772 116 c 0
 787 116 796 105 793 90 c 0
 791 83 787 76 782 72 c 0
 738 32 666 0 605 0 c 0
679 430 m 0
 582 430 488 345 463 229 c 0
 461 218 459 209 459 198 c 1
 787 361 l 1
 773 411 744 430 679 430 c 0
EndSplineSet
EndChar
StartChar: Racute
Encoding: 340 340 226
Width: 597
Flags: MW
HStem: 0 21G<30 45.5 458 471.5> 250 47 632 56<241 340> 892 20G<511.5 526.5>
LayerCount: 2
Back
Fore
SplineSet
529 853 m 2
 371 759 l 2
 363 754 354 750 348 750 c 0
 334 750 324 762 328 777 c 0
 329 783 331 790 337 794 c 2
 485 897 l 2
 495 904 506 912 517 912 c 0
 536 912 548 896 544 876 c 0
 542 867 537 858 529 853 c 2
496 41 m 0
 497 37 497 32 496 28 c 0
 493 14 480 0 463 0 c 0
 453 0 445 6 441 16 c 0
 358 242 258 250 215 250 c 0
 196 250 152 246 117 241 c 1
 71 28 l 2
 68 12 53 0 38 0 c 0
 22 0 12 12 15 28 c 2
 147 648 l 2
 156 689 172 688 261 688 c 0
 486 688 595 611 567 478 c 0
 543 366 437 308 336 276 c 1
 375 250 457 173 496 41 c 0
200 631 m 1
 129 297 l 1
 273 300 484 349 511 478 c 0
 533 580 434 632 246 632 c 0
 236 632 215 632 200 631 c 1
EndSplineSet
EndChar
StartChar: racute
Encoding: 341 341 242
Width: 416
Flags: MW
HStem: 0 21G<31 45.5> 447 55<302 340.5> 705 20G<418.5 433.5>
LayerCount: 2
Back
Fore
SplineSet
435 666 m 2
 277 572 l 2
 269 567 260 563 254 563 c 0
 240 563 231 575 234 590 c 0
 235 596 238 603 244 607 c 2
 391 710 l 2
 401 717 413 725 424 725 c 0
 443 725 454 709 450 689 c 0
 448 680 443 671 435 666 c 2
410 422 m 2
 403 389 l 2
 400 374 385 362 369 362 c 0
 349 362 347 377 349 390 c 2
 355 415 l 2
 358 432 355 447 326 447 c 0
 278 447 224 407 176 357 c 0
 152 332 127 285 120 253 c 2
 71 26 l 2
 68 12 53 0 38 0 c 0
 24 0 12 12 15 26 c 2
 110 472 l 2
 113 487 129 499 144 499 c 0
 160 499 170 487 167 472 c 2
 146 376 l 1
 188 430 258 502 346 502 c 0
 409 502 418 458 410 422 c 2
EndSplineSet
EndChar
StartChar: Rcaron
Encoding: 344 344 238
Width: 597
Flags: MW
HStem: 0 21G<30 45.5 458 471.5> 250 47 632 56<241 340> 866 20G<299 309.5 550 560>
LayerCount: 2
Back
Fore
SplineSet
366 730 m 2
 279 840 l 2
 274 845 273 852 274 860 c 0
 277 874 292 886 306 886 c 0
 313 886 319 884 323 879 c 2
 401 792 l 1
 535 881 l 2
 541 885 547 886 553 886 c 0
 567 886 576 875 573 860 c 0
 572 852 567 844 559 839 c 2
 404 729 l 2
 397 724 390 722 384 722 c 0
 377 722 371 725 366 730 c 2
496 41 m 0
 497 37 497 32 496 28 c 0
 493 14 480 0 463 0 c 0
 453 0 445 6 441 16 c 0
 358 242 258 250 215 250 c 0
 196 250 152 246 117 241 c 1
 71 28 l 2
 68 12 53 0 38 0 c 0
 22 0 12 12 15 28 c 2
 147 648 l 2
 156 689 172 688 261 688 c 0
 486 688 595 611 567 478 c 0
 543 366 437 308 336 276 c 1
 375 250 457 173 496 41 c 0
200 631 m 1
 129 297 l 1
 273 300 484 349 511 478 c 0
 533 580 434 632 246 632 c 0
 236 632 215 632 200 631 c 1
EndSplineSet
EndChar
StartChar: rcaron
Encoding: 345 345 254
Width: 416
Flags: MW
HStem: 0 21G<31 45.5> 447 55<302 340.5> 709 20G<215 225.5 466 476>
LayerCount: 2
Back
Fore
SplineSet
282 573 m 2
 196 683 l 2
 191 688 189 695 191 703 c 0
 194 717 208 729 222 729 c 0
 229 729 236 727 240 722 c 2
 317 635 l 1
 451 724 l 2
 457 728 463 729 469 729 c 0
 483 729 493 718 490 703 c 0
 488 695 484 687 475 682 c 2
 321 572 l 2
 314 567 307 565 301 565 c 0
 294 565 287 568 282 573 c 2
410 422 m 2
 403 389 l 2
 400 374 385 362 369 362 c 0
 349 362 347 377 349 390 c 2
 355 415 l 2
 358 432 355 447 326 447 c 0
 278 447 224 407 176 357 c 0
 152 332 127 285 120 253 c 2
 71 26 l 2
 68 12 53 0 38 0 c 0
 24 0 12 12 15 26 c 2
 110 472 l 2
 113 487 129 499 144 499 c 0
 160 499 170 487 167 472 c 2
 146 376 l 1
 188 430 258 502 346 502 c 0
 409 502 418 458 410 422 c 2
EndSplineSet
EndChar
StartChar: Sacute
Encoding: 346 346 207
Width: 598
Flags: MW
HStem: 0 53<223.5 296.5 223.5 300.5> 0 186<65.5 300.5> 518 164<359 570> 632 50<359.5 439> 892 20G<534.5 549.5>
LayerCount: 2
Back
Fore
SplineSet
345 388 m 0x98
 483 347 542 283 522 191 c 0
 494 60 352 0 249 0 c 0
 136 0 54 57 38 140 c 0
 37 144 37 152 38 157 c 0
 41 173 57 186 74 186 c 0x68
 89 186 97 177 99 163 c 0
 109 87 188 53 259 53 c 0
 334 53 438 93 461 198 c 0
 467 228 469 288 320 331 c 0
 228 357 126 409 148 509 c 0
 176 640 302 682 416 682 c 0
 490 682 611 662 595 548 c 0
 592 531 578 518 562 518 c 0xa8
 548 518 538 529 540 542 c 0
 546 604 475 632 403 632 c 0
 316 632 231 602 211 506 c 0
 200 456 246 417 345 388 c 0x98
552 853 m 2
 394 759 l 2
 386 754 377 750 371 750 c 0
 357 750 347 762 351 777 c 0
 352 783 354 790 360 794 c 2
 508 897 l 2
 518 904 529 912 540 912 c 0
 559 912 571 896 567 876 c 0
 565 867 560 858 552 853 c 2
EndSplineSet
EndChar
StartChar: Scedilla
Encoding: 350 350 209
Width: 598
Flags: MW
HStem: -201 42<204.5 229.5 204.5 232> -61 42<234 250.5> 0 53<240 249 240 240> 518 164<359 570> 632 50<359.5 439>
LayerCount: 2
Back
Fore
SplineSet
184 -33 m 2xe8
 204 3 l 1
 115 16 51 68 38 140 c 0
 37 144 37 152 38 157 c 0
 41 173 57 186 74 186 c 0
 89 186 97 177 99 163 c 0
 109 87 188 53 259 53 c 0
 334 53 438 93 461 198 c 0
 467 228 469 288 320 331 c 0
 228 357 126 409 148 509 c 0
 176 640 302 682 416 682 c 0
 490 682 611 662 595 548 c 0
 592 531 578 518 562 518 c 0xf0
 548 518 538 529 540 542 c 0
 546 604 475 632 403 632 c 0
 316 632 231 602 211 506 c 0
 200 456 246 417 345 388 c 0
 483 347 542 283 522 191 c 0
 494 60 352 0 249 0 c 2
 240 0 l 1
 234 -19 l 1
 302 -19 327 -62 317 -110 c 0
 306 -160 257 -201 207 -201 c 0
 175 -201 132 -179 139 -146 c 0
 141 -138 152 -128 164 -128 c 0
 172 -128 176 -133 180 -139 c 0
 186 -148 193 -159 216 -159 c 0
 243 -159 269 -137 275 -110 c 0
 281 -83 264 -61 237 -61 c 0
 222 -61 211 -67 203 -71 c 0
 199 -74 194 -76 190 -76 c 0
 179 -76 171 -68 174 -56 c 0
 175 -50 178 -43 184 -33 c 2xe8
EndSplineSet
EndChar
StartChar: scedilla
Encoding: 351 351 221
Width: 458
Flags: MW
HStem: -201 42<140.5 165.5 140.5 168> -61 42<170 186.5> -2 53<175 177 175 175> 341 158<265.5 404> 449 50<265.5 327.5>
LayerCount: 2
Back
Fore
SplineSet
120 -33 m 2xe8
 140 1 l 1
 46 18 16 97 23 128 c 0
 26 143 40 155 55 155 c 0
 68 155 76 147 76 136 c 0
 83 83 124 51 188 51 c 0
 277 51 319 111 325 140 c 0
 335 185 320 210 228 239 c 0
 129 271 90 309 105 380 c 0
 125 475 230 499 301 499 c 0
 402 499 446 455 432 387 c 0
 425 357 414 341 394 341 c 0xf0
 376 341 370 354 373 368 c 0
 373 371 377 379 379 388 c 0
 387 425 362 449 293 449 c 0
 222 449 167 424 157 379 c 0
 145 322 208 303 245 291 c 0
 332 261 399 239 378 139 c 0
 364 72 282 -2 177 -2 c 2
 175 -2 l 1
 170 -19 l 1
 238 -19 263 -62 253 -110 c 0
 242 -160 193 -201 143 -201 c 0
 111 -201 68 -179 75 -146 c 0
 77 -138 88 -128 100 -128 c 0
 108 -128 112 -133 116 -139 c 0
 122 -148 129 -159 152 -159 c 0
 179 -159 205 -137 211 -110 c 0
 217 -83 200 -61 173 -61 c 0
 158 -61 147 -67 139 -71 c 0
 135 -74 130 -76 126 -76 c 0
 115 -76 107 -68 110 -56 c 0
 111 -50 114 -43 120 -33 c 2xe8
EndSplineSet
EndChar
StartChar: Scaron
Encoding: 352 352 136
Width: 598
Flags: MW
HStem: 0 53<223.5 296.5 223.5 300.5> 0 186<65.5 300.5> 518 164<359 570> 632 50<359.5 439> 873 20G<338 348.5 589 599>
LayerCount: 2
Back
Fore
SplineSet
405 737 m 2x98
 319 847 l 2
 314 852 312 859 314 867 c 0
 317 881 331 893 345 893 c 0
 352 893 359 891 363 886 c 2
 440 799 l 1
 574 888 l 2
 580 892 586 893 592 893 c 0
 606 893 616 882 613 867 c 0
 611 859 606 851 598 846 c 2
 444 736 l 2
 437 731 429 729 423 729 c 0
 416 729 410 732 405 737 c 2x98
345 388 m 0
 483 347 542 283 522 191 c 0
 494 60 352 0 249 0 c 0
 136 0 54 57 38 140 c 0
 37 144 37 152 38 157 c 0
 41 173 57 186 74 186 c 0x68
 89 186 97 177 99 163 c 0
 109 87 188 53 259 53 c 0
 334 53 438 93 461 198 c 0
 467 228 469 288 320 331 c 0
 228 357 126 409 148 509 c 0
 176 640 302 682 416 682 c 0
 490 682 611 662 595 548 c 0
 592 531 578 518 562 518 c 0xa8
 548 518 538 529 540 542 c 0
 546 604 475 632 403 632 c 0
 316 632 231 602 211 506 c 0
 200 456 246 417 345 388 c 0
EndSplineSet
EndChar
StartChar: scaron
Encoding: 353 353 137
Width: 458
Flags: MW
HStem: -2 53<156 229.5> 341 158<265.5 404> 449 50<265.5 327.5> 709 20G<241 251.5 492 502>
LayerCount: 2
Back
Fore
SplineSet
308 573 m 2xb0
 222 683 l 2
 217 688 215 695 217 703 c 0
 220 717 234 729 248 729 c 0
 255 729 262 727 266 722 c 2
 343 635 l 1
 477 724 l 2
 483 728 489 729 495 729 c 0
 509 729 519 718 516 703 c 0
 514 695 510 687 501 682 c 2
 347 572 l 2
 340 567 333 565 327 565 c 0
 320 565 313 568 308 573 c 2xb0
177 -2 m 0
 54 -2 15 94 23 128 c 0
 26 143 40 155 55 155 c 0
 68 155 76 147 76 136 c 0
 83 83 124 51 188 51 c 0
 277 51 319 111 325 140 c 0
 335 185 320 210 228 239 c 0
 129 271 90 309 105 380 c 0
 125 475 230 499 301 499 c 0
 402 499 446 455 432 387 c 0
 425 357 414 341 394 341 c 0xd0
 376 341 370 354 373 368 c 0
 373 371 377 379 379 388 c 0
 387 425 362 449 293 449 c 0
 222 449 167 424 157 379 c 0
 145 322 208 303 245 291 c 0
 332 261 399 239 378 139 c 0
 364 72 282 -2 177 -2 c 0
EndSplineSet
EndChar
StartChar: uni0162
Encoding: 354 354 241
Width: 522
Flags: MW
HStem: -198 21G<128.5 144.5> 0 21G<191.5 207> 625 56<107.5 573 127 303 359 561 359 359>
LayerCount: 2
Back
Fore
SplineSet
573 681 m 2
 589 681 599 669 595 653 c 0
 592 638 577 625 561 625 c 2
 359 625 l 1
 232 28 l 2
 229 13 215 0 199 0 c 0
 184 0 173 13 176 28 c 2
 303 625 l 1
 115 625 l 2
 100 625 90 638 93 653 c 0
 97 669 112 681 127 681 c 2
 573 681 l 2
203 -28 m 0
 221 -28 231 -45 228 -60 c 0
 224 -79 218 -88 195 -124 c 0
 159 -182 154 -198 135 -198 c 0
 122 -198 115 -188 117 -176 c 0
 118 -173 119 -170 121 -167 c 2
 159 -103 l 1
 153 -96 150 -85 153 -73 c 0
 158 -49 182 -28 203 -28 c 0
EndSplineSet
EndChar
StartChar: uni0163
Encoding: 355 355 257
Width: 387
Flags: MW
HStem: -198 170<68.5 152> -1 21G<129.5 144.5> 444 56<79 216 101 204 272 378 101 260> 444 228<79 288.5 87 288.5 272 288.5 272 378 260 288.5>
LayerCount: 2
Back
Fore
SplineSet
143 -28 m 0xe0
 161 -28 171 -45 168 -60 c 0
 164 -79 158 -88 135 -124 c 0
 99 -182 94 -198 75 -198 c 0
 62 -198 55 -188 57 -176 c 0
 58 -173 59 -170 61 -167 c 2
 99 -103 l 1
 93 -96 90 -85 93 -73 c 0
 98 -49 122 -28 143 -28 c 0xe0
272 500 m 1
 390 500 l 2
 406 500 415 488 412 472 c 0
 409 457 394 444 378 444 c 2
 260 444 l 1
 171 26 l 2
 168 11 152 -1 137 -1 c 0
 122 -1 112 11 115 26 c 2
 204 444 l 1
 87 444 l 2
 71 444 62 457 65 472 c 0
 68 489 85 500 101 500 c 2
 216 500 l 1xe0
 246 643 l 2
 249 658 264 672 280 672 c 0xd0
 297 672 305 658 302 643 c 2
 272 500 l 1
EndSplineSet
EndChar
StartChar: tcaron
Encoding: 357 357 222
Width: 410
Flags: MW
HStem: -1 21G<129.5 144.5> 444 56<79 216 101 204 272 378 101 260> 444 228<79 288.5 87 288.5 272 288.5 272 378 260 288.5> 520 170<375.5 458>
LayerCount: 2
Back
Fore
SplineSet
449 690 m 0xd0
 467 690 478 673 474 658 c 0
 470 639 464 630 442 594 c 0
 405 536 401 520 382 520 c 0
 369 520 361 530 364 542 c 0
 364 545 366 548 368 551 c 2
 405 615 l 1
 400 622 397 633 400 645 c 0
 405 669 428 690 449 690 c 0xd0
272 500 m 1
 390 500 l 2
 406 500 415 488 412 472 c 0
 409 457 394 444 378 444 c 2
 260 444 l 1
 171 26 l 2
 168 11 152 -1 137 -1 c 0
 122 -1 112 11 115 26 c 2
 204 444 l 1
 87 444 l 2
 71 444 62 457 65 472 c 0
 68 489 85 500 101 500 c 2
 216 500 l 1xd0
 246 643 l 2
 249 658 264 672 280 672 c 0xa0
 297 672 305 658 302 643 c 2
 272 500 l 1
EndSplineSet
EndChar
StartChar: Uring
Encoding: 366 366 239
Width: 683
Flags: MW
HStem: 0 49<202 357.5 202 366.5> 721 46<434 471.5> 893 47<472 513.5>
LayerCount: 2
Back
Fore
SplineSet
699 653 m 0
 677 527 655 400 610 270 c 0
 555 110 455 0 278 0 c 0
 110 0 47 125 90 367 c 0
 108 474 131 569 151 654 c 0
 154 670 170 681 184 681 c 0
 199 681 210 669 206 653 c 0
 185 564 165 474 148 381 c 0
 123 236 114 49 290 49 c 0
 425 49 510 139 555 277 c 0
 594 397 615 518 643 651 c 0
 646 667 659 681 677 681 c 0
 692 681 702 668 699 653 c 0
438 721 m 0
 376 721 333 766 345 823 c 0
 360 891 438 940 506 940 c 0
 566 940 610 895 597 837 c 0
 583 768 505 721 438 721 c 0
492 893 m 0
 438 893 394 853 387 823 c 0
 380 788 411 767 457 767 c 0
 492 767 546 793 555 835 c 0
 561 864 535 893 492 893 c 0
EndSplineSet
EndChar
StartChar: uring
Encoding: 367 367 255
Width: 512
Flags: MW
HStem: -3 49<121.5 199.5> 0 21G<352.5 370> 563 46<325 362.5> 735 47<364 405.5>
LayerCount: 2
Back
Fore
SplineSet
492 475 m 2xb0
 397 28 l 2
 394 13 378 0 362 0 c 0x70
 343 0 334 15 338 33 c 2
 347 76 l 1
 314 40 238 -3 161 -3 c 0
 9 -3 42 143 72 291 c 0
 88 368 108 428 122 466 c 0
 132 495 142 500 156 500 c 0
 171 500 182 489 178 474 c 0
 171 450 146 384 127 292 c 0
 101 170 72 46 171 46 c 0
 240 46 320 94 347 118 c 0
 363 133 369 161 369 161 c 1
 440 475 l 2
 444 490 458 500 472 500 c 0
 486 500 496 490 492 475 c 2xb0
329 563 m 0
 267 563 225 608 237 665 c 0
 251 733 330 782 398 782 c 0
 458 782 501 737 489 679 c 0
 474 610 396 563 329 563 c 0
384 735 m 0
 330 735 285 695 279 665 c 0
 271 630 302 609 348 609 c 0
 383 609 437 635 446 677 c 0
 453 706 427 735 384 735 c 0
EndSplineSet
EndChar
